<?xml version="1.0" standalone="no"?>
<!DOCTYPE svg PUBLIC "-//W3C//DTD SVG 1.1//EN" "http://www.w3.org/Graphics/SVG/1.1/DTD/svg11.dtd" >
<svg xmlns="http://www.w3.org/2000/svg" xmlns:xlink="http://www.w3.org/1999/xlink" version="1.1">
<metadata>
Created by FontForge 20170731 at Mon Jan 10 15:05:18 2022
 By Aleksey,,,
https://www.baianat.com/
</metadata>
<defs>
<font id="SomarRounded-Bold" horiz-adv-x="0" >
  <font-face 
    font-family="Somar Rounded Bold"
    font-weight="700"
    font-stretch="normal"
    units-per-em="1000"
    panose-1="0 0 8 0 0 0 0 0 0 0"
    ascent="800"
    descent="-200"
    x-height="540"
    cap-height="750"
    bbox="-482 -463 1472 1251"
    underline-thickness="50"
    underline-position="-150"
    unicode-range="U+0020-FEFC"
  />
<missing-glyph horiz-adv-x="525" 
 />
    <glyph glyph-name="uniFDF2" unicode="&#x627;&#xfedf;&#xfee0;&#xfeea;" horiz-adv-x="1496" arabic-form="isolated" 
d="M738 918.5q-8 9.5 -8 24.5v65q0 10 7.5 17t17.5 7q11 0 18.5 -8t7.5 -21v-66q0 -11 -6 -16t-19 -9q-10 -3 -18 6.5zM664.5 754.5q-19.5 19.5 -19.5 49.5v13q0 10 7 17t19 7q10 0 17.5 -8.5t7.5 -20.5v-8q0 -19 17 -19t17 22v24q0 10 7 17t18 7t18.5 -8t7.5 -21v-11
q0 -17 17 -17q20 0 20 22v35q0 10 7 17t18 7t18 -8t7 -21v-30q0 -33 -16.5 -53.5t-45.5 -20.5q-12 0 -24.5 5t-19.5 14q-16 -30 -49 -30q-29 0 -48.5 19.5zM1139 675.5q19 -20.5 19 -51.5v-496q0 -54 -37 -91t-91 -37h-140q-66 0 -122 56q-53 -56 -143 -56h-50
q-43 0 -80 16.5t-63 46.5q-58 -60 -154 -60q-60 0 -110.5 31t-80.5 83t-30 114v59q0 61 30.5 113t82.5 82.5t113 30.5h38q55 0 100.5 -27t72.5 -72.5t27 -100.5v-127q0 -25 14.5 -40t39.5 -15h52q42 0 58 21.5t16 59.5v200l-1 209q0 31 19 51.5t48 20.5h1v0q29 0 48 -20.5
t19 -51.5v-356q0 -20 -1 -31v-22q0 -38 16.5 -59.5t58.5 -21.5h76q15 0 27 11t12 32v447q0 31 19 51.5t48 20.5t48 -20.5zM1405.5 676.5q19.5 -19.5 19.5 -46.5v-563q0 -28 -19.5 -47.5t-46.5 -19.5q-28 0 -48 19.5t-20 47.5v563q0 27 20 46.5t48 19.5q27 0 46.5 -19.5z
M387 300q0 35 -23.5 58.5t-58.5 23.5h-22q-41 0 -66.5 -26t-25.5 -68v-57q0 -39 26 -66.5t61 -27.5q33 0 61.5 12.5t47.5 36.5v114z" />
    <glyph glyph-name="uniFEF5" unicode="&#xfedf;&#xfe82;" horiz-adv-x="687" arabic-form="isolated" 
d="M134 752q-14 0 -21 12q-4 5 -4 12q0 11 9 20l75 66q27 -57 109 -57q32 0 73 15q3 1 9 1q12 0 21 -8t10 -21q0 -9 -4.5 -17t-12.5 -12q-20 -10 -47 -16.5t-49 -6.5q-36 0 -64 11t-54 35l-33 -28q-8 -6 -17 -6zM602.5 675.5q18.5 -20.5 18.5 -51.5v-496q0 -54 -37 -91
t-91 -37h-373q-31 0 -51.5 19t-20.5 48t20.5 48t51.5 19h56v424q0 31 19 51.5t48 20.5t48.5 -20.5t19.5 -51.5v-424h137q15 0 27.5 11t12.5 32v447q0 31 19 51.5t48 20.5t47.5 -20.5z" />
    <glyph glyph-name="uniFEF6" unicode="&#xfee0;&#xfe82;" horiz-adv-x="756" arabic-form="final" 
d="M148 752q-13 0 -21 12q-4 5 -4 12q0 11 9 20l76 66q27 -57 108 -57q33 0 74 15q3 1 9 1q13 0 21.5 -9t8.5 -22q0 -16 -16 -27q-21 -10 -47.5 -16.5t-49.5 -6.5q-36 0 -64 11t-54 35l-33 -28q-7 -6 -17 -6zM752 0h-57q-35 0 -66 15t-55 42q-52 -57 -144 -57h-292
q-31 0 -51.5 19t-20.5 48t20.5 48t51.5 19h58v424q0 31 19 51.5t48 20.5t48.5 -20.5t19.5 -51.5v-424h101q42 0 58 21.5t16 59.5l-1 409q0 31 19 51.5t48 20.5t48.5 -20.5t19.5 -51.5l-1 -409q0 -38 16.5 -59.5t58.5 -21.5h38v-134z" />
    <glyph glyph-name="uniFEF7" unicode="&#xfedf;&#xfe84;" horiz-adv-x="687" arabic-form="isolated" 
d="M150 693.5q-11 10.5 -11 25.5t11 26t25 11q-24 27 -24 64q0 44 27 71t74 27q75 0 99 -67q2 -4 2 -13q0 -14 -10.5 -24t-25.5 -10q-9 0 -16.5 4.5t-12.5 12.5q-11 23 -34 23q-16 0 -25 -8t-9 -24q0 -13 8.5 -29t28.5 -27h72q15 0 26 -11t11 -26t-11 -25.5t-26 -10.5h-153
q-15 0 -26 10.5zM602.5 675.5q18.5 -20.5 18.5 -51.5v-496q0 -54 -37 -91t-91 -37h-373q-31 0 -51.5 19t-20.5 48t20.5 48t51.5 19h56v424q0 31 19 51.5t48 20.5t48.5 -20.5t19.5 -51.5v-424h137q15 0 27.5 11t12.5 32v447q0 31 19 51.5t48 20.5t47.5 -20.5z" />
    <glyph glyph-name="uniFEF8" unicode="&#xfee0;&#xfe84;" horiz-adv-x="747" arabic-form="final" 
d="M150 693.5q-11 10.5 -11 25.5t11 26t25 11q-24 27 -24 64q0 44 27 71t74 27q75 0 99 -67q2 -4 2 -13q0 -14 -10.5 -24t-25.5 -10q-9 0 -16.5 4.5t-12.5 12.5q-11 23 -34 23q-16 0 -25 -8t-9 -24q0 -13 8.5 -29t28.5 -27h72q15 0 26 -11t11 -26t-11 -25.5t-26 -10.5h-153
q-15 0 -26 10.5zM752 134v-134h-57q-35 0 -66 15t-55 42q-52 -57 -144 -57h-292q-31 0 -51.5 19t-20.5 48t20.5 48t51.5 19h58v424q0 31 19 51.5t48 20.5t48.5 -20.5t19.5 -51.5v-424h101q42 0 58 21.5t16 59.5l-1 409q0 31 19 51.5t48 20.5t48.5 -20.5t19.5 -51.5l-1 -409
q0 -38 16.5 -59.5t58.5 -21.5h38z" />
    <glyph glyph-name="uniFEF9" unicode="&#xfedf;&#xfe88;" horiz-adv-x="687" arabic-form="isolated" 
d="M602.5 675.5q18.5 -20.5 18.5 -51.5v-496q0 -54 -37 -91t-91 -37h-373q-31 0 -51.5 19t-20.5 48t20.5 48t51.5 19h56v424q0 31 19 51.5t48 20.5t48.5 -20.5t19.5 -51.5v-424h137q15 0 27.5 11t12.5 32v447q0 31 19 51.5t48 20.5t47.5 -20.5zM347 -232q11 -11 11 -26
t-11 -26t-26 -11h-153q-15 0 -26 11t-11 26t11 26t25 11q-24 27 -24 64q0 44 26.5 70.5t74.5 26.5q36 0 61.5 -16.5t37.5 -49.5q2 -4 2 -13q0 -14 -10.5 -24t-25.5 -10q-20 0 -29 17q-12 23 -35 23q-15 0 -24 -8.5t-9 -23.5q0 -14 8.5 -29t28.5 -27h72q15 0 26 -11z" />
    <glyph glyph-name="uniFEFA" unicode="&#xfee0;&#xfe88;" horiz-adv-x="747" arabic-form="final" 
d="M752 134v-134h-57q-35 0 -66 15t-55 42q-52 -57 -144 -57h-292q-31 0 -51.5 19t-20.5 48t20.5 48t51.5 19h58v424q0 31 19 51.5t48 20.5t48.5 -20.5t19.5 -51.5v-424h101q42 0 58 21.5t16 59.5l-1 409q0 31 19 51.5t48 20.5t48.5 -20.5t19.5 -51.5l-1 -409
q0 -38 16.5 -59.5t58.5 -21.5h38zM347 -232q11 -11 11 -26t-11 -26t-26 -11h-153q-15 0 -26 11t-11 26t11 26t25 11q-24 27 -24 64q0 44 26.5 70.5t74.5 26.5q36 0 61.5 -16.5t37.5 -49.5q2 -4 2 -13q0 -14 -10.5 -24t-25.5 -10q-20 0 -29 17q-12 23 -35 23q-15 0 -24 -8.5
t-9 -23.5q0 -14 8.5 -29t28.5 -27h72q15 0 26 -11z" />
    <glyph glyph-name="uniFEFB" unicode="&#xfedf;&#xfe8e;" horiz-adv-x="687" arabic-form="isolated" 
d="M602.5 675.5q18.5 -20.5 18.5 -51.5v-496q0 -54 -37 -91t-91 -37h-373q-31 0 -51.5 19t-20.5 48t20.5 48t51.5 19h56v424q0 31 19 51.5t48 20.5t48.5 -20.5t19.5 -51.5v-424h137q15 0 27.5 11t12.5 32v447q0 31 19 51.5t48 20.5t47.5 -20.5z" />
    <glyph glyph-name="uniFEFC" unicode="&#xfee0;&#xfe8e;" horiz-adv-x="747" arabic-form="final" 
d="M752 0h-57q-35 0 -66 15t-55 42q-52 -57 -144 -57h-292q-31 0 -51.5 19t-20.5 48t20.5 48t51.5 19h58v424q0 31 19 51.5t48 20.5t48.5 -20.5t19.5 -51.5v-424h101q42 0 58 21.5t16 59.5l-1 409q0 31 19 51.5t48 20.5t48.5 -20.5t19.5 -51.5l-1 -409q0 -38 16.5 -59.5
t58.5 -21.5h38v-134z" />
    <glyph glyph-name="uni066E.init" unicode="&#x66e;" horiz-adv-x="307" 
d="M230.5 454.5q19.5 -19.5 19.5 -47.5v-250q0 -43 -21 -79t-57 -57t-79 -21h-95l-57 21v92l57 21h43q76 0 76 81v192q0 28 19 47.5t47 19.5t47.5 -19.5z" />
    <glyph glyph-name="uni066E.medi" unicode="&#x66e;" horiz-adv-x="340" 
d="M341 134v-134h-48q-68 0 -123 57q-52 -57 -143 -57h-28l-58 21v91l58 22h30q42 0 58 21.5t16 59.5v187q0 29 17 49q20 23 49 23h1v0q28 0 47 -20.5t19 -51.5v-187q0 -37 16.5 -59t58.5 -22h30z" />
    <glyph glyph-name="uni066E.fina" unicode="&#x66e;" horiz-adv-x="906" 
d="M914 134v-134h-49q-67 0 -122 57q-52 -57 -144 -57h-336q-62 0 -113 29.5t-80.5 80.5t-29.5 113v76q0 28 19.5 47t47.5 19t47.5 -19t19.5 -47v-76q0 -37 26 -63t63 -26h337q76 0 76 81v191q0 21 10 37q9 15 23.5 23t32.5 8h1q28 0 47 -19.5t19 -47.5v-192q0 -81 75 -81
h30z" />
    <glyph glyph-name="uni066F.fina" unicode="&#x66f;" horiz-adv-x="849" 
d="M854 134v-134h-71q-18 -83 -69 -147t-126 -99.5t-165 -35.5h-3q-104 0 -188.5 48t-133 133t-48.5 189v38q0 31 19.5 51.5t48.5 20.5t48 -20.5t19 -51.5v-38q0 -68 30 -121.5t83.5 -83.5t121.5 -30h3q87 0 144 39t79 108h-90q-62 0 -112.5 29t-79.5 79.5t-29 112.5v72
q0 62 29 112t79.5 79t112.5 29h15q62 0 112.5 -29t79.5 -79t29 -112v-159h62zM493.5 158q24.5 -24 62.5 -24h103v159q0 38 -24.5 62t-63.5 24h-15q-38 0 -62.5 -24t-24.5 -62v-72q0 -39 24.5 -63z" />
    <glyph glyph-name="uni06A1.init" unicode="&#x6a1;" horiz-adv-x="578" 
d="M410 484q52 -30 82 -82t30 -116v-76q0 -57 -28.5 -105t-77 -76.5t-105.5 -28.5h-312l-58 22v91l58 21h89q-31 45 -31 95v57q0 64 30 116t82 82t115 30h11q63 0 115 -30zM362 354q-26 26 -67 26h-11q-41 0 -67 -26t-26 -68v-57q0 -39 26 -67t61 -28h20q38 0 64 26.5
t26 63.5v62q0 42 -26 68z" />
    <glyph glyph-name="uni06A1.medi" unicode="&#x6a1;" horiz-adv-x="585" 
d="M587 134v-134h-590l-58 21v91l58 22h97q-30 43 -30 95v57q0 64 29 116.5t81.5 82t118.5 29.5q67 0 119.5 -29.5t81.5 -81.5t29 -117v-57q0 -53 -31 -95h95zM389 286q0 43 -25 68.5t-70 25.5q-46 0 -71.5 -25t-25.5 -69v-57q0 -39 30.5 -67t68.5 -28q41 0 67 27t26 68v57z
" />
    <glyph glyph-name="uni06A1.fina" unicode="&#x6a1;" horiz-adv-x="957" 
d="M962 134v-134h-701q-62 0 -112.5 29.5t-79.5 80.5t-29 113v55q0 31 19 51.5t48 20.5t48 -20.5t19 -51.5v-55q0 -40 24.5 -64.5t64.5 -24.5h165q-31 45 -31 95v57q0 64 29.5 116t82 82t118.5 30q67 0 119 -29.5t81 -81.5t29 -117v-57q0 -54 -30 -95h136zM723 286
q0 43 -25.5 68.5t-69.5 25.5q-46 0 -71.5 -25t-25.5 -69v-57q0 -39 30 -67t68 -28q42 0 68 27t26 68v57z" />
    <glyph glyph-name="uni06C2.fina" unicode="&#x6c2;" horiz-adv-x="569" 
d="M184 597q-11 11 -11 26t10.5 25.5t25.5 11.5q-24 26 -24 64q0 44 26.5 70.5t74.5 26.5q36 0 61 -16.5t38 -49.5q2 -8 2 -12q0 -15 -10 -25t-25 -10h-2q-18 0 -29 17q-11 23 -34 23q-15 0 -24 -8.5t-9 -23.5q0 -14 8.5 -29t27.5 -27h73q15 0 26 -11t11 -26t-11 -26
t-26 -11h-153q-15 0 -26 11zM402 486.5q51 -29.5 80.5 -80.5t29.5 -111v-78q0 -59 -29 -108t-78 -78t-108 -29h-22q-61 0 -111.5 29t-80 79.5t-29.5 111.5v73q0 60 30 110.5t80.5 80.5t110.5 30h16q60 0 111 -29.5zM378 295q0 38 -24.5 62.5t-62.5 24.5h-16
q-38 0 -62.5 -24.5t-24.5 -62.5v-72q0 -36 25.5 -62t61.5 -26h28q31 0 53 22.5t22 53.5v84z" />
    <glyph glyph-name="uni06C3.fina" unicode="&#x6c3;" horiz-adv-x="605" 
d="M165.5 611.5q-23.5 23.5 -23.5 55.5t23.5 55.5t55.5 23.5t55.5 -23.5t23.5 -55.5t-23.5 -55.5t-55.5 -23.5t-55.5 23.5zM379.5 611.5q-23.5 23.5 -23.5 55.5t23.5 55.5t55.5 23.5q31 0 54.5 -23.5t23.5 -55.5t-23 -55.5t-55 -23.5t-55.5 23.5zM610 134v-134h-35
q-53 0 -95.5 24.5t-67.5 67t-25 95.5v104q0 37 -26.5 63t-63.5 26h-14q-41 0 -66.5 -26t-25.5 -68v-183h-134v185q0 61 30.5 113t82.5 82.5t113 30.5h20q59 0 109 -29.5t79.5 -79.5t29.5 -109v-107q0 -25 14.5 -40t39.5 -15h35z" />
    <glyph glyph-name="uniFB57" unicode="&#x67e;" horiz-adv-x="906" arabic-form="final" 
d="M914 134v-134h-49q-67 0 -122 57q-54 -57 -144 -57h-336q-63 0 -114 29t-80 80t-29 114v70q0 31 19 51.5t48 20.5t48 -20.5t19 -51.5v-70q0 -40 24.5 -64.5t64.5 -24.5h337q42 0 59 22t17 59v187q0 29 17 49q20 23 49 23h1v0q28 0 47 -20.5t19 -51.5v-187
q0 -38 16.5 -59.5t58.5 -21.5h30zM377.5 -237q-23.5 -23 -55.5 -23t-55.5 23t-23.5 56q0 32 23.5 55t55.5 23t55.5 -23t23.5 -55q0 -33 -23.5 -56zM586.5 -126q23.5 -23 23.5 -55q0 -33 -23.5 -56t-55.5 -23t-55.5 23t-23.5 56q0 31 23.5 54.5t55.5 23.5t55.5 -23z
M479.5 -286.5q23.5 -23.5 23.5 -55.5t-23.5 -55.5t-55.5 -23.5t-55.5 23.5t-23.5 55.5t23.5 55.5t55.5 23.5t55.5 -23.5z" />
    <glyph glyph-name="uniFB58" unicode="&#x67e;" horiz-adv-x="435" arabic-form="initial" 
d="M221 134q15 0 27 11t12 32v225q0 31 19 51.5t48 20.5t48 -20.5t19 -51.5v-274q0 -54 -37.5 -91t-90.5 -37h-284v134h239zM40.5 -241.5q-23.5 23.5 -23.5 55.5t23.5 55t55.5 23t55.5 -23t23.5 -55t-23.5 -55.5t-55.5 -23.5t-55.5 23.5zM249.5 -241.5
q-23.5 23.5 -23.5 55.5q0 31 23.5 54.5t55.5 23.5t55.5 -23t23.5 -55t-23.5 -55.5t-55.5 -23.5t-55.5 23.5zM142.5 -402q-23.5 23 -23.5 56q0 32 23.5 55t55.5 23t55.5 -23t23.5 -55q0 -33 -23.5 -56t-55.5 -23t-55.5 23z" />
    <glyph glyph-name="uniFB59" unicode="&#x67e;" horiz-adv-x="438" arabic-form="medial" 
d="M470 134v-134h-120q-68 0 -123 57q-52 -57 -143 -57h-89l-58 21v91l58 22h91q42 0 58 21.5t16 59.5v187q0 29 17 49q20 23 49 23h1v0q28 0 47 -20.5t19 -51.5v-187q0 -37 16.5 -59t58.5 -22h102zM176.5 -240q-23.5 -23 -55.5 -23t-55.5 23t-23.5 56q0 32 23.5 55t55.5 23
t55.5 -23t23.5 -55q0 -33 -23.5 -56zM386 -129.5q23 -23.5 23 -54.5q0 -33 -23 -56t-55 -23t-55.5 23t-23.5 56q0 32 23.5 55t55.5 23t55 -23.5zM278.5 -290q23.5 -23 23.5 -55t-23.5 -55.5t-55.5 -23.5t-55.5 23.5t-23.5 55.5q0 31 23.5 54.5t55.5 23.5t55.5 -23z" />
    <glyph glyph-name="uniFB67" unicode="&#x679;" horiz-adv-x="906" arabic-form="final" 
d="M279 541h41v171h54v-102q35 33 71 33q39 0 59.5 -24.5t20.5 -71.5v-61h-246v55zM374 551v-10h98v6q0 20 -9 30.5t-25 10.5q-33 0 -64 -37zM914 134v-134h-49q-67 0 -122 57q-54 -57 -144 -57h-336q-63 0 -114 29t-80 80t-29 114v70q0 31 19 51.5t48 20.5t48 -20.5
t19 -51.5v-70q0 -40 24.5 -64.5t64.5 -24.5h337q42 0 59 22t17 59v187q0 29 17 49q20 23 49 23h1v0q28 0 47 -20.5t19 -51.5v-187q0 -38 16.5 -59.5t58.5 -21.5h30z" />
    <glyph glyph-name="uniFB68" unicode="&#x679;" horiz-adv-x="307" arabic-form="initial" 
d="M283 689.5q21 -24.5 21 -71.5v-61h-246v55h41v171h54v-102q35 33 70 33q39 0 60 -24.5zM250 618q0 20 -8.5 31t-24.5 11q-31 0 -64 -37v-11h97v6zM231 453.5q19 -20.5 19 -51.5v-245q0 -44 -20.5 -80t-56.5 -56.5t-80 -20.5h-95l-57 21v92l57 21h43q42 0 59 22t17 59v187
q0 31 19 51.5t47 20.5q29 0 48 -20.5z" />
    <glyph glyph-name="uniFB69" unicode="&#x679;" horiz-adv-x="340" arabic-form="medial" 
d="M39 615h40v171h55v-101q36 32 70 32q39 0 60 -24.5t21 -71.5v-60h-246v54zM134 626v-11h97v6q0 20 -9 31t-25 11q-32 0 -63 -37zM341 134v-134h-48q-68 0 -123 57q-52 -57 -143 -57h-28l-58 21v91l58 22h30q42 0 58 21.5t16 59.5v187q0 29 17 49q20 23 49 23h1v0
q28 0 47 -20.5t19 -51.5v-187q0 -37 16.5 -59t58.5 -22h30z" />
    <glyph glyph-name="uniFB6B" unicode="&#x6a4;" horiz-adv-x="957" arabic-form="final" 
d="M580.5 791q-23.5 23 -23.5 56q0 31 23.5 54.5t55.5 23.5t55.5 -23t23.5 -55q0 -33 -23.5 -56t-55.5 -23t-55.5 23zM471.5 624.5q-23.5 23.5 -23.5 55.5t23.5 55t55.5 23t55.5 -23t23.5 -55t-23.5 -55.5t-55.5 -23.5t-55.5 23.5zM683.5 735q23.5 23 55.5 23t55 -23t23 -55
t-23 -55.5t-55 -23.5t-55.5 23.5t-23.5 55.5t23.5 55zM962 134v-134h-701q-62 0 -112.5 29.5t-79.5 80.5t-29 113v55q0 31 19 51.5t48 20.5t48 -20.5t19 -51.5v-55q0 -40 24.5 -64.5t64.5 -24.5h165q-31 45 -31 95v57q0 64 29.5 116t82 82t118.5 30q67 0 119 -29.5t81 -81.5
t29 -117v-57q0 -54 -30 -95h136zM723 286q0 43 -25.5 68.5t-69.5 25.5q-46 0 -71.5 -25t-25.5 -69v-57q0 -39 30 -67t68 -28q42 0 68 27t26 68v57z" />
    <glyph glyph-name="uniFB6C" unicode="&#x6a4;" horiz-adv-x="578" arabic-form="initial" 
d="M242.5 789.5q-23.5 23.5 -23.5 55.5t23.5 55.5t55.5 23.5t55.5 -23.5t23.5 -55.5t-23.5 -55.5t-55.5 -23.5t-55.5 23.5zM133.5 623q-23.5 23 -23.5 56q0 32 23.5 55t55.5 23t55.5 -23t23.5 -55q0 -33 -23.5 -56t-55.5 -23t-55.5 23zM344.5 623q-23.5 23 -23.5 56
q0 31 23.5 54.5t55.5 23.5t55.5 -23t23.5 -55q0 -33 -23.5 -56t-55.5 -23t-55.5 23zM410 484q52 -30 82 -82t30 -116v-76q0 -57 -28.5 -105t-77 -76.5t-105.5 -28.5h-312l-58 22v91l58 21h89q-31 45 -31 95v57q0 64 30 116t82 82t115 30h11q63 0 115 -30zM362 354
q-26 26 -67 26h-11q-41 0 -67 -26t-26 -68v-57q0 -39 26 -67t61 -28h20q38 0 64 26.5t26 63.5v62q0 42 -26 68z" />
    <glyph glyph-name="uniFB6D" unicode="&#x6a4;" horiz-adv-x="585" arabic-form="medial" 
d="M250.5 789.5q-23.5 23.5 -23.5 55.5t23.5 55.5t55.5 23.5t55.5 -23.5t23.5 -55.5t-23.5 -55.5t-55.5 -23.5t-55.5 23.5zM141.5 623q-23.5 23 -23.5 56q0 32 23.5 55t55.5 23t55.5 -23t23.5 -55q0 -33 -23.5 -56t-55.5 -23t-55.5 23zM352.5 733.5q23.5 23.5 55.5 23.5
t55.5 -23t23.5 -55q0 -33 -23.5 -56t-55.5 -23t-55.5 23t-23.5 56q0 31 23.5 54.5zM587 134v-134h-590l-58 21v91l58 22h97q-30 43 -30 95v57q0 64 29 116.5t81.5 82t118.5 29.5q67 0 119.5 -29.5t81.5 -81.5t29 -117v-57q0 -53 -31 -95h95zM389 286q0 43 -25 68.5t-70 25.5
q-46 0 -71.5 -25t-25.5 -69v-57q0 -39 30.5 -67t68.5 -28q41 0 67 27t26 68v57z" />
    <glyph glyph-name="uniFB7B" unicode="&#x686;" horiz-adv-x="734" arabic-form="final" 
d="M742 134v-134h-411q-65 0 -106 -34t-41 -96q0 -42 25.5 -73.5t69.5 -49t98 -17.5q40 0 79 10q4 1 11 1q26 0 43.5 -18t17.5 -44q0 -19 -11 -35t-30 -23q-68 -25 -137 -25q-82 0 -150.5 34t-109 96.5t-40.5 143.5q0 78 36.5 138t100 93t141.5 33h178q-11 14 -45 78l-13 24
q-39 71 -90.5 108.5t-113.5 37.5q-10 0 -30 -2q-25 -1 -43.5 17t-18.5 44q0 22 14.5 38.5t36.5 20.5q32 7 68 7q100 0 183.5 -64.5t141.5 -187.5q32 -69 53.5 -93t40.5 -28h52zM359 -121.5q-11 -10.5 -27 -10.5t-27 10.5t-11 25.5t11 25.5t27 10.5t27 -10.5t11 -25.5
t-11 -25.5zM454 -121.5q-11 -10.5 -27 -10.5t-26.5 10.5t-10.5 25.5t10.5 25.5t26.5 10.5t27 -10.5t11 -25.5t-11 -25.5zM352 -200q-11 11 -11 25q0 15 11 26t27 11t27 -11t11 -26q0 -14 -11 -25t-27 -11t-27 11z" />
    <glyph glyph-name="uniFB7C" unicode="&#x686;" horiz-adv-x="632" arabic-form="initial" 
d="M524.5 179.5q14.5 -21.5 30.5 -30.5q4 -3 13 -10t12.5 -16t3.5 -26v-58q0 -20 -12.5 -29.5t-26.5 -9.5h-555v134h407q-11 14 -45 78l-13 24q-41 74 -87 110.5t-107 36.5q-19 0 -38 -3q-26 -2 -45.5 16t-19.5 45q0 22 14.5 38.5t36.5 20.5q32 7 68 7q99 0 182.5 -64.5
t142.5 -187.5q24 -54 38.5 -75.5zM138.5 -220.5q-23.5 23.5 -23.5 55.5t23.5 55t55.5 23t55 -23.5t23 -54.5q0 -32 -23 -55.5t-55 -23.5t-55.5 23.5zM347.5 -220.5q-23.5 23.5 -23.5 55.5t23.5 55t55.5 23t55.5 -23t23.5 -55t-23.5 -55.5t-55.5 -23.5t-55.5 23.5z
M240.5 -381q-23.5 23 -23.5 56q0 32 23.5 55t55.5 23t55.5 -23t23.5 -55q0 -33 -23.5 -56t-55.5 -23t-55.5 23z" />
    <glyph glyph-name="uniFB7D" unicode="&#x686;" horiz-adv-x="672" arabic-form="medial" 
d="M673 0h-673l-58 21v91l58 22h398q-11 14 -45 78l-13 24q-41 74 -87 110.5t-107 36.5q-18 0 -38 -3q-26 -2 -45 16t-19 45q0 22 14.5 38.5t36.5 20.5q32 7 67 7q99 0 182.5 -64.5t142.5 -187.5q35 -75 57 -97t42 -24h87v-134zM446.5 -110q23.5 -23 23.5 -55t-23.5 -55.5
t-55.5 -23.5t-55.5 23.5t-23.5 55.5t23.5 55t55.5 23t55.5 -23zM233 -216.5q-22 -21.5 -52 -21.5t-51.5 21.5t-21.5 51.5q0 29 21.5 51t51.5 22t52 -21.5t22 -50.5q0 -31 -22 -52.5zM339 -270.5q23 -23.5 23 -54.5q0 -33 -23 -56t-55 -23t-55.5 23t-23.5 56q0 32 23.5 55
t55.5 23t55 -23.5z" />
    <glyph glyph-name="uniFB89" unicode="&#x688;" horiz-adv-x="559" arabic-form="final" 
d="M117 688h41v171h54v-102q35 33 71 33q39 0 59.5 -24.5t20.5 -71.5v-61h-246v55zM212 699v-11h98v6q0 20 -9 31t-25 11q-31 0 -64 -37zM568 134v-134h-449q-31 0 -51.5 19t-20.5 48t20.5 48t51.5 19h208v147q0 44 -27.5 71t-71.5 27h-24q-31 0 -51.5 19.5t-20.5 48.5
t20.5 47.5t51.5 18.5h24q65 0 118 -30.5t83.5 -83.5t30.5 -118v-147h108z" />
    <glyph glyph-name="uniFB8B" unicode="&#x698;" horiz-adv-x="449" arabic-form="final" 
d="M172.5 775.5q-23.5 23.5 -23.5 55.5t23.5 55.5t55.5 23.5t55.5 -23.5t23.5 -55.5t-23.5 -55.5t-55.5 -23.5t-55.5 23.5zM63.5 609q-23.5 23 -23.5 56q0 32 23.5 55t55.5 23t55 -23t23 -55q0 -33 -23 -56t-55 -23t-55.5 23zM274.5 720q23.5 23 55.5 23t55.5 -23t23.5 -55
q0 -33 -23.5 -56t-55.5 -23t-55.5 23t-23.5 56q0 32 23.5 55zM458 0h-140v-7q0 -63 -29 -114t-80 -80t-114 -29h-16q-31 0 -51.5 19t-20.5 48t20.5 48t51.5 19h16q40 0 65 24.5t25 64.5v418q0 31 19 51.5t48 20.5t47.5 -20.5t18.5 -51.5v-277h140v-134z" />
    <glyph glyph-name="uniFB8D" unicode="&#x691;" horiz-adv-x="395" arabic-form="final" 
d="M130 647h41v171h54v-102q35 33 70 33q39 0 60 -24.5t21 -71.5v-61h-246v55zM225 658v-11h97v6q0 20 -8.5 31t-24.5 11q-31 0 -64 -37zM404 0h-85v-7q0 -63 -29 -114t-80 -80t-114 -29h-22q-31 0 -51.5 19t-20.5 48t20.5 48t51.5 19h22q40 0 64.5 24.5t24.5 64.5v418
q0 31 19.5 51.5t48.5 20.5t47.5 -20.5t18.5 -51.5v-277h85v-134z" />
    <glyph glyph-name="uniFB8F" unicode="&#x6a9;" horiz-adv-x="999" arabic-form="final" 
d="M1009 134v-134h-745q-63 0 -113.5 29.5t-79.5 80t-29 113.5v75q0 28 19 47.5t47 19.5t47.5 -19.5t19.5 -47.5v-75q0 -40 25 -64.5t65 -24.5h508v60q0 44 -27.5 71.5t-71.5 27.5h-325q-14 0 -22 11q-4 5 -4 14q0 7 3 13l172 333q8 15 22 23.5t31 8.5q25 0 42 -18t17 -42
q0 -14 -7 -27l-94 -183h165q66 0 119 -30.5t83.5 -83.5t30.5 -118v-60h102z" />
    <glyph glyph-name="uniFB90" unicode="&#x6a9;" horiz-adv-x="707" arabic-form="initial" 
d="M558.5 402.5q40.5 -23.5 64 -64t23.5 -88.5v-74q0 -48 -23.5 -88.5t-64 -64.5t-88.5 -24h-475l-58 22v91l58 21h459q24 0 41 17t17 41v44q0 24 -17 41t-41 17l-340 -1q-18 0 -32 11t-18 28q-1 4 -1 12q0 15 7 26l163 283q7 13 20.5 20.5t28.5 7.5q27 0 43.5 -17t16.5 -41
q0 -15 -7 -28l-84 -168h219q48 0 88.5 -23.5z" />
    <glyph glyph-name="uniFB91" unicode="&#x6a9;" horiz-adv-x="855" arabic-form="medial" 
d="M861 134v-134h-863l-58 21v92l58 21h617v60q0 44 -27.5 71.5t-71.5 27.5h-325q-14 0 -22 11q-4 5 -4 14q0 7 3 13l173 333q7 15 21.5 23.5t31.5 8.5q25 0 42 -18t17 -42q0 -14 -7 -27l-94 -183h164q66 0 119 -30.5t83.5 -83.5t30.5 -118v-60h112z" />
    <glyph glyph-name="uniFB93" unicode="&#x6af;" horiz-adv-x="1008" arabic-form="final" 
d="M1008 134v-134h-746q-63 0 -113.5 29.5t-79.5 80t-29 113.5v75q0 28 19.5 47.5t47.5 19.5q27 0 46.5 -19.5t19.5 -47.5v-75q0 -40 25 -64.5t65 -24.5h509v60q0 44 -27.5 71.5t-72.5 27.5h-325q-6 0 -12 3t-9 8q-5 7 -5 15q0 6 3 12l173 333q7 15 21 23.5t31 8.5
q26 0 43 -18t17 -42q0 -14 -7 -27l-95 -183h165q66 0 119 -30.5t83.5 -83.5t30.5 -118v-60h103zM242.5 326.5q-7.5 7.5 -7.5 17.5q0 5 3 11l172 329q9 12 21 12q11 0 18 -7t7 -17q0 -6 -3 -12l-172 -328q-6 -13 -21 -13q-10 0 -17.5 7.5z" />
    <glyph glyph-name="uniFB94" unicode="&#x6af;" horiz-adv-x="768" arabic-form="initial" 
d="M228 696q10 0 17 -7t7 -16q0 -8 -4 -13l-196 -330q-6 -11 -20 -11q-10 0 -16.5 7t-6.5 17q0 6 3 12l196 330q6 11 20 11zM619 402.5q41 -23.5 64.5 -64t23.5 -88.5v-74q0 -48 -24 -88.5t-64.5 -64.5t-88.5 -24h-487l-58 22v91l58 21h472q24 0 41 17t17 41v44q0 24 -17 41
t-41 17l-341 -1q-17 0 -31 11t-18 28q-1 4 -1 12q0 15 7 26l162 283q8 13 21.5 20.5t28.5 7.5q27 0 43.5 -17t16.5 -41q0 -15 -7 -28l-85 -168h219q48 0 89 -23.5z" />
    <glyph glyph-name="uniFB95" unicode="&#x6af;" horiz-adv-x="855" arabic-form="medial" 
d="M861 134v-134h-863l-58 21v92l58 21h617v60q0 44 -27.5 71.5t-71.5 27.5h-325q-14 0 -22 11q-4 5 -4 14q0 7 3 13l173 333q7 15 21.5 23.5t31.5 8.5q25 0 42 -18t17 -42q0 -14 -7 -27l-94 -183h164q66 0 119 -30.5t83.5 -83.5t30.5 -118v-60h112zM81.5 326.5
q-7.5 7.5 -7.5 17.5q0 5 3 11l173 329q7 12 21 12q11 0 18 -7t7 -17q0 -6 -3 -12l-173 -328q-6 -13 -21 -13q-10 0 -17.5 7.5z" />
    <glyph glyph-name="uniFB9F" unicode="&#x6ba;" horiz-adv-x="742" arabic-form="final" 
d="M747 0h-93q-5 -79 -45.5 -142t-106.5 -98.5t-146 -35.5h-7q-85 0 -153 39t-107 107.5t-39 153.5v120q0 31 19 51.5t48 20.5t48 -20.5t19 -51.5v-120q0 -74 45.5 -120t119.5 -46h7q74 0 120 46t46 120v384q0 31 19 51.5t48 20.5q28 0 47 -20.5t19 -51.5v-274h92v-134z" />
    <glyph glyph-name="uniFBA7" unicode="&#x6c1;" horiz-adv-x="608" arabic-form="final" 
d="M610 134v-134h-35q-53 0 -95.5 24.5t-67.5 67t-25 95.5v104q0 37 -26.5 63t-63.5 26h-14q-41 0 -66.5 -26t-25.5 -68v-183h-134v185q0 61 30.5 113t82.5 82.5t113 30.5h20q59 0 109 -29.5t79.5 -79.5t29.5 -109v-107q0 -25 14.5 -40t39.5 -15h35z" />
    <glyph glyph-name="uniFBA8" unicode="&#x6c1;" horiz-adv-x="329" arabic-form="initial" 
d="M231 453.5q19 -20.5 19 -51.5v-245q0 -44 -20.5 -80t-56.5 -56.5t-80 -20.5h-95l-57 21v92l57 21h43q42 0 59 22t17 59v187q0 31 19 51.5t47 20.5q29 0 48 -20.5zM102 -64h102l-3 -35q-7 -84 -57 -214h-84l7 28q30 112 33 185z" />
    <glyph glyph-name="uniFBA9" unicode="&#x6c1;" horiz-adv-x="753" arabic-form="medial" 
d="M755 0h-139v-104q0 -64 -30 -116t-81.5 -82t-115.5 -30h-237v332h-149l-58 21v92l58 21h149v139q0 31 19 51.5t48 20.5t47.5 -20.5t18.5 -51.5v-471h104q42 0 67.5 25.5t25.5 68.5v238h273v-134z" />
    <glyph glyph-name="uniFBAB" unicode="&#x6be;" horiz-adv-x="772" arabic-form="final" 
d="M779 134v-134h-135l-1 -42q-5 -99 -59.5 -154.5t-163.5 -55.5q-103 0 -160.5 63.5t-62.5 166.5l-104 -10l-12 -1q-32 0 -51.5 17.5t-19.5 45.5t17.5 47t44.5 22l124 13v161q0 69 30 124t83 86t119 31q69 0 122 -33t82.5 -92.5t29.5 -137.5q0 -64 -28 -117h145zM320 125
l91 9q60 6 94.5 34.5t34.5 82.5q0 66 -30 103t-80 37q-48 0 -79 -37.5t-31 -94.5v-134zM496.5 -94.5q25.5 34.5 25.5 93.5v31q-49 -24 -111 -30l-91 -9q3 -120 100 -120q51 0 76.5 34.5z" />
    <glyph glyph-name="uniFBAC" unicode="&#x6be;" horiz-adv-x="851" arabic-form="initial" 
d="M279.5 491q16.5 19 43.5 23q71 12 131 12q102 0 177 -29.5t114.5 -81t41.5 -117.5v-85q0 -61 -30 -109.5t-81 -76t-112 -27.5h-578l-58 21v92l58 21h155q-27 37 -27 83v40q4 69 44.5 118t104.5 63v7q0 27 16.5 46zM627.5 156q26.5 22 26.5 59l-1 82q-3 52 -67 80t-170 25
q45 -19 72 -59t27 -96v-113h46q40 0 66.5 22zM379 314q-23 23 -63 23q-42 0 -65 -22.5t-23 -63.5v-31q0 -35 25.5 -59.5t59.5 -26.5h89v117q0 40 -23 63z" />
    <glyph glyph-name="uniFBAD" unicode="&#x6be;" horiz-adv-x="665" arabic-form="medial" 
d="M708 134v-134h-132v-22q0 -108 -54 -169t-170 -61q-108 0 -166 70t-58 181v1h-156v134h156v139q0 69 30 124t83 86t119 31q68 0 121.5 -33t83 -92.5t29.5 -137.5q0 -61 -27 -117h141zM251 134h92q58 0 93 31t35 86q0 66 -30 103t-80 37q-47 0 -78.5 -37.5t-31.5 -94.5
v-125zM-87 21v92l58 21v-134zM428 -94.5q25 34.5 25 93.5v24q-51 -23 -110 -23h-92v-1q0 -128 101 -128q51 0 76 34.5z" />
    <glyph glyph-name="uniFBAF" unicode="&#x6d2;" horiz-adv-x="728" arabic-form="final" 
d="M677.5 -140.5q20.5 -19.5 20.5 -48.5t-20.5 -48t-51.5 -19h-531v181q0 59 27.5 106.5t75 75t105.5 27.5h434v-134h-434q-33 0 -53 -20t-20 -54v-47h396q31 0 51.5 -19.5z" />
    <glyph glyph-name="uniFBB1" unicode="&#x6d3;" horiz-adv-x="728" arabic-form="final" 
d="M287 253.5q-11 10.5 -11 25.5t10.5 25.5t25.5 11.5q-24 26 -24 64q0 44 26.5 71t74.5 27q74 0 99 -67q2 -8 2 -12q0 -15 -10.5 -25t-26.5 -10q-17 0 -29 17q-10 23 -34 23q-15 0 -24 -8t-9 -24q0 -13 8.5 -29t28.5 -27h72q15 0 26 -11t11 -26t-11 -25.5t-26 -10.5h-153
q-15 0 -26 10.5zM250 -20q-20 -20 -20 -54v-47h396q31 0 51.5 -19.5t20.5 -48.5t-20.5 -48t-51.5 -19h-531v181q0 59 27.5 106.5t75 75t105.5 27.5h434v-134h-434q-33 0 -53 -20z" />
    <glyph glyph-name="uniFBFD" unicode="&#x6cc;" horiz-adv-x="1053" arabic-form="final" 
d="M1058 134v-134h-252v310q0 29 -20 49t-49 20q-34 0 -57.5 -23.5t-23.5 -57.5v-256q0 -85 -39 -153.5t-108 -107.5t-153 -39h-6q-85 0 -153.5 39t-107.5 107.5t-39 153.5v120q0 31 19 51.5t48 20.5t48 -20.5t19 -51.5v-120q0 -74 46 -120t120 -46h6q74 0 120 46t46 120
v256q0 60 28.5 109t77.5 77.5t108 28.5q56 0 102.5 -27.5t74 -74.5t27.5 -102v-175h118z" />
    <glyph glyph-name="uniFBFE" unicode="&#x6cc;" horiz-adv-x="430" arabic-form="initial" 
d="M285.5 77q-20.5 -36 -56.5 -56.5t-80 -20.5h-154l-57 21v92l57 21h102q42 0 59 22t17 59v187q0 31 19 51.5t47 20.5q29 0 48 -20.5t19 -51.5v-245q0 -44 -20.5 -80zM139.5 -118.5q23.5 -23.5 23.5 -55.5t-23.5 -55.5t-55.5 -23.5t-55.5 23.5t-23.5 55.5t23.5 55.5
t55.5 23.5t55.5 -23.5zM352.5 -118.5q23.5 -23.5 23.5 -55.5t-23.5 -55.5t-55.5 -23.5t-55.5 23.5t-23.5 55.5q0 31 24 55t55 24q32 0 55.5 -23.5z" />
    <glyph glyph-name="uniFBFF" unicode="&#x6cc;" horiz-adv-x="472" arabic-form="medial" 
d="M482 134v-134h-116q-66 0 -122 56q-53 -56 -143 -56h-106l-58 21v91l58 22h107q42 0 58 21.5t16 59.5v187q0 19 7.5 34.5t21.5 25.5q17 12 38 12q29 0 48 -20.5t19 -51.5v-133q0 -20 -1 -32v-22q0 -37 17 -59t59 -22h97zM169 -117.5q23 -23.5 23 -54.5q0 -33 -23 -56
t-55 -23t-55.5 23t-23.5 56q0 32 23.5 55t55.5 23t55 -23.5zM382.5 -117q23.5 -23 23.5 -55q0 -33 -23.5 -56t-55.5 -23t-55.5 23t-23.5 56q0 32 23.5 55t55.5 23t55.5 -23z" />
    <glyph glyph-name="uniFE82" unicode="&#x622;" horiz-adv-x="279" arabic-form="final" 
d="M-7 810q-13 0 -21 12q-4 5 -4 13q0 12 9 19l75 67q27 -58 109 -58q34 0 73 16q3 1 9 1q12 0 21 -8.5t10 -20.5q0 -20 -17 -29q-20 -11 -47 -17.5t-49 -6.5q-36 0 -64 11t-54 35l-33 -28q-7 -6 -17 -6zM85.5 676.5q19.5 19.5 47.5 19.5t47 -19.5t19 -46.5v-453
q0 -21 12.5 -32t27.5 -11h49v-134h-94q-53 0 -90.5 37t-37.5 91v502q0 27 19.5 46.5z" />
    <glyph glyph-name="uniFE84" unicode="&#x623;" horiz-adv-x="283" arabic-form="final" 
d="M233 779.5q-11 -10.5 -26 -10.5h-153q-15 0 -26 10.5t-11 26.5q0 14 11 25t25 11q-24 27 -24 64q0 44 26.5 71t74.5 27q75 0 99 -67q2 -4 2 -12q0 -14 -10 -24.5t-25 -10.5h-1q-9 0 -16.5 4.5t-12.5 12.5q-11 23 -35 23q-15 0 -24 -8t-9 -24q0 -13 8.5 -29t28.5 -27h72
q15 0 26 -11t11 -25q0 -16 -11 -26.5zM288 134v-134h-94q-53 0 -90.5 37t-37.5 91v502q0 27 19.5 46.5t47.5 19.5t47 -19.5t19 -46.5v-453q0 -21 12.5 -32t27.5 -11h49z" />
    <glyph glyph-name="uniFE86" unicode="&#x624;" horiz-adv-x="554" arabic-form="final" 
d="M179.5 689q10.5 11 24.5 11q-24 27 -24 64q0 43 27 70t74 27q74 0 100 -66q2 -8 2 -12q0 -14 -10 -24.5t-25 -10.5h-2q-20 0 -29 17q-11 23 -34 23q-15 0 -24 -8.5t-9 -24.5q0 -13 8 -28.5t27 -26.5h74q15 0 25.5 -11t10.5 -26t-10.5 -26t-25.5 -11h-154q-15 0 -25.5 11
t-10.5 26t10.5 26zM559 0h-49v-45q0 -56 -28.5 -99.5t-83.5 -68.5t-132 -25q-45 0 -98 9q-22 5 -36 22.5t-14 39.5q0 28 21 46.5t48 15.5q28 -3 51 -3q74 0 106 25t32 71v14h-110q-59 0 -109.5 31t-80 83t-29.5 113v59q0 64 29.5 115.5t81.5 81.5t116 30h10q64 0 115.5 -30
t81 -81.5t29.5 -115.5v-154h49v-134zM206.5 163q26.5 -28 61.5 -28h108v153q0 42 -25.5 68t-66.5 26h-10q-42 0 -68 -26t-26 -68v-59q0 -38 26.5 -66z" />
    <glyph glyph-name="uniFE88" unicode="&#x625;" horiz-adv-x="280" arabic-form="final" 
d="M288 134v-134h-94q-53 0 -90.5 37t-37.5 91v502q0 27 19.5 46.5t47.5 19.5t47 -19.5t19 -46.5v-453q0 -21 12.5 -32t27.5 -11h49zM254 -207q11 -11 11 -26t-11 -26t-26 -11h-153q-15 0 -26 11t-11 26t11 26t25 11q-24 27 -24 64q0 44 26.5 70.5t74.5 26.5
q36 0 61.5 -16.5t37.5 -49.5q2 -4 2 -13q0 -14 -10 -24t-25 -10h-1q-20 0 -29 17q-12 23 -35 23q-15 0 -24 -8.5t-9 -23.5q0 -14 8.5 -29t28.5 -27h72q15 0 26 -11z" />
    <glyph glyph-name="uniFE8A" unicode="&#x626;" horiz-adv-x="1053" arabic-form="final" 
d="M53 324q-15 0 -26 10.5t-11 25.5t10.5 25.5t25.5 11.5q-24 26 -24 64q0 44 26.5 71t74.5 27q74 0 99 -67q2 -8 2 -12q0 -14 -10 -24.5t-25 -10.5h-2q-17 0 -29 17q-10 23 -34 23q-15 0 -24 -8t-9 -24q0 -13 8.5 -29t28.5 -27h72q15 0 26 -11t11 -26t-11 -25.5t-26 -10.5
h-153zM1058 134v-134h-252v310q0 29 -20 49t-49 20q-34 0 -57.5 -23.5t-23.5 -57.5v-256q0 -85 -39 -153.5t-108 -107.5t-153 -39h-6q-85 0 -153.5 39t-107.5 107.5t-39 153.5v120q0 31 19 51.5t48 20.5t48 -20.5t19 -51.5v-120q0 -74 46 -120t120 -46h6q74 0 120 46t46 120
v256q0 60 28.5 109t77.5 77.5t108 28.5q56 0 102.5 -27.5t74 -74.5t27.5 -102v-175h118z" />
    <glyph glyph-name="uniFE8B" unicode="&#x626;" horiz-adv-x="307" arabic-form="initial" 
d="M261 621q11 -11 11 -26t-11 -25.5t-26 -10.5h-153q-15 0 -26 10.5t-11 25.5t11 26t25 11q-24 27 -24 64q0 44 26.5 71t74.5 27q75 0 99 -67q2 -4 2 -13q0 -14 -10.5 -24t-25.5 -10q-9 0 -16.5 4.5t-12.5 12.5q-11 23 -35 23q-15 0 -24 -8t-9 -24q0 -13 8.5 -29t28.5 -27
h72q15 0 26 -11zM231 453.5q19 -20.5 19 -51.5v-245q0 -44 -20.5 -80t-56.5 -56.5t-80 -20.5h-95l-57 21v92l57 21h43q42 0 59 22t17 59v187q0 31 19 51.5t47 20.5q29 0 48 -20.5z" />
    <glyph glyph-name="uniFE8C" unicode="&#x626;" horiz-adv-x="339" arabic-form="medial" 
d="M56 569.5q-11 10.5 -11 25.5t11 26t25 11q-24 27 -24 64q0 44 26.5 71t74.5 27q75 0 99 -67q2 -4 2 -12q0 -14 -10 -24.5t-25 -10.5q-19 0 -30 17q-11 23 -35 23q-15 0 -24 -8t-9 -24q0 -13 8.5 -29t28.5 -27h72q15 0 26 -11t11 -26t-11 -25.5t-26 -10.5h-153
q-15 0 -26 10.5zM341 134v-134h-48q-68 0 -123 57q-52 -57 -143 -57h-28l-58 21v91l58 22h30q42 0 58 21.5t16 59.5v187q0 29 17 49q20 23 49 23h1v0q28 0 47 -20.5t19 -51.5v-187q0 -37 16.5 -59t58.5 -22h30z" />
    <glyph glyph-name="uniFE8E" unicode="&#x627;" horiz-adv-x="279" arabic-form="final" 
d="M179.5 676.5q19.5 -19.5 19.5 -47.5v-452q0 -21 12.5 -32t27.5 -11h49v-134h-94q-53 0 -90.5 37t-37.5 91v501q0 28 19 47.5t47 19.5t47.5 -19.5z" />
    <glyph glyph-name="uniFE90" unicode="&#x628;" horiz-adv-x="906" arabic-form="final" 
d="M914 134v-134h-49q-67 0 -122 57q-54 -57 -144 -57h-336q-63 0 -114 29t-80 80t-29 114v70q0 31 19 51.5t48 20.5t48 -20.5t19 -51.5v-70q0 -40 24.5 -64.5t64.5 -24.5h337q42 0 59 22t17 59v187q0 29 17 49q20 23 49 23h1v0q28 0 47 -20.5t19 -51.5v-187
q0 -38 16.5 -59.5t58.5 -21.5h30zM486.5 -143q23.5 -23 23.5 -55q0 -33 -23.5 -56t-55.5 -23t-55.5 23t-23.5 56q0 31 23.5 54.5t55.5 23.5t55.5 -23z" />
    <glyph glyph-name="uniFE91" unicode="&#x628;" horiz-adv-x="307" arabic-form="initial" 
d="M77 134q15 0 27 11t12 32v225q0 31 19 51.5t48 20.5t48 -20.5t19 -51.5v-274q0 -54 -37.5 -91t-90.5 -37h-138v134h93zM88.5 -253.5q-23.5 23.5 -23.5 55.5t23.5 55.5t55.5 23.5t55.5 -23.5t23.5 -55.5t-23.5 -55.5t-55.5 -23.5t-55.5 23.5z" />
    <glyph glyph-name="uniFE92" unicode="&#x628;" horiz-adv-x="369" arabic-form="medial" 
d="M392 134v-134h-76q-34 0 -65.5 15t-57.5 42q-52 -57 -143 -57h-55l-58 21v91l58 22h57q42 0 58 21.5t16 59.5v187q0 29 17 49q20 23 49 23h1v0q29 0 48 -20.5t19 -51.5v-133q0 -20 -1 -31v-23q0 -37 16.5 -59t58.5 -22h58zM247 -141.5q23 -23.5 23 -54.5q0 -33 -23 -56
t-55 -23t-55.5 23t-23.5 56q0 32 23.5 55t55.5 23t55 -23.5z" />
    <glyph glyph-name="uniFE94" unicode="&#x629;" horiz-adv-x="605" arabic-form="final" 
d="M145.5 611.5q-23.5 23.5 -23.5 55.5t23.5 55.5t55.5 23.5t55.5 -23.5t23.5 -55.5t-23.5 -55.5t-55.5 -23.5t-55.5 23.5zM359.5 611.5q-23.5 23.5 -23.5 55.5t23.5 55.5t55.5 23.5q31 0 54.5 -23.5t23.5 -55.5t-23 -55.5t-55 -23.5t-55.5 23.5zM610 134v-134h-35
q-43 0 -80 16.5t-63 46.5q-58 -60 -154 -60q-60 0 -110.5 31t-80.5 83t-30 114v59q0 61 30.5 113t82.5 82.5t113 30.5h38q55 0 100.5 -27t72.5 -72.5t27 -100.5v-127q0 -25 14.5 -40t39.5 -15h35zM387 300q0 35 -23.5 58.5t-58.5 23.5h-22q-41 0 -66.5 -26t-25.5 -68v-57
q0 -39 26 -66.5t61 -27.5q33 0 61.5 12.5t47.5 36.5v114z" />
    <glyph glyph-name="uniFE96" unicode="&#x62a;" horiz-adv-x="906" arabic-form="final" 
d="M254.5 504.5q-23.5 23.5 -23.5 55.5q0 31 23.5 54.5t55.5 23.5t55.5 -23t23.5 -55t-23.5 -55.5t-55.5 -23.5t-55.5 23.5zM468.5 504.5q-23.5 23.5 -23.5 55.5t23.5 55t55.5 23t55.5 -23t23.5 -55t-23.5 -55.5t-55.5 -23.5t-55.5 23.5zM914 134v-134h-49q-67 0 -122 57
q-54 -57 -144 -57h-336q-63 0 -114 29t-80 80t-29 114v70q0 31 19 51.5t48 20.5t48 -20.5t19 -51.5v-70q0 -40 24.5 -64.5t64.5 -24.5h337q42 0 59 22t17 59v187q0 29 17 49q20 23 49 23h1v0q28 0 47 -20.5t19 -51.5v-187q0 -38 16.5 -59.5t58.5 -21.5h30z" />
    <glyph glyph-name="uniFE97" unicode="&#x62a;" horiz-adv-x="436" arabic-form="initial" 
d="M49.5 563.5q-23.5 23.5 -23.5 55.5t23.5 55.5t55.5 23.5t55.5 -23.5t23.5 -55.5t-23.5 -55.5t-55.5 -23.5t-55.5 23.5zM263.5 563.5q-23.5 23.5 -23.5 55.5t23.5 55.5t55.5 23.5q31 0 54.5 -23.5t23.5 -55.5t-23 -55.5t-55 -23.5t-55.5 23.5zM147 134q15 0 27 11t12 32
v225q0 31 19.5 51.5t48.5 20.5t47.5 -20.5t18.5 -51.5v-274q0 -54 -37 -91t-91 -37h-201v134h156z" />
    <glyph glyph-name="uniFE98" unicode="&#x62a;" horiz-adv-x="509" arabic-form="medial" 
d="M82.5 568.5q-23.5 23.5 -23.5 55.5t23.5 55t55.5 23t55.5 -23t23.5 -55t-23.5 -55.5t-55.5 -23.5t-55.5 23.5zM296.5 568.5q-23.5 23.5 -23.5 55.5t23.5 55t55.5 23t55 -23t23 -55t-23 -55.5t-55 -23.5t-55.5 23.5zM518 134v-134h-157q-34 0 -65.5 15t-57.5 42
q-52 -57 -143 -57h-100l-58 21v91l58 22h102q42 0 58 21.5t16 59.5v187q0 29 17 49q20 23 49 23h1v0q29 0 48 -20.5t19 -51.5v-133q0 -20 -1 -31v-23q0 -37 16.5 -59t58.5 -22h139z" />
    <glyph glyph-name="uniFE9A" unicode="&#x62b;" horiz-adv-x="906" arabic-form="final" 
d="M362.5 680.5q-23.5 23.5 -23.5 55.5t23.5 55.5t55.5 23.5q31 0 54.5 -23.5t23.5 -55.5t-23 -55.5t-55 -23.5t-55.5 23.5zM252.5 514q-23.5 23 -23.5 56q0 31 23.5 54.5t55.5 23.5t55.5 -23t23.5 -55q0 -33 -23.5 -56t-55.5 -23t-55.5 23zM464.5 625q23.5 23 55.5 23
t55.5 -23t23.5 -55q0 -33 -23.5 -56t-55.5 -23t-55.5 23t-23.5 56q0 32 23.5 55zM914 134v-134h-49q-67 0 -122 57q-54 -57 -144 -57h-336q-63 0 -114 29t-80 80t-29 114v70q0 31 19 51.5t48 20.5t48 -20.5t19 -51.5v-70q0 -40 24.5 -64.5t64.5 -24.5h337q42 0 59 22t17 59
v187q0 29 17 49q20 23 49 23h1v0q28 0 47 -20.5t19 -51.5v-187q0 -38 16.5 -59.5t58.5 -21.5h30z" />
    <glyph glyph-name="uniFE9B" unicode="&#x62b;" horiz-adv-x="454" arabic-form="initial" 
d="M179.5 739q-23.5 23 -23.5 56q0 32 23.5 55t55.5 23t55 -23t23 -55q0 -33 -23 -56t-55 -23t-55.5 23zM69.5 572.5q-23.5 23.5 -23.5 55.5t24 55.5t55 23.5q32 0 55.5 -23.5t23.5 -55.5t-23.5 -55.5t-55.5 -23.5t-55.5 23.5zM281.5 572.5q-23.5 23.5 -23.5 55.5t23.5 55.5
t55.5 23.5t55.5 -23.5t23.5 -55.5t-23.5 -55.5t-55.5 -23.5t-55.5 23.5zM123 134q15 0 27 11t12 32v225q0 31 19.5 51.5t48.5 20.5t47.5 -20.5t18.5 -51.5v-274q0 -54 -37 -91t-91 -37h-174v134h129z" />
    <glyph glyph-name="uniFE9C" unicode="&#x62b;" horiz-adv-x="533" arabic-form="medial" 
d="M194.5 744q-23.5 23 -23.5 56q0 32 23.5 55t55.5 23t55 -23t23 -55q0 -33 -23 -56t-55 -23t-55.5 23zM84.5 577.5q-23.5 23.5 -23.5 55.5q0 31 23.5 54.5t55.5 23.5t55.5 -23t23.5 -55t-23.5 -55.5t-55.5 -23.5t-55.5 23.5zM296.5 688q23.5 23 55.5 23t55.5 -23t23.5 -55
t-23.5 -55.5t-55.5 -23.5t-55.5 23.5t-23.5 55.5t23.5 55zM542 134v-134h-137q-66 0 -122 56q-53 -56 -143 -56h-145l-58 21v91l58 22h146q42 0 58 21.5t16 59.5v187q0 19 7.5 34.5t21.5 25.5q17 12 38 12q29 0 48 -20.5t19 -51.5v-133q0 -20 -1 -32v-22q0 -32 37.5 -56.5
t83.5 -24.5h73z" />
    <glyph glyph-name="uniFE9E" unicode="&#x62c;" horiz-adv-x="735" arabic-form="final" 
d="M748 134v-134h-417q-65 0 -106 -34t-41 -96q0 -41 26.5 -73t71.5 -49.5t100 -17.5q41 0 80 10q4 1 11 1q25 0 42.5 -18t17.5 -44q0 -19 -11 -34.5t-30 -22.5q-68 -25 -138 -25q-83 0 -152.5 34t-110.5 96t-41 143q0 78 36.5 138t100 93t141.5 33h184q-11 14 -45 78
l-13 24q-39 71 -90.5 108.5t-113.5 37.5q-10 0 -30 -2q-26 -1 -44.5 17t-18.5 44q0 22 14.5 38.5t36.5 20.5q32 7 68 7q100 0 183.5 -64.5t142.5 -187.5q34 -75 56 -97t42 -24h48zM312.5 -74.5q23.5 23.5 55.5 23.5t55.5 -23.5t23.5 -55.5t-23.5 -55.5t-55.5 -23.5
t-55.5 23.5t-23.5 55.5t23.5 55.5z" />
    <glyph glyph-name="uniFE9F" unicode="&#x62c;" horiz-adv-x="618" arabic-form="initial" 
d="M524.5 179.5q14.5 -21.5 30.5 -30.5q4 -3 13 -10t12.5 -16t3.5 -26v-58q0 -20 -12.5 -29.5t-26.5 -9.5h-555v134h407q-11 14 -45 78l-13 24q-41 74 -87 110.5t-107 36.5q-19 0 -38 -3q-26 -2 -45.5 16t-19.5 45q0 22 14.5 38.5t36.5 20.5q32 7 68 7q99 0 182.5 -64.5
t142.5 -187.5q24 -54 38.5 -75.5zM225.5 -209q-23.5 23 -23.5 56q0 32 23.5 55t55.5 23t55.5 -23t23.5 -55q0 -33 -23.5 -56t-55.5 -23t-55.5 23z" />
    <glyph glyph-name="uniFEA0" unicode="&#x62c;" horiz-adv-x="671" arabic-form="medial" 
d="M673 134v-134h-673l-58 21v91l58 22h398q-11 14 -45 78l-13 24q-41 74 -87 110.5t-107 36.5q-18 0 -38 -3q-26 -2 -45 16t-19 45q0 22 14.5 38.5t36.5 20.5q32 7 67 7q99 0 182.5 -64.5t142.5 -187.5q35 -75 57 -97t42 -24h87zM353.5 -98q23.5 -23 23.5 -55
q0 -33 -23.5 -56t-55.5 -23t-55.5 23t-23.5 56q0 31 23.5 54.5t55.5 23.5t55.5 -23z" />
    <glyph glyph-name="uniFEA2" unicode="&#x62d;" horiz-adv-x="767" arabic-form="final" 
d="M775 134v-134h-444q-65 0 -106 -34t-41 -96q0 -42 25.5 -73.5t69.5 -49t98 -17.5q40 0 79 10q4 1 11 1q26 0 43.5 -18t17.5 -44q0 -19 -11 -35t-30 -23q-68 -25 -137 -25q-82 0 -150.5 34t-109 96.5t-40.5 143.5q0 78 36.5 138t100 93t141.5 33h231q-15 3 -35 31t-43 71
q-39 71 -90.5 108.5t-113.5 37.5q-10 0 -30 -2q-25 -1 -43.5 17t-18.5 44q0 22 14.5 38.5t36.5 20.5q32 7 68 7q100 0 183.5 -64.5t141.5 -187.5q25 -53 38.5 -77t24.5 -33t26 -11h57z" />
    <glyph glyph-name="uniFEA3" unicode="&#x62d;" horiz-adv-x="618" arabic-form="initial" 
d="M524.5 179.5q14.5 -21.5 30.5 -30.5q4 -3 13 -10t12.5 -16t3.5 -26v-58q0 -20 -12.5 -29.5t-26.5 -9.5h-555v134h407q-11 14 -45 78l-13 24q-41 74 -87 110.5t-107 36.5q-19 0 -38 -3q-26 -2 -45.5 16t-19.5 45q0 22 14.5 38.5t36.5 20.5q32 7 68 7q99 0 182.5 -64.5
t142.5 -187.5q24 -54 38.5 -75.5z" />
    <glyph glyph-name="uniFEA4" unicode="&#x62d;" horiz-adv-x="672" arabic-form="medial" 
d="M673 134v-134h-673l-58 21v91l58 22h398q-11 14 -45 78l-13 24q-41 74 -87 110.5t-107 36.5q-18 0 -38 -3q-26 -2 -45 16t-19 45q0 22 14.5 38.5t36.5 20.5q32 7 67 7q99 0 182.5 -64.5t142.5 -187.5q35 -75 57 -97t42 -24h87z" />
    <glyph glyph-name="uniFEA6" unicode="&#x62e;" horiz-adv-x="739" arabic-form="final" 
d="M267.5 625q-23.5 23 -23.5 56q0 32 23.5 55t55.5 23t55 -23t23 -55q0 -33 -23 -56t-55 -23t-55.5 23zM748 134v-134h-417q-65 0 -106 -34t-41 -96q0 -41 26.5 -73t71.5 -49.5t100 -17.5q41 0 80 10q4 1 11 1q25 0 42.5 -18t17.5 -44q0 -19 -11 -34.5t-30 -22.5
q-68 -25 -138 -25q-83 0 -152.5 34t-110.5 96t-41 143q0 78 36.5 138t100 93t141.5 33h184q-11 14 -45 78l-13 24q-39 71 -90.5 108.5t-113.5 37.5q-10 0 -30 -2q-26 -1 -44.5 17t-18.5 44q0 22 14.5 38.5t36.5 20.5q32 7 68 7q100 0 183.5 -64.5t142.5 -187.5
q34 -75 56 -97t42 -24h48z" />
    <glyph glyph-name="uniFEA7" unicode="&#x62e;" horiz-adv-x="618" arabic-form="initial" 
d="M128.5 607q-23.5 23 -23.5 56q0 32 23.5 55t55.5 23t55.5 -23t23.5 -55q0 -33 -23.5 -56t-55.5 -23t-55.5 23zM524.5 179.5q14.5 -21.5 30.5 -30.5q4 -3 13 -10t12.5 -16t3.5 -26v-58q0 -20 -12.5 -29.5t-26.5 -9.5h-555v134h407q-11 14 -45 78l-13 24q-41 74 -87 110.5
t-107 36.5q-19 0 -38 -3q-26 -2 -45.5 16t-19.5 45q0 22 14.5 38.5t36.5 20.5q32 7 68 7q99 0 182.5 -64.5t142.5 -187.5q24 -54 38.5 -75.5z" />
    <glyph glyph-name="uniFEA8" unicode="&#x62e;" horiz-adv-x="672" arabic-form="medial" 
d="M129.5 607q-23.5 23 -23.5 56q0 32 23.5 55t55.5 23t55.5 -23t23.5 -55q0 -33 -23.5 -56t-55.5 -23t-55.5 23zM673 134v-134h-673l-58 21v91l58 22h398q-11 14 -45 78l-13 24q-41 74 -87 110.5t-107 36.5q-18 0 -38 -3q-26 -2 -45 16t-19 45q0 22 14.5 38.5t36.5 20.5
q32 7 67 7q99 0 182.5 -64.5t142.5 -187.5q35 -75 57 -97t42 -24h87z" />
    <glyph glyph-name="uniFEAA" unicode="&#x62f;" horiz-adv-x="559" arabic-form="final" 
d="M568 134v-134h-449q-31 0 -51.5 19t-20.5 48t20.5 48t51.5 19h208v147q0 44 -27.5 71t-71.5 27h-60q-31 0 -51.5 19.5t-20.5 48.5q0 28 20.5 47t51.5 19h60q65 0 118 -30.5t83.5 -83.5t30.5 -118v-147h108z" />
    <glyph glyph-name="uniFEAC" unicode="&#x630;" horiz-adv-x="559" arabic-form="final" 
d="M180.5 639.5q-23.5 23.5 -23.5 55.5t23.5 55.5t55.5 23.5t55.5 -23.5t23.5 -55.5t-23.5 -55.5t-55.5 -23.5t-55.5 23.5zM568 134v-134h-449q-31 0 -51.5 19t-20.5 48t20.5 48t51.5 19h208v147q0 44 -27.5 71t-71.5 27h-24q-31 0 -51.5 19.5t-20.5 48.5t20.5 47.5
t51.5 18.5h24q65 0 118 -30.5t83.5 -83.5t30.5 -118v-147h108z" />
    <glyph glyph-name="uniFEAE" unicode="&#x631;" horiz-adv-x="392" arabic-form="final" 
d="M402 0h-85v-7q0 -63 -29 -114t-80 -80t-114 -29h-20q-31 0 -51.5 19t-20.5 48t20.5 48t51.5 19h20q39 0 64 24.5t25 64.5v418q0 31 19 51.5t48 20.5t48 -20.5t19 -51.5v-277h85v-134z" />
    <glyph glyph-name="uniFEB0" unicode="&#x632;" horiz-adv-x="390" arabic-form="final" 
d="M189.5 598.5q-23.5 23.5 -23.5 55.5t23.5 55.5t55.5 23.5t55.5 -23.5t23.5 -55.5t-23.5 -55.5t-55.5 -23.5t-55.5 23.5zM399 0h-85v-7q0 -63 -29 -114t-80 -80t-114 -29h-17q-31 0 -51.5 19t-20.5 48t20.5 48t51.5 19h17q39 0 64 24.5t25 64.5v418q0 31 19 51.5t48 20.5
t48 -20.5t19 -51.5v-277h85v-134z" />
    <glyph glyph-name="uniFEB2" unicode="&#x633;" horiz-adv-x="1325" arabic-form="final" 
d="M1334 134v-134h-57q-32 -1 -59 12t-45 37q-46 -49 -124 -49h-56q-32 0 -59.5 14.5t-43.5 36.5q-18 -24 -44 -37t-63 -14h-30q-26 0 -51.5 11t-44.5 30q0 -84 -39.5 -152t-108 -107t-152.5 -39h-7q-84 0 -152.5 39t-107.5 107.5t-39 152.5v121q0 31 19 51.5t48 20.5
t47.5 -20.5t18.5 -51.5v-121q0 -73 46.5 -119.5t119.5 -46.5h7q74 0 120 46t46 120v286q0 31 18.5 51t46.5 21h1h1q29 0 48 -20.5t19 -51.5v-154q12 -40 58 -40l38 1q23 3 36 20t13 42v131q0 31 18.5 51.5t46.5 20.5t46.5 -20t18.5 -52v-131q0 -29 17 -46t46 -17h27
q29 0 45 17t16 46v225q0 31 18.5 51.5t46.5 20.5t46.5 -20.5t18.5 -51.5v-225q0 -29 17 -46t47 -17h57z" />
    <glyph glyph-name="uniFEB3" unicode="&#x633;" horiz-adv-x="859" arabic-form="initial" 
d="M762.5 483.5q18.5 -20.5 18.5 -51.5v-232q0 -54 -27 -100t-73 -73t-100 -27q-85 0 -138 51q-57 -53 -139 -53q-73 0 -131 53q-26 -24 -60 -37.5t-72 -13.5h-43l-58 21v92l58 21h44q29 0 47 17.5t18 46.5v130q0 31 19 51.5t48 20.5t47.5 -20.5t18.5 -51.5v-130
q0 -32 18 -49.5t51 -17.5q30 0 49 18t19 49v130q0 31 19 51.5t48 20.5t47.5 -20.5t18.5 -51.5v-130q0 -30 19 -47t52 -17q28 0 47 19t19 47v232q0 31 19.5 51.5t48.5 20.5t47.5 -20.5z" />
    <glyph glyph-name="uniFEB4" unicode="&#x633;" horiz-adv-x="908" arabic-form="medial" 
d="M910 134v-134h-57q-32 -1 -59 12.5t-45 37.5q-45 -50 -124 -50h-61q-32 0 -59.5 14.5t-43.5 36.5q-37 -51 -123 -51h-56q-34 0 -62 14t-43 38q-20 -27 -53 -39.5t-92 -12.5h-33l-58 21v91l58 22h22q34 0 51 16.5t17 46.5v131q0 31 18.5 51.5t46.5 20.5q29 0 47.5 -20.5
t18.5 -51.5l1 -131q0 -31 16 -47t44 -16h31q28 0 44.5 17t16.5 46v131q0 31 18.5 51.5t46.5 20.5t46.5 -20t18.5 -52v-131q0 -29 17 -46t46 -17h32q29 0 45 17t16 46v231q0 31 18.5 51.5t46.5 20.5t46.5 -20.5t18.5 -51.5v-231q0 -29 17 -46t47 -17h57z" />
    <glyph glyph-name="uniFEB6" unicode="&#x634;" horiz-adv-x="1325" arabic-form="final" 
d="M770.5 716.5q-23.5 23.5 -23.5 55.5q0 31 23.5 54.5t55.5 23.5t55.5 -23t23.5 -55t-23.5 -55.5t-55.5 -23.5t-55.5 23.5zM661.5 550q-23.5 23 -23.5 56q0 32 23.5 55t55.5 23t55.5 -23t23.5 -55q0 -33 -23.5 -56t-55.5 -23t-55.5 23zM873.5 661q23.5 23 55.5 23t55 -23
t23 -55q0 -33 -23 -56t-55 -23t-55.5 23t-23.5 56q0 32 23.5 55zM1334 134v-134h-57q-32 -1 -59 12t-45 37q-46 -49 -124 -49h-56q-32 0 -59.5 14.5t-43.5 36.5q-18 -24 -44 -37t-63 -14h-30q-26 0 -51.5 11t-44.5 30q0 -84 -39.5 -152t-108 -107t-152.5 -39h-7
q-84 0 -152.5 39t-107.5 107.5t-39 152.5v121q0 31 19 51.5t48 20.5t47.5 -20.5t18.5 -51.5v-121q0 -73 46.5 -119.5t119.5 -46.5h7q74 0 120 46t46 120v286q0 31 18.5 51t46.5 21h1h1q29 0 48 -20.5t19 -51.5v-154q12 -40 58 -40l38 1q23 3 36 20t13 42v131q0 31 18.5 51.5
t46.5 20.5t46.5 -20t18.5 -52v-131q0 -29 17 -46t46 -17h27q29 0 45 17t16 46v225q0 31 18.5 51.5t46.5 20.5t46.5 -20.5t18.5 -51.5v-225q0 -29 17 -46t47 -17h57z" />
    <glyph glyph-name="uniFEB7" unicode="&#x634;" horiz-adv-x="859" arabic-form="initial" 
d="M370.5 724q-23.5 23 -23.5 56q0 32 23.5 55t55.5 23t55.5 -23t23.5 -55q0 -33 -23.5 -56t-55.5 -23t-55.5 23zM261.5 557.5q-23.5 23.5 -23.5 55.5t23.5 55t55.5 23t55.5 -23t23.5 -55t-23.5 -55.5t-55.5 -23.5t-55.5 23.5zM472.5 667.5q23.5 23.5 55.5 23.5t55.5 -23
t23.5 -55t-23.5 -55.5t-55.5 -23.5t-55.5 23.5t-23.5 55.5q0 31 23.5 54.5zM762.5 483.5q18.5 -20.5 18.5 -51.5v-232q0 -54 -27 -100t-73 -73t-100 -27q-85 0 -138 51q-57 -53 -139 -53q-73 0 -131 53q-26 -24 -60 -37.5t-72 -13.5h-43l-58 21v92l58 21h44q29 0 47 17.5
t18 46.5v130q0 31 19 51.5t48 20.5t47.5 -20.5t18.5 -51.5v-130q0 -32 18 -49.5t51 -17.5q30 0 49 18t19 49v130q0 31 19 51.5t48 20.5t47.5 -20.5t18.5 -51.5v-130q0 -30 19 -47t52 -17q28 0 47 19t19 47v232q0 31 19.5 51.5t48.5 20.5t47.5 -20.5z" />
    <glyph glyph-name="uniFEB8" unicode="&#x634;" horiz-adv-x="908" arabic-form="medial" 
d="M389.5 724q-23.5 23 -23.5 56q0 32 23.5 55t55.5 23t55.5 -23t23.5 -55q0 -33 -23.5 -56t-55.5 -23t-55.5 23zM280.5 557.5q-23.5 23.5 -23.5 55.5t23.5 55t55.5 23t55.5 -23t23.5 -55t-23.5 -55.5t-55.5 -23.5t-55.5 23.5zM491.5 667.5q23.5 23.5 55.5 23.5t55.5 -23
t23.5 -55t-23.5 -55.5t-55.5 -23.5t-55.5 23.5t-23.5 55.5q0 31 23.5 54.5zM910 134v-134h-57q-32 -1 -59 12.5t-45 37.5q-45 -50 -124 -50h-61q-32 0 -59.5 14.5t-43.5 36.5q-37 -51 -123 -51h-56q-34 0 -62 14t-43 38q-20 -27 -53 -39.5t-92 -12.5h-33l-57 21v92l57 21h22
q34 0 51 16.5t17 46.5v131q0 31 18.5 51.5t46.5 20.5q29 0 47.5 -20.5t18.5 -51.5l1 -131q0 -31 16 -47t44 -16h31q28 0 44.5 17t16.5 46v131q0 31 18.5 51.5t46.5 20.5t46.5 -20t18.5 -52v-131q0 -29 17 -46t46 -17h32q29 0 45 17t16 46v231q0 31 18.5 51.5t46.5 20.5
t46.5 -20.5t18.5 -51.5v-231q0 -29 17 -46t47 -17h57z" />
    <glyph glyph-name="uniFEBA" unicode="&#x635;" horiz-adv-x="1272" arabic-form="final" 
d="M1281 134v-134h-629q-9 -74 -50 -132.5t-105 -91.5t-141 -33h-7q-85 0 -153 39t-107 107t-39 153v121q0 31 19 51.5t48 20.5t48 -20.5t19 -51.5v-121q0 -74 46 -120t119 -46h7q74 0 120 46t46 120v346q0 31 19 51.5t48 20.5t47.5 -20.5t18.5 -51.5v-20q133 142 267 142
t200 -78t66 -234v-64h93zM1059 198q0 90 -41.5 135.5t-111.5 45.5q-129 0 -251 -138v-107h404v64z" />
    <glyph glyph-name="uniFEBB" unicode="&#x635;" horiz-adv-x="861" arabic-form="initial" 
d="M714 435q68 -75 68 -207q0 -62 -30.5 -114.5t-83 -83t-114.5 -30.5h-562v134h109v255q0 31 19 51.5t48 20.5t48 -20.5t19 -51.5v-33q141 154 280 154q131 0 199 -75zM621 165q31 31 31 74q0 70 -41.5 105t-111.5 35q-68 0 -133 -37.5t-131 -116.5v-91h312q43 0 74 31z
" />
    <glyph glyph-name="uniFEBC" unicode="&#x635;" horiz-adv-x="820" arabic-form="medial" 
d="M823 134v-134h-824v1l-57 20v91l57 21v1h79v255q0 31 19 51.5t48 20.5t48 -20.5t19 -51.5v-36q65 72 134.5 114.5t146.5 42.5q134 0 200 -77.5t66 -234.5v-64h64zM629 198q0 90 -41.5 135.5t-111.5 45.5q-68 0 -133 -38t-131 -116v-91h417v64z" />
    <glyph glyph-name="uniFEBE" unicode="&#x636;" horiz-adv-x="1272" arabic-form="final" 
d="M858.5 612.5q-23.5 23.5 -23.5 55.5q0 31 23.5 54.5t55.5 23.5t55.5 -23t23.5 -55t-23.5 -55.5t-55.5 -23.5t-55.5 23.5zM1281 134v-134h-629q-9 -74 -50 -132.5t-105 -91.5t-141 -33h-7q-85 0 -153 39t-107 107t-39 153v121q0 31 19 51.5t48 20.5t48 -20.5t19 -51.5
v-121q0 -74 46 -120t119 -46h7q74 0 120 46t46 120v346q0 31 19 51.5t48 20.5t47.5 -20.5t18.5 -51.5v-20q133 142 267 142t200 -78t66 -234v-64h93zM1059 198q0 90 -41.5 135.5t-111.5 45.5q-129 0 -251 -138v-107h404v64z" />
    <glyph glyph-name="uniFEBF" unicode="&#x636;" horiz-adv-x="861" arabic-form="initial" 
d="M464.5 600.5q-23.5 23.5 -23.5 55.5t23.5 55t55.5 23t55 -23t23 -55t-23 -55.5t-55 -23.5t-55.5 23.5zM714 435q68 -75 68 -207q0 -62 -30.5 -114.5t-83 -83t-114.5 -30.5h-562v134h109v255q0 31 19 51.5t48 20.5t48 -20.5t19 -51.5v-33q141 154 280 154q131 0 199 -75z
M621 165q31 31 31 74q0 70 -41.5 105t-111.5 35q-68 0 -133 -37.5t-131 -116.5v-91h312q43 0 74 31z" />
    <glyph glyph-name="uniFEC0" unicode="&#x636;" horiz-adv-x="820" arabic-form="medial" 
d="M431.5 598q-23.5 23 -23.5 56q0 32 23.5 55t55.5 23t55.5 -23t23.5 -55q0 -33 -23.5 -56t-55.5 -23t-55.5 23zM823 134v-134h-824v1l-56 20v92l56 20v1h79v255q0 31 19 51.5t48 20.5t48 -20.5t19 -51.5v-36q65 72 134.5 114.5t146.5 42.5q134 0 200 -77.5t66 -234.5v-64
h64zM629 198q0 90 -41.5 135.5t-111.5 45.5q-68 0 -133 -38t-131 -116v-91h417v64z" />
    <glyph glyph-name="uniFEC2" unicode="&#x637;" horiz-adv-x="905" arabic-form="final" 
d="M913 134v-134h-791q-31 0 -51.5 19t-20.5 48t20.5 48t51.5 19h35v490q0 31 19 51.5t48 20.5t48 -20.5t19 -51.5v-271q141 157 280 157q134 0 200.5 -77.5t66.5 -234.5v-64h75zM708 198q0 90 -41.5 135.5t-111.5 45.5q-68 0 -133 -37.5t-131 -116.5v-91h417v64z" />
    <glyph glyph-name="uniFEC3" unicode="&#x637;" horiz-adv-x="856" arabic-form="initial" 
d="M663.5 473.5q60.5 -36.5 90.5 -97.5t30 -133q0 -66 -32.5 -122t-88.5 -88.5t-121 -32.5h-546v134h107v490q0 31 19 51.5t48 20.5t48 -20.5t19 -51.5v-269q142 155 280 155q86 0 146.5 -36.5zM626 162q28 28 28 68q0 65 -43 107t-110 42q-69 0 -133.5 -38t-130.5 -117v-90
h321q40 0 68 28z" />
    <glyph glyph-name="uniFEC4" unicode="&#x637;" horiz-adv-x="888" arabic-form="medial" 
d="M891 134v-134h-892v1l-57 20v91l57 21v1h107v490q0 31 19 51.5t48 20.5t47.5 -20.5t18.5 -51.5v-272q141 158 282 158q133 0 199 -77.5t66 -234.5v-64h105zM657 198q0 90 -41.5 135.5t-111.5 45.5q-68 0 -133.5 -38t-131.5 -117v-90h418v64z" />
    <glyph glyph-name="uniFEC6" unicode="&#x638;" horiz-adv-x="908" arabic-form="final" 
d="M510.5 614q-23.5 23 -23.5 56q0 32 23.5 55t55.5 23t55.5 -23t23.5 -55q0 -33 -23.5 -56t-55.5 -23t-55.5 23zM913 134v-134h-791q-31 0 -51.5 19t-20.5 48t20.5 48t51.5 19h35v490q0 31 19 51.5t48 20.5t48 -20.5t19 -51.5v-271q141 157 280 157q134 0 200.5 -77.5
t66.5 -234.5v-64h75zM708 198q0 90 -41.5 135.5t-111.5 45.5q-68 0 -133 -37.5t-131 -116.5v-91h417v64z" />
    <glyph glyph-name="uniFEC7" unicode="&#x638;" horiz-adv-x="856" arabic-form="initial" 
d="M459.5 607q-23.5 23 -23.5 56q0 32 23.5 55t55.5 23t55.5 -23t23.5 -55q0 -33 -23.5 -56t-55.5 -23t-55.5 23zM663.5 473.5q60.5 -36.5 90.5 -97.5t30 -133q0 -66 -32.5 -122t-88.5 -88.5t-121 -32.5h-546v134h107v490q0 31 19 51.5t48 20.5t48 -20.5t19 -51.5v-269
q142 155 280 155q86 0 146.5 -36.5zM626 162q28 28 28 68q0 65 -43 107t-110 42q-69 0 -133.5 -38t-130.5 -117v-90h321q40 0 68 28z" />
    <glyph glyph-name="uniFEC8" unicode="&#x638;" horiz-adv-x="888" arabic-form="medial" 
d="M459.5 607q-23.5 23 -23.5 56q0 32 23.5 55t55.5 23t55 -23t23 -55q0 -33 -23 -56t-55 -23t-55.5 23zM891 134v-134h-892v1l-56 20v92l56 20v1h107v490q0 31 19 51.5t48 20.5t47.5 -20.5t18.5 -51.5v-272q141 158 282 158q133 0 199 -77.5t66 -234.5v-64h105zM657 198
q0 90 -41.5 135.5t-111.5 45.5q-68 0 -133.5 -38t-131.5 -117v-90h418v64z" />
    <glyph glyph-name="uniFECA" unicode="&#x639;" horiz-adv-x="646" arabic-form="final" 
d="M89 51q57 69 155 110l-135 197q-15 22 -15 46q0 26 15.5 47t40.5 28q51 18 95 26t93 8q76 0 132.5 -20t86 -58t25.5 -90q-5 -61 -36 -108.5t-89 -89.5q26 -13 60 -13h134v-134h-165q-54 0 -84.5 16t-62.5 49q-10 -6 -32 -13q-42 -17 -70 -33.5t-49.5 -50.5t-21.5 -87
q0 -60 53 -94.5t134 -34.5q45 0 92 12q4 1 11 1q25 0 42.5 -18t17.5 -43q0 -20 -11 -35.5t-29 -22.5q-75 -27 -148 -27q-81 0 -148.5 32t-107.5 91.5t-40 138.5q0 101 57 170zM342 204q86 67 86 143q0 25 -30.5 40t-72.5 15q-30 0 -59 -8.5t-49 -24.5v-5z" />
    <glyph glyph-name="uniFECB" unicode="&#x639;" horiz-adv-x="515" arabic-form="initial" 
d="M476.5 114.5q19.5 -19.5 19.5 -47.5t-19.5 -47.5t-47.5 -19.5h-431l-58 21v92l58 21h99q-45 56 -45 136q0 89 35.5 149t95.5 89t133 29q42 0 89 -11q21 -4 35 -21t14 -38q0 -28 -20 -45.5t-46 -14.5q-20 4 -44 4q-65 0 -104 -36.5t-39 -108.5q0 -71 38.5 -101.5
t107.5 -30.5h82q28 0 47.5 -19.5z" />
    <glyph glyph-name="uniFECC" unicode="&#x639;" horiz-adv-x="660" arabic-form="medial" 
d="M662 134v-134h-205q-83 0 -130 58q-30 -30 -66 -44t-71 -14h-191l-57 21v92l57 21h157q14 0 45.5 4t38.5 9l-146 193q-20 23 -20 56q0 30 18 53.5t47 31.5q99 32 197 32q111 0 178.5 -41t67.5 -113q0 -27 -13 -61q-12 -32 -28 -56.5t-39 -48t-47 -46.5q40 -13 90 -13h117
zM426 347q0 42 -95 42q-59 0 -116 -20v-5l125 -159q32 34 49.5 57t28.5 55q8 19 8 30z" />
    <glyph glyph-name="uniFECE" unicode="&#x63a;" horiz-adv-x="646" arabic-form="final" 
d="M250.5 631q-23.5 23 -23.5 56q0 32 23.5 55t55.5 23t55.5 -23t23.5 -55q0 -33 -23.5 -56t-55.5 -23t-55.5 23zM89 51q57 69 155 110l-171 217v83q140 52 265 52q76 0 132.5 -20t86 -58t25.5 -90q-5 -61 -36 -108.5t-89 -89.5q26 -13 60 -13h134v-134h-165q-54 0 -84.5 16
t-62.5 49q-10 -6 -32 -13q-42 -17 -70 -33.5t-49.5 -50.5t-21.5 -87q0 -60 53 -94.5t134 -34.5q45 0 92 12q4 1 11 1q25 0 42.5 -18t17.5 -43q0 -20 -11 -35.5t-29 -22.5q-75 -27 -148 -27q-81 0 -148.5 32t-107.5 91.5t-40 138.5q0 101 57 170zM342 204q86 67 86 143
q0 25 -30.5 40t-72.5 15q-30 0 -59 -8.5t-49 -24.5v-5z" />
    <glyph glyph-name="uniFECF" unicode="&#x63a;" horiz-adv-x="515" arabic-form="initial" 
d="M223.5 638.5q-23.5 23.5 -23.5 55.5t23.5 55t55.5 23t55.5 -23t23.5 -55t-23.5 -55.5t-55.5 -23.5t-55.5 23.5zM476.5 114.5q19.5 -19.5 19.5 -47.5t-19.5 -47.5t-47.5 -19.5h-431l-58 21v92l58 21h99q-45 56 -45 136q0 89 35.5 149t95.5 89t133 29q42 0 89 -11
q21 -4 35 -21t14 -38q0 -28 -20 -45.5t-46 -14.5q-20 4 -44 4q-65 0 -104 -36.5t-39 -108.5q0 -71 38.5 -101.5t107.5 -30.5h82q28 0 47.5 -19.5z" />
    <glyph glyph-name="uniFED0" unicode="&#x63a;" horiz-adv-x="660" arabic-form="medial" 
d="M250.5 631q-23.5 23 -23.5 56q0 32 23.5 55t55.5 23t55 -23t23 -55q0 -33 -23 -56t-55 -23t-55.5 23zM662 134v-134h-205q-83 0 -130 58q-30 -30 -66 -44t-71 -14h-191l-57 21v92l57 21h157q13 0 42.5 4t37.5 9l-167 217v97q140 52 267 52q111 0 178.5 -41t67.5 -113
q0 -27 -13 -61q-12 -32 -28 -56.5t-39 -48t-47 -46.5q40 -13 90 -13h117zM426 347q0 42 -95 42q-59 0 -116 -20v-5l125 -159q32 34 49.5 57t28.5 55q8 19 8 30z" />
    <glyph glyph-name="uniFED2" unicode="&#x641;" horiz-adv-x="957" arabic-form="final" 
d="M570.5 617q-23.5 23 -23.5 56q0 32 23.5 55t55.5 23t55 -23t23 -55q0 -33 -23 -56t-55 -23t-55.5 23zM962 134v-134h-701q-62 0 -112.5 29.5t-79.5 80.5t-29 113v55q0 31 19 51.5t48 20.5t48 -20.5t19 -51.5v-55q0 -40 24.5 -64.5t64.5 -24.5h165q-31 45 -31 95v57
q0 64 29.5 116t82 82t118.5 30q67 0 119 -29.5t81 -81.5t29 -117v-57q0 -54 -30 -95h136zM723 286q0 43 -25.5 68.5t-69.5 25.5q-46 0 -71.5 -25t-25.5 -69v-57q0 -39 30 -67t68 -28q42 0 68 27t26 68v57z" />
    <glyph glyph-name="uniFED3" unicode="&#x641;" horiz-adv-x="578" arabic-form="initial" 
d="M237 612.5q-24 22.5 -25 54.5q0 32 23.5 56t55.5 24t55.5 -23t23.5 -55t-23 -55.5t-54 -23.5q-32 0 -56 22.5zM410 484q52 -30 82 -82t30 -116v-76q0 -57 -28.5 -105t-77 -76.5t-105.5 -28.5h-312l-58 22v91l58 21h89q-31 45 -31 95v57q0 64 30 116t82 82t115 30h11
q63 0 115 -30zM362 354q-26 26 -67 26h-11q-41 0 -67 -26t-26 -68v-57q0 -39 26 -67t61 -28h20q38 0 64 26.5t26 63.5v62q0 42 -26 68z" />
    <glyph glyph-name="uniFED4" unicode="&#x641;" horiz-adv-x="585" arabic-form="medial" 
d="M230.5 606q-23.5 23 -23.5 56q0 32 23.5 55t55.5 23t55 -23t23 -55q0 -33 -23 -56t-55 -23t-55.5 23zM592 134v-134h-602l-58 21v91l58 22h104q-30 43 -30 95v57q0 64 29 116.5t81.5 82t118.5 29.5q67 0 119.5 -29.5t81.5 -81.5t29 -117v-57q0 -53 -31 -95h100zM389 286
q0 43 -25 68.5t-70 25.5q-46 0 -71.5 -25t-25.5 -69v-57q0 -39 30.5 -67t68.5 -28q41 0 67 27t26 68v57z" />
    <glyph glyph-name="uniFED6" unicode="&#x642;" horiz-adv-x="849" arabic-form="final" 
d="M405.5 603q-23.5 23 -23.5 56q0 32 23.5 55t55.5 23t55.5 -23t23.5 -55q0 -33 -23.5 -56t-55.5 -23t-55.5 23zM619.5 603q-23.5 23 -23.5 56q0 32 23.5 55t55.5 23t55 -23t23 -55q0 -33 -23 -56t-55 -23t-55.5 23zM854 134v-134h-71q-18 -83 -69 -147t-126 -99.5
t-165 -35.5h-3q-104 0 -188.5 48t-133 133t-48.5 189v38q0 31 19.5 51.5t48.5 20.5t48 -20.5t19 -51.5v-38q0 -68 30 -121.5t83.5 -83.5t121.5 -30h3q87 0 144 39t79 108h-90q-62 0 -112.5 29t-79.5 79.5t-29 112.5v72q0 62 29 112t79.5 79t112.5 29h15q62 0 112.5 -29
t79.5 -79t29 -112v-159h62zM493.5 158q24.5 -24 62.5 -24h103v159q0 38 -24.5 62t-63.5 24h-15q-38 0 -62.5 -24t-24.5 -62v-72q0 -39 24.5 -63z" />
    <glyph glyph-name="uniFED7" unicode="&#x642;" horiz-adv-x="578" arabic-form="initial" 
d="M122.5 614q-23.5 23 -23.5 56q0 32 23.5 55t55.5 23t55.5 -23t23.5 -55q0 -33 -23.5 -56t-55.5 -23t-55.5 23zM336.5 614q-23.5 23 -23.5 56q0 32 23.5 55t55.5 23t55.5 -23t23.5 -55q0 -33 -23.5 -56t-55.5 -23t-55.5 23zM410 484q52 -30 82 -82t30 -116v-76
q0 -57 -28.5 -105t-77 -76.5t-105.5 -28.5h-312l-58 22v91l58 21h89q-31 45 -31 95v57q0 64 30 116t82 82t115 30h11q63 0 115 -30zM362 354q-26 26 -67 26h-11q-41 0 -67 -26t-26 -68v-57q0 -39 26 -67t61 -28h20q38 0 64 26.5t26 63.5v62q0 42 -26 68z" />
    <glyph glyph-name="uniFED8" unicode="&#x642;" horiz-adv-x="585" arabic-form="medial" 
d="M114.5 603.5q-23.5 23.5 -23.5 55.5t24 55.5t55 23.5q32 0 55.5 -23.5t23.5 -55.5t-23.5 -55.5t-55.5 -23.5t-55.5 23.5zM328.5 603.5q-23.5 23.5 -23.5 55.5t23.5 55.5t55.5 23.5t55.5 -23.5t23.5 -55.5t-23.5 -55.5t-55.5 -23.5t-55.5 23.5zM587 134v-134h-590l-58 21
v92l58 21h97q-30 43 -30 95v57q0 64 29 116.5t81.5 82t118.5 29.5q67 0 119.5 -29.5t81.5 -81.5t29 -117v-57q0 -53 -31 -95h95zM389 286q0 43 -25 68.5t-70 25.5q-46 0 -71.5 -25t-25.5 -69v-57q0 -39 30.5 -67t68.5 -28q41 0 67 27t26 68v57z" />
    <glyph glyph-name="uniFEDA" unicode="&#x643;" horiz-adv-x="923" arabic-form="final" 
d="M928 134v-134h-63q-34 0 -65.5 15.5t-56.5 41.5q-54 -57 -144 -57h-336q-63 0 -114 29t-80 80t-29 114v70q0 31 19 51.5t48 20.5t48 -20.5t19 -51.5v-70q0 -40 24.5 -64.5t64.5 -24.5h337q42 0 58.5 21t17.5 58l-1 411q0 31 19 51.5t48 20.5h1v0q29 0 47.5 -20.5
t18.5 -51.5v-409q0 -38 16.5 -59.5t58.5 -21.5h44zM316 380q-12 10 -12 26q0 13 10 23t25 12q-24 26 -24 63q0 42 26.5 68.5t73.5 26.5q34 0 59 -16.5t36 -46.5q3 -6 3 -13q0 -14 -10 -24t-25 -10q-9 0 -16.5 5t-12.5 13q-5 10 -14 15.5t-19 5.5q-14 0 -23.5 -8.5
t-9.5 -23.5q0 -13 8.5 -28.5t27.5 -26.5h65q17 0 29 -10t12 -25t-12 -25.5t-29 -10.5h-139q-17 0 -29 10z" />
    <glyph glyph-name="uniFEDB" unicode="&#x643;" horiz-adv-x="707" arabic-form="initial" 
d="M558.5 402.5q40.5 -23.5 64 -64t23.5 -88.5v-74q0 -48 -23.5 -88.5t-64 -64.5t-88.5 -24h-475l-58 22v91l58 21h459q24 0 41 17t17 41v44q0 24 -17 41t-41 17l-340 -1q-18 0 -32 11t-18 28q-1 4 -1 12q0 15 7 26l163 283q7 13 20.5 20.5t28.5 7.5q27 0 43.5 -17t16.5 -41
q0 -15 -7 -28l-84 -168h219q48 0 88.5 -23.5z" />
    <glyph glyph-name="uniFEDC" unicode="&#x643;" horiz-adv-x="855" arabic-form="medial" 
d="M861 134v-134h-863l-58 21v92l58 21h617v60q0 44 -27.5 71.5t-71.5 27.5h-325q-14 0 -22 11q-4 5 -4 14q0 7 3 13l173 333q7 15 21.5 23.5t31.5 8.5q25 0 42 -18t17 -42q0 -14 -7 -27l-94 -183h164q66 0 119 -30.5t83.5 -83.5t30.5 -118v-60h112z" />
    <glyph glyph-name="uniFEDE" unicode="&#x644;" horiz-adv-x="749" arabic-form="final" 
d="M753 0h-101q-9 -74 -50 -132.5t-105 -91.5t-141 -33h-7q-85 0 -153 39t-107 107.5t-39 152.5v121q0 31 19 51.5t48 20.5t48 -20.5t19 -51.5v-121q0 -74 46 -120t119 -46h7q74 0 120 46t46 120v582q0 31 19 51.5t48 20.5t47.5 -20.5t18.5 -51.5v-490h98v-134z" />
    <glyph glyph-name="uniFEDF" unicode="&#x644;" horiz-adv-x="286" arabic-form="initial" 
d="M202 675.5q19 -20.5 19 -51.5v-496q0 -54 -37 -91t-91 -37h-95l-58 21v91l58 22h50q15 0 27 11t12 32v447q0 31 19 51.5t48 20.5t48 -20.5z" />
    <glyph glyph-name="uniFEE0" unicode="&#x644;" horiz-adv-x="331" arabic-form="medial" 
d="M333 134v-134h-49q-34 0 -65.5 15.5t-56.5 41.5q-54 -57 -143 -57h-21l-57 21v91l57 22h23q41 0 57 21t17 57l-1 412q0 31 19 51.5t48 20.5h1v0q29 0 47.5 -20.5t18.5 -51.5v-409q0 -38 16.5 -59.5t58.5 -21.5h30z" />
    <glyph glyph-name="uniFEE2" unicode="&#x645;" horiz-adv-x="731" arabic-form="final" 
d="M735 0h-34q-36 0 -68 14t-54 38q-29 -32 -70 -50t-89 -18q-60 0 -105.5 16.5t-81.5 51.5q-25 -4 -39 -21t-14 -43v-173q0 -31 -19 -51.5t-47 -20.5q-29 0 -48.5 20.5t-19.5 51.5v173q0 71 40.5 123t105.5 68v112q0 64 29.5 116.5t82 82.5t116.5 30q65 0 117.5 -30
t82.5 -82t30 -117v-105q0 -24 14 -38t37 -14h34v-134zM490 144.5q26 26.5 26 69.5v77q0 43 -26.5 69t-69.5 26q-42 0 -68 -26t-26 -69v-142q16 -17 38 -24t56 -7q44 0 70 26.5z" />
    <glyph glyph-name="uniFEE3" unicode="&#x645;" horiz-adv-x="617" arabic-form="initial" 
d="M448.5 486q51.5 -30 81.5 -82t30 -116v-57q0 -61 -30 -113.5t-81 -83.5t-111 -31q-45 0 -87.5 14.5t-76.5 40.5q-24 -27 -58 -42.5t-74 -15.5h-44l-58 21v92l58 21h44q24 0 39 15t15 40v99q0 64 29.5 116t81.5 82t116 30h10q64 0 115.5 -30zM400.5 356.5
q-25.5 25.5 -67.5 25.5h-10q-42 0 -68 -25.5t-26 -68.5v-102q18 -24 47 -36.5t62 -12.5q36 0 62 27.5t26 66.5v57q0 43 -25.5 68.5z" />
    <glyph glyph-name="uniFEE4" unicode="&#x645;" horiz-adv-x="631" arabic-form="medial" 
d="M641 0h-34q-41 0 -76 16.5t-58 45.5q-28 -28 -65 -43.5t-77 -15.5q-45 0 -87.5 14.5t-76.5 40.5q-24 -27 -58 -42.5t-75 -15.5h-36l-58 21v92l58 21h36q25 0 40 15t15 40v99q0 64 29.5 116t81.5 82t116 30h10q64 0 115.5 -30t81.5 -82t30 -116v-99q0 -25 14.5 -40
t39.5 -15h34v-134zM393 164.5q26 27.5 26 66.5v57q0 43 -25.5 68.5t-67.5 25.5h-10q-42 0 -68 -25.5t-26 -68.5v-102q18 -24 47 -36.5t62 -12.5q36 0 62 27.5z" />
    <glyph glyph-name="uniFEE6" unicode="&#x646;" horiz-adv-x="742" arabic-form="final" 
d="M257.5 451q-23.5 23 -23.5 56q0 31 23.5 54.5t55.5 23.5t55.5 -23t23.5 -55q0 -33 -23.5 -56t-55.5 -23t-55.5 23zM747 0h-93q-5 -79 -45.5 -142t-106.5 -98.5t-146 -35.5h-7q-85 0 -153 39t-107 107.5t-39 153.5v120q0 31 19 51.5t48 20.5t48 -20.5t19 -51.5v-120
q0 -74 45.5 -120t119.5 -46h7q74 0 120 46t46 120v384q0 31 19 51.5t48 20.5q28 0 47 -20.5t19 -51.5v-274h92v-134z" />
    <glyph glyph-name="uniFEE7" unicode="&#x646;" horiz-adv-x="307" arabic-form="initial" 
d="M116.5 562q-23.5 23 -23.5 56q0 32 23.5 55t55.5 23t55.5 -23t23.5 -55q0 -33 -23.5 -56t-55.5 -23t-55.5 23zM77 134q15 0 27 11t12 32v225q0 31 19 51.5t48 20.5t48 -20.5t19 -51.5v-274q0 -54 -37.5 -91t-90.5 -37h-138v134h93z" />
    <glyph glyph-name="uniFEE8" unicode="&#x646;" horiz-adv-x="328" arabic-form="medial" 
d="M97.5 567q-23.5 23 -23.5 56q0 31 23.5 54.5t55.5 23.5t55.5 -23t23.5 -55q0 -33 -23.5 -56t-55.5 -23t-55.5 23zM338 134v-134h-49q-34 0 -65.5 15t-57.5 42q-52 -57 -143 -57h-28l-58 21v91l58 22h30q42 0 58 21.5t16 59.5v187q0 29 17 49q20 23 49 23h1v0
q29 0 48 -20.5t19 -51.5v-133q0 -20 -1 -31v-23q0 -37 16.5 -59t58.5 -22h31z" />
    <glyph glyph-name="uniFEEA" unicode="&#x647;" horiz-adv-x="606" arabic-form="final" 
d="M610 134v-134h-35q-43 0 -80 16.5t-63 46.5q-58 -60 -154 -60q-60 0 -110.5 31t-80.5 83t-30 114v59q0 61 30.5 113t82.5 82.5t113 30.5h38q55 0 100.5 -27t72.5 -72.5t27 -100.5v-127q0 -25 14.5 -40t39.5 -15h35zM387 300q0 35 -23.5 58.5t-58.5 23.5h-22
q-41 0 -66.5 -26t-25.5 -68v-57q0 -39 26 -66.5t61 -27.5q33 0 61.5 12.5t47.5 36.5v114z" />
    <glyph glyph-name="uniFEEB" unicode="&#x647;" horiz-adv-x="851" arabic-form="initial" 
d="M279.5 491q16.5 19 43.5 23q71 12 131 12q102 0 177 -29.5t114.5 -81t41.5 -117.5v-85q0 -61 -30 -109.5t-81 -76t-112 -27.5h-578l-58 21v92l58 21h155q-27 37 -27 83v40q4 69 44.5 118t104.5 63v7q0 27 16.5 46zM627.5 156q26.5 22 26.5 59l-1 82q-3 52 -67 80t-170 25
q45 -19 72 -59t27 -96v-113h46q40 0 66.5 22zM379 314q-23 23 -63 23q-42 0 -65 -22.5t-23 -63.5v-31q0 -35 25.5 -59.5t59.5 -26.5h89v117q0 40 -23 63z" />
    <glyph glyph-name="uniFEEC" unicode="&#x647;" horiz-adv-x="665" arabic-form="medial" 
d="M708 134v-134h-132v-22q0 -108 -54 -169t-170 -61q-108 0 -166 70t-58 181v1h-156v134h156v139q0 69 30 124t83 86t119 31q68 0 121.5 -33t83 -92.5t29.5 -137.5q0 -61 -27 -117h141zM251 134h92q58 0 93 31t35 86q0 66 -30 103t-80 37q-47 0 -78.5 -37.5t-31.5 -94.5
v-125zM-87 21v92l58 21v-134zM428 -94.5q25 34.5 25 93.5v24q-51 -23 -110 -23h-92v-1q0 -128 101 -128q51 0 76 34.5z" />
    <glyph glyph-name="uniFEEE" unicode="&#x648;" horiz-adv-x="554" arabic-form="final" 
d="M559 0h-49v-45q0 -56 -28.5 -99.5t-83.5 -68.5t-132 -25q-45 0 -98 9q-22 5 -36 22.5t-14 39.5q0 28 21 46.5t48 15.5q28 -3 51 -3q74 0 106 25t32 71v14h-110q-59 0 -109.5 31t-80 83t-29.5 113v59q0 64 29.5 115.5t81.5 81.5t116 30h10q64 0 115.5 -30t81 -81.5
t29.5 -115.5v-154h49v-134zM206.5 163q26.5 -28 61.5 -28h108v153q0 42 -25.5 68t-66.5 26h-10q-42 0 -68 -26t-26 -68v-59q0 -38 26.5 -66z" />
    <glyph glyph-name="uniFEF0" unicode="&#x649;" horiz-adv-x="1053" arabic-form="final" 
d="M1058 134v-134h-252v310q0 29 -20 49t-49 20q-34 0 -57.5 -23.5t-23.5 -57.5v-256q0 -85 -39 -153.5t-108 -107.5t-153 -39h-6q-85 0 -153.5 39t-107.5 107.5t-39 153.5v120q0 31 19 51.5t48 20.5t48 -20.5t19 -51.5v-120q0 -74 46 -120t120 -46h6q74 0 120 46t46 120
v256q0 60 28.5 109t77.5 77.5t108 28.5q56 0 102.5 -27.5t74 -74.5t27.5 -102v-175h118z" />
    <glyph glyph-name="uniFEF2" unicode="&#x64a;" horiz-adv-x="1053" arabic-form="final" 
d="M1058 134v-134h-252v310q0 29 -20 49t-49 20q-34 0 -57.5 -23.5t-23.5 -57.5v-256q0 -85 -39 -153.5t-108 -107.5t-153 -39h-6q-85 0 -153.5 39t-107.5 107.5t-39 153.5v120q0 31 19 51.5t48 20.5t48 -20.5t19 -51.5v-120q0 -74 46 -120t120 -46h6q74 0 120 46t46 120
v256q0 60 28.5 109t77.5 77.5t108 28.5q56 0 102.5 -27.5t74 -74.5t27.5 -102v-175h118zM285.5 -328.5q23.5 -23.5 23.5 -55.5t-23 -55.5t-55 -23.5t-55.5 23.5t-23.5 55.5t23.5 55.5t55.5 23.5q31 0 54.5 -23.5zM499.5 -328.5q23.5 -23.5 23.5 -55.5t-23.5 -55.5
t-55.5 -23.5t-55.5 23.5t-23.5 55.5t23.5 55.5t55.5 23.5t55.5 -23.5z" />
    <glyph glyph-name="uniFEF3" unicode="&#x64a;" horiz-adv-x="443" arabic-form="initial" 
d="M188 134q15 0 27 11t12 32v225q0 31 19 51.5t48 20.5t48 -20.5t19 -51.5v-274q0 -54 -37.5 -91t-90.5 -37h-244v134h199zM41.5 -229.5q-23.5 23.5 -23.5 55.5q0 31 24 55t55 24q32 0 55.5 -23.5t23.5 -55.5t-23.5 -55.5t-55.5 -23.5t-55.5 23.5zM255.5 -229.5
q-23.5 23.5 -23.5 55.5t23.5 55.5t55.5 23.5t55.5 -23.5t23.5 -55.5t-23.5 -55.5t-55.5 -23.5t-55.5 23.5z" />
    <glyph glyph-name="uniFEF4" unicode="&#x64a;" horiz-adv-x="472" arabic-form="medial" 
d="M482 134v-134h-116q-66 0 -122 56q-53 -56 -143 -56h-106l-58 21v91l58 22h107q42 0 58 21.5t16 59.5v187q0 19 7.5 34.5t21.5 25.5q17 12 38 12q29 0 48 -20.5t19 -51.5v-133q0 -20 -1 -32v-22q0 -37 17 -59t59 -22h97zM169 -117.5q23 -23.5 23 -54.5q0 -33 -23 -56
t-55 -23t-55.5 23t-23.5 56q0 32 23.5 55t55.5 23t55 -23.5zM382.5 -117q23.5 -23 23.5 -55q0 -33 -23.5 -56t-55.5 -23t-55.5 23t-23.5 56q0 32 23.5 55t55.5 23t55.5 -23z" />
    <glyph glyph-name=".notdef" horiz-adv-x="525" 
 />
    <glyph glyph-name=".null" 
 />
    <glyph glyph-name="nonmarkingreturn" horiz-adv-x="333" 
 />
    <glyph glyph-name="space" unicode=" " horiz-adv-x="197" 
 />
    <glyph glyph-name="exclam" unicode="!" horiz-adv-x="316" 
d="M200 216q-15 -18 -42 -18t-42 18t-16 51l-8 411q-1 35 16 53.5t50 18.5t50 -18.5t16 -53.5l-8 -411q-1 -33 -16 -51zM107 8.5q-21 20.5 -21 51.5q0 29 21 49.5t51 20.5q29 0 50 -20.5t21 -49.5q0 -30 -21 -51t-50 -21q-30 0 -51 20.5z" />
    <glyph glyph-name="quotedbl" unicode="&#x22;" horiz-adv-x="359" 
d="M140 435.5q-7 -7.5 -20 -7.5h-35q-13 0 -20.5 7.5t-7.5 20.5v193q0 13 7.5 20.5t20.5 7.5h35q13 0 20 -7.5t7 -20.5v-193q0 -13 -7 -20.5zM294 435.5q-7 -7.5 -20 -7.5h-35q-13 0 -20 7.5t-7 20.5v193q0 13 7 20.5t20 7.5h35q13 0 20 -7.5t7 -20.5v-193q0 -13 -7 -20.5z
" />
    <glyph glyph-name="numbersign" unicode="#" horiz-adv-x="632" 
d="M205 51q-7 -51 -57 -51q-20 0 -30.5 11.5t-10.5 32.5q0 10 1 16l16 103h-32q-28 0 -42 13.5t-10 36.5q7 50 59 50h42l21 128h-33q-25 0 -39 10t-14 29q0 7 1 11q7 49 59 49h43l18 112q9 51 58 51q20 0 30.5 -11.5t10.5 -32.5q0 -10 -1 -15l-18 -104h131l19 112
q7 51 58 51q20 0 30.5 -11t10.5 -31q0 -5 -2 -17l-17 -104h33q26 0 40 -10t14 -29q0 -6 -1 -10q-7 -50 -59 -50h-43l-22 -128h33q26 0 40 -10.5t14 -29.5q0 -6 -1 -10q-8 -50 -59 -50h-43l-18 -112q-7 -51 -57 -51q-20 0 -31 11.5t-11 33.5q0 10 1 15l18 103h-131zM392 391
h-131l-21 -128h131z" />
    <glyph glyph-name="dollar" unicode="$" horiz-adv-x="627" 
d="M283.5 -90.5q-7.5 7.5 -7.5 20.5l1 53q-103 8 -165.5 60t-72.5 144q-1 13 6.5 21t21.5 8h86q12 0 19 -6.5t11 -19.5q8 -33 33 -54.5t63 -27.5l2 181l-35 8q-92 24 -141 70.5t-50 120.5q0 58 29 104t81 74t120 34l1 51q2 28 29 28h22q28 0 28 -28l-1 -53q90 -10 146 -59
t67 -127q2 -13 -5.5 -21t-21.5 -8h-87q-12 0 -18.5 6t-12.5 19q-6 25 -24.5 42t-45.5 21l-1 -171l20 -4q106 -23 157 -74t51 -127q0 -94 -61.5 -149.5t-171.5 -63.5l-1 -52q0 -13 -7.5 -20.5t-21.5 -7.5h-21q-14 0 -21.5 7.5zM230.5 548q-19.5 -20 -20.5 -49q0 -28 17 -46
t56 -32l1 153q-34 -6 -53.5 -26zM416 136q21 21 21 52q0 28 -18 46.5t-60 33.5l-1 -160q37 7 58 28z" />
    <glyph glyph-name="percent" unicode="%" horiz-adv-x="1094" 
d="M130.5 412q-47.5 64 -47.5 170q0 104 48 168.5t137 64.5q90 0 138 -64t48 -169q0 -106 -48 -170t-138 -64t-137.5 64zM572.5 739.5q15.5 11.5 34.5 11.5q24 0 40.5 -16.5t16.5 -39.5q0 -4 -2 -14l-166 -640q-5 -19 -20.5 -30.5t-34.5 -11.5q-24 0 -40 16.5t-16 39.5
q0 4 2 14l166 640q4 19 19.5 30.5zM328.5 475.5q19.5 38.5 19.5 106.5t-19.5 106t-60.5 38q-40 0 -59.5 -38t-19.5 -106t19.5 -106.5t59.5 -38.5q41 0 60.5 38.5zM690 47.5q-48 64.5 -48 170.5q0 105 48 169t138 64t138 -64t48 -169q0 -106 -48 -170.5t-138 -64.5t-138 64.5
zM888.5 111.5q19.5 38.5 19.5 106.5t-19.5 106t-60.5 38t-60.5 -38t-19.5 -106t19.5 -106.5t60.5 -38.5t60.5 38.5z" />
    <glyph glyph-name="ampersand" unicode="&#x26;" horiz-adv-x="644" 
d="M147.5 16q-52.5 26 -81 70t-28.5 98q-4 55 26 100t103 83l-1 2q-32 42 -49.5 81t-17.5 80q0 50 24.5 91.5t68 66t99.5 24.5q54 0 93.5 -22.5t60.5 -60t21 -81.5q0 -48 -23.5 -91.5t-69.5 -76.5l-38 -28l118 -138q18 27 28 67q10 29 24 43t40 14q31 0 46 -16.5t11 -48.5
q-15 -94 -61 -156l102 -116h-148l-43 49l-3 -4q-37 -29 -84 -42.5t-96 -13.5q-69 0 -121.5 26zM342 491.5q13 22.5 13 44.5q0 26 -17 42.5t-47 16.5q-31 0 -51 -19t-20 -48q0 -21 11 -42t39 -57l34 23q25 17 38 39.5zM193.5 240q-13.5 -19 -13.5 -46q0 -39 28 -63t72 -25
q50 1 90 31l-130 148q-33 -26 -46.5 -45z" />
    <glyph glyph-name="quotesingle" unicode="'" horiz-adv-x="257" 
d="M153 535q-5 -11 -12.5 -16t-18.5 -5h-30q-11 0 -18 5.5t-7 14.5q0 2 2 10q27 112 31 183l1 9q0 13 7.5 20t20.5 7h47q28 0 26 -27q-8 -94 -49 -201z" />
    <glyph glyph-name="parenleft" unicode="(" horiz-adv-x="390" 
d="M124.5 443.5q25.5 93.5 78.5 177.5q8 11 21 17.5t27 6.5h1q25 0 42 -17.5t17 -41.5q0 -10 -5 -23q-32 -73 -50 -156.5t-18 -164.5q0 -80 18 -163t50 -157q5 -13 5 -23q0 -24 -17 -42t-42 -18h-1q-14 0 -27 7t-21 18q-104 163 -104 378q0 108 25.5 201.5z" />
    <glyph glyph-name="parenright" unicode=")" horiz-adv-x="390" 
d="M188 -136q-8 -11 -21 -18t-27 -7h-1q-25 0 -42 18t-17 42q0 10 5 23q32 74 49.5 156.5t17.5 163.5q0 82 -17.5 165t-49.5 156q-5 13 -5 23q0 24 17 41.5t42 17.5h1q14 0 27 -6.5t21 -17.5q104 -166 104 -379q0 -212 -104 -378z" />
    <glyph glyph-name="asterisk" unicode="*" horiz-adv-x="557" 
d="M146 378q-18 0 -27 16q-4 7 -4 15q0 27 51 51l46 25l-47 26q-50 24 -50 51q0 8 4 15q9 15 27 15q22 0 53 -22l47 -28l-1 54q-1 6 -1 17q0 26 9 41t25 15q19 0 28 -19t6 -54l-1 -54l47 28q32 23 53 23q19 0 27 -16q4 -7 4 -15q0 -26 -51 -51l-46 -26l46 -25q51 -24 51 -51
q0 -8 -4 -15q-9 -16 -27 -16q-22 0 -53 22l-47 28l1 -53q1 -6 1 -17q0 -27 -9 -42t-26 -15q-19 0 -27.5 19.5t-5.5 54.5l1 53l-47 -28q-31 -22 -53 -22z" />
    <glyph glyph-name="plus" unicode="+" horiz-adv-x="611" 
d="M518.5 298.5q14.5 -12.5 14.5 -37.5t-14.5 -38.5t-41.5 -13.5h-118v-126q0 -27 -13 -41t-38 -14q-51 0 -51 56v125h-123q-27 0 -41.5 13.5t-14.5 38.5q0 24 14.5 37t41.5 13h123v116q0 26 13 40.5t38 14.5t38 -14t13 -41v-116h118q27 0 41.5 -12.5z" />
    <glyph glyph-name="comma" unicode="," horiz-adv-x="287" 
d="M153 -143q-6 -17 -16 -20t-44 -3q-12 0 -19 6t-7 16q0 3 2 11q12 51 20 93.5t11 87.5l1 7q0 18 11 23.5t39 5.5q32 0 42 -5t9 -25q-11 -99 -49 -197z" />
    <glyph glyph-name="hyphen" unicode="-" horiz-adv-x="446" 
d="M352.5 222.5q-14.5 -13.5 -40.5 -13.5h-178q-27 0 -41.5 13.5t-14.5 38.5q0 24 14.5 37t41.5 13h178q26 0 40.5 -12.5t14.5 -37.5t-14.5 -38.5z" />
    <glyph glyph-name="period" unicode="." horiz-adv-x="299" 
d="M101 6q-19 20 -19 50q0 28 19.5 46.5t47.5 18.5q27 0 47.5 -19t20.5 -46q0 -29 -20.5 -49.5t-47.5 -20.5q-29 0 -48 20z" />
    <glyph glyph-name="slash" unicode="/" horiz-adv-x="409" 
d="M138 -111h-56q-13 0 -20 6t-7 16q0 7 1 10l181 695q6 25 33 25h57q26 0 26 -22q0 -7 -1 -10l-181 -695q-6 -25 -33 -25z" />
    <glyph glyph-name="zero" unicode="0" horiz-adv-x="648" 
d="M177 31q-63 47 -97.5 134t-34.5 202q0 116 34.5 202.5t97.5 133.5t147 47t147 -47t97.5 -133.5t34.5 -202.5q0 -115 -34.5 -202t-97.5 -134t-147 -47t-147 47zM425.5 187.5q36.5 63.5 36.5 178.5q0 116 -36.5 180.5t-101.5 64.5t-101 -64t-36 -180t36 -179.5t101 -63.5
t101.5 63.5z" />
    <glyph glyph-name="one" unicode="1" horiz-adv-x="396" 
d="M286.5 717.5q30.5 -30.5 30.5 -74.5v-583q0 -25 -17.5 -42.5t-42.5 -17.5h-20q-25 0 -42.5 17.5t-17.5 42.5v539l-59 -33q-12 -8 -30 -8q-24 0 -41.5 17t-17.5 44q0 13 7 25.5t18 20.5l97 64q28 19 61 19q44 0 74.5 -30.5z" />
    <glyph glyph-name="two" unicode="2" horiz-adv-x="549" 
d="M488.5 116q19.5 -20 19.5 -48t-19.5 -48t-47.5 -20h-328q-34 0 -58.5 24t-24.5 58q0 24 12.5 43.5t33.5 30.5q125 86 185.5 157.5t74.5 120t14 100.5q0 40 -23 64t-60 24q-31 0 -51.5 -15.5t-26.5 -43.5q-9 -16 -25.5 -26t-35.5 -10q-31 0 -51.5 21t-20.5 49q0 13 7 30
q22 63 75 98.5t127 35.5q66 0 117 -28t79.5 -79t28.5 -116q0 -82 -50 -177.5t-184 -224.5h185q28 0 47.5 -20z" />
    <glyph glyph-name="three" unicode="3" horiz-adv-x="553" 
d="M469 385.5q43 -59.5 43 -145.5q0 -72 -31 -130t-86 -91t-123 -33q-75 0 -129 30.5t-79 86.5q-11 19 -11 38q0 23 13.5 42t37.5 26q11 3 20 3q17 0 33 -8t26 -23q10 -28 33.5 -44.5t55.5 -16.5q45 0 75.5 35.5t30.5 86.5q0 53 -31.5 85t-83.5 32h-95q-10 0 -17.5 7
t-7.5 17q0 8 7 17l192 213h-221q-27 0 -46.5 19.5t-19.5 46.5v1q0 28 19.5 47t46.5 19h280q37 0 62.5 -25.5t25.5 -62.5q0 -20 -9 -38.5t-25 -30.5l-131 -122l28 -4q74 -18 117 -77.5z" />
    <glyph glyph-name="four" unicode="4" horiz-adv-x="568" 
d="M524 158q-19 -19 -46 -19h-23v-73q0 -27 -19.5 -46.5t-47.5 -19.5q-27 0 -46.5 19.5t-19.5 46.5v73h-200q-44 0 -76 31.5t-32 76.5q0 24 8 41l175 418q8 18 24.5 29t36.5 11q28 0 46.5 -19t18.5 -46q0 -12 -4 -23l-153 -388h156v138q0 28 19.5 47t46.5 19q28 0 47.5 -19
t19.5 -47v-138h23q27 0 46 -19t19 -47q0 -27 -19 -46z" />
    <glyph glyph-name="five" unicode="5" horiz-adv-x="550" 
d="M398.5 451.5q57.5 -30.5 88 -86t30.5 -129.5q0 -71 -31 -128t-86.5 -89.5t-124.5 -32.5q-72 0 -127 30.5t-81 84.5q-13 19 -13 41q0 28 20 49.5t52 21.5q17 0 32 -8t25 -23q11 -28 35.5 -45t56.5 -17q47 0 77 33t30 83q0 58 -31 89.5t-91 31.5h-139q-26 0 -44 18t-18 43
v268q0 25 18.5 43t43.5 18h280q27 0 46.5 -19.5t19.5 -47.5t-19.5 -47t-46.5 -19h-212v-132h74q78 0 135.5 -30.5z" />
    <glyph glyph-name="six" unicode="6" horiz-adv-x="570" 
d="M66 578q31 88 90.5 135t143.5 47q59 0 109 -26.5t78 -71.5q14 -17 14 -39q0 -20 -12 -37t-33 -24h-1q-9 -3 -20 -3q-31 0 -50 24q-10 22 -33 34.5t-52 12.5q-64 0 -95.5 -64t-27.5 -181q17 42 60.5 67t96.5 25q62 0 109.5 -29t73.5 -83t26 -126q0 -75 -31 -133t-86.5 -90
t-127.5 -32q-80 0 -139 42.5t-91 120.5t-32 181v43q-1 119 30 207zM377 347.5q-32 35.5 -86 35.5q-53 0 -85 -35.5t-32 -96.5q0 -59 32.5 -95.5t86.5 -36.5q53 0 84.5 37t31.5 95q0 61 -32 96.5z" />
    <glyph glyph-name="seven" unicode="7" horiz-adv-x="531" 
d="M479 712q34 -34 34 -82q0 -25 -8 -42l-195 -544q-7 -20 -25 -32t-39 -12q-30 0 -50 20.5t-20 48.5q0 11 5 24l185 517h-273q-29 0 -49 19.5t-20 48.5t20 48.5t49 19.5h304q48 0 82 -34z" />
    <glyph glyph-name="eight" unicode="8" horiz-adv-x="591" 
d="M523 321.5q30 -49.5 30 -104.5q0 -68 -33 -120.5t-91.5 -81.5t-132.5 -29q-75 0 -133.5 29t-91.5 81.5t-33 119.5q0 55 30.5 105t78.5 76q-39 27 -63 70.5t-24 87.5q0 61 30 107.5t83.5 72t122.5 25.5q68 0 121.5 -25.5t83.5 -72t30 -107.5q0 -45 -24 -87.5t-62 -70.5
q48 -26 78 -75.5zM221.5 620.5q-30.5 -28.5 -30.5 -68.5q0 -41 30.5 -69.5t74.5 -28.5t74 28.5t30 69.5q0 40 -30.5 68.5t-73.5 28.5q-44 0 -74.5 -28.5zM383 137q36 34 36 83q0 48 -36 82t-87 34t-87.5 -34t-36.5 -82q0 -49 36.5 -83t87.5 -34t87 34z" />
    <glyph glyph-name="nine" unicode="9" horiz-adv-x="570" 
d="M509 174q-31 -86 -91 -132.5t-143 -46.5q-58 0 -106.5 24.5t-76.5 66.5q-15 16 -15 41q0 21 12 38.5t33 24.5h1q9 3 19 3q29 0 49 -22q12 -22 36 -35.5t53 -13.5q60 0 89.5 45t29.5 136q0 27 -1 41q-22 -36 -63 -53.5t-94 -17.5q-62 0 -109.5 29t-73.5 82t-26 124
q0 73 31.5 130t87 88.5t126.5 31.5q80 0 139 -42t91 -118.5t32 -177.5v-42q1 -118 -30 -204zM198 400.5q32 -35.5 86 -35.5q53 0 85 35.5t32 95.5q0 58 -32.5 94t-86.5 36q-53 0 -84.5 -36.5t-31.5 -93.5q0 -60 32 -95.5z" />
    <glyph glyph-name="colon" unicode=":" horiz-adv-x="284" 
d="M91 337q-21 21 -21 50t21 50.5t51 21.5q29 0 50 -21.5t21 -50.5t-21 -50t-50 -21q-30 0 -51 21zM91 6.5q-21 20.5 -21 50.5t21 50.5t51 20.5q29 0 50 -20.5t21 -50.5t-21 -50.5t-50 -20.5q-30 0 -51 20.5z" />
    <glyph glyph-name="semicolon" unicode=";" horiz-adv-x="287" 
d="M99.5 367.5q-21.5 21.5 -21.5 52.5q0 30 21.5 51.5t52.5 21.5q30 0 52 -21.5t22 -51.5t-22 -52t-52 -22q-31 0 -52.5 21.5zM153 -143q-6 -17 -16 -20t-44 -3q-12 0 -19 6t-7 16q0 3 2 11q12 51 20 93.5t11 87.5l1 7q0 18 11 23.5t39 5.5q32 0 42 -5t9 -25
q-11 -99 -49 -197z" />
    <glyph glyph-name="less" unicode="&#x3c;" horiz-adv-x="650" 
d="M129 406l372 172q14 6 26 6q17 0 26.5 -12t9.5 -34v-25q0 -46 -43 -61l-284 -124v-6l284 -124q43 -15 43 -61v-24q0 -22 -10.5 -34.5t-27.5 -12.5q-9 0 -24 5l-372 173q-42 17 -42 62v38q0 46 42 62z" />
    <glyph glyph-name="equal" unicode="=" horiz-adv-x="611" 
d="M518.5 222.5q-14.5 -13.5 -41.5 -13.5h-343q-27 0 -41.5 13.5t-14.5 38.5q0 24 14.5 37t41.5 13h343q27 0 41.5 -12.5t14.5 -37.5t-14.5 -38.5zM518.5 5.5q-14.5 -13.5 -41.5 -13.5h-343q-27 0 -41.5 13.5t-14.5 38.5q0 24 14.5 37.5t41.5 13.5h343q27 0 41.5 -13
t14.5 -38t-14.5 -38.5z" />
    <glyph glyph-name="greater" unicode="&#x3e;" horiz-adv-x="651" 
d="M125 67q-17 0 -27 12t-10 34v24q0 46 43 61l284 124v6l-284 124q-43 15 -43 61v23q0 22 10 35t27 13q11 0 25 -6l371 -172q42 -16 42 -62v-38q0 -45 -42 -62l-371 -172q-11 -5 -25 -5z" />
    <glyph glyph-name="question" unicode="?" horiz-adv-x="547" 
d="M216 318q18 30 56 56q40 28 57.5 48.5t17.5 47.5q0 33 -23 54.5t-57 21.5q-29 0 -50.5 -16t-29.5 -42q-8 -13 -21.5 -20.5t-29.5 -7.5q-27 0 -44.5 18.5t-17.5 42.5q0 23 16 40q24 43 71 67t106 24q97 0 158 -46.5t61 -128.5q0 -50 -25 -85.5t-77 -69.5
q-43 -27 -56 -40.5t-15 -35.5l-2 -10q0 -23 -17 -40t-40 -17q-25 0 -42 17t-17 41l1 8q2 43 20 73zM199.5 -22.5q-20.5 20.5 -21.5 51.5q0 29 21 50t51 21q28 0 50 -20.5t22 -48.5q0 -31 -21.5 -52.5t-50.5 -21.5q-30 0 -50.5 20.5z" />
    <glyph glyph-name="at" unicode="@" horiz-adv-x="1013" 
d="M275.5 -129q-103.5 55 -159.5 155.5t-56 234.5q0 135 57 241t163 165.5t249 59.5q133 0 234.5 -53t157.5 -151.5t56 -231.5q1 -129 -56.5 -200t-160.5 -79q-45 -4 -72.5 19.5t-29.5 59.5h-4q-14 -35 -62.5 -57t-105.5 -22q-56 0 -106 28t-81.5 85t-31.5 139
q0 80 29 135.5t73.5 85t93.5 36.5q20 2 31 2q51 0 93 -19t54 -46h5v24q0 13 9 22.5t22 9.5h41q13 0 22 -9.5t9 -22.5v-314q0 -27 7 -37t22 -10q35 0 59 47.5t24 131.5q0 117 -49 187.5t-124 99.5t-159 29q-111 0 -190 -47t-119.5 -126t-39.5 -175q0 -105 42.5 -181.5
t120.5 -117.5t185 -41q84 0 158 29q4 1 13 1q17 0 31.5 -9.5t20.5 -25.5v-1q3 -9 3 -19q0 -18 -10 -32t-28 -20q-90 -35 -197 -35q-140 0 -243.5 55zM605.5 161.5q29.5 37.5 29.5 104.5q0 63 -27.5 101.5t-92.5 38.5q-60 0 -95.5 -37t-35.5 -101q0 -61 34 -102.5t99 -41.5
q59 0 88.5 37.5z" />
    <glyph glyph-name="A" unicode="A" horiz-adv-x="742" 
d="M42 72q0 -30 21 -51t51 -21q23 0 41.5 13.5t26.5 36.5l36 100h299l30 -93q8 -25 28 -41t45 -16q33 0 56 23t23 55q0 13 -4 25l-197 558q-13 40 -48 64.5t-77 24.5t-76.5 -24t-48.5 -64l-202 -566q-4 -11 -4 -24zM366 614l120 -343h-234z" />
    <glyph glyph-name="B" unicode="B" horiz-adv-x="644" 
d="M108.5 36.5q36.5 -36.5 88.5 -36.5h177q115 0 173.5 54.5t59.5 157.5q-1 84 -38 126.5t-113 54.5q59 11 93.5 53.5t34.5 103.5v18q0 86 -54.5 134t-162.5 48h-171q-33 0 -62 -17t-46 -45.5t-17 -62.5l1 -500q0 -52 36.5 -88.5zM211 613h119q55 0 87 -21t32 -59v-16
q0 -37 -30.5 -59.5t-86.5 -22.5h-120zM212 328h119q64 0 99.5 -25t35.5 -71v-10q0 -42 -33 -66.5t-91 -24.5h-130v197z" />
    <glyph glyph-name="C" unicode="C" horiz-adv-x="789" 
d="M745 269.5q21 -21.5 21 -50.5q0 -14 -6 -28q-34 -95 -119 -148.5t-208 -53.5q-119 0 -207 46.5t-135.5 132t-47.5 199.5v18q0 113 47.5 198t134.5 131t201 46q108 0 192.5 -48.5t126.5 -132.5q9 -16 9 -35q0 -29 -20 -50t-51 -21h-2q-19 0 -36 10.5t-27 27.5
q-24 50 -73 80t-122 30q-107 0 -172 -61.5t-67 -165.5v-20q0 -75 29 -130.5t83 -86t127 -30.5q78 0 131 33t74 90q9 19 27 30t38 11q31 0 52 -21.5z" />
    <glyph glyph-name="D" unicode="D" horiz-adv-x="736" 
d="M88 62.5q17 -28.5 46 -45.5t62 -17h152q108 0 187.5 46.5t121 130t41.5 192.5v19q-3 104 -47 186.5t-122 129t-180 46.5h-152q-52 0 -88.5 -36.5t-36.5 -88.5l-1 -500q0 -34 17 -62.5zM211 610h135q64 0 111 -30.5t72.5 -83.5t26.5 -119v-15q0 -101 -55.5 -160.5
t-154.5 -59.5h-135v468z" />
    <glyph glyph-name="E" unicode="E" horiz-adv-x="611" 
d="M104.5 713.5q36.5 36.5 88.5 36.5h296q28 0 48 -20t20 -48v-1q0 -28 -20 -48t-48 -20h-274v-162h216q27 0 46 -19.5t19 -46.5t-19 -46.5t-46 -19.5h-216v-182h282q28 0 48 -20t20 -48v-1q0 -28 -20 -48t-48 -20h-304q-52 0 -88.5 36.5t-36.5 88.5v500q0 52 36.5 88.5z
" />
    <glyph glyph-name="F" unicode="F" horiz-adv-x="580" 
d="M104.5 713.5q36.5 36.5 88.5 36.5h284q28 0 48 -20t20 -48t-20 -48.5t-48 -20.5h-262v-197h209q26 0 45 -18.5t19 -44.5t-19 -45t-45 -19h-209v-218q0 -32 -21 -51.5t-55 -19.5q-31 0 -51 20t-20 51v554q0 52 36.5 88.5z" />
    <glyph glyph-name="G" unicode="G" horiz-adv-x="824" 
d="M461 367.5q18 17.5 43 17.5l190 -1q37 0 62 -27t21 -64q-11 -145 -99.5 -224.5t-246.5 -79.5q-119 0 -206.5 45.5t-134.5 130.5t-47 202v17q0 114 44 199.5t129 132t203 46.5q111 0 193.5 -44t120.5 -124q9 -16 9 -33q0 -27 -20 -47.5t-49 -20.5q-16 0 -31 8.5t-25 22.5
q-22 44 -74.5 71t-122.5 27t-123 -28t-82.5 -80t-30.5 -121v-19q0 -75 30 -130.5t85.5 -86t128.5 -30.5q98 -1 158 36t60 101h-142q-25 0 -43 17.5t-18 42.5q0 26 18 43.5z" />
    <glyph glyph-name="H" unicode="H" horiz-adv-x="767" 
d="M89.5 728.5q21.5 21.5 51.5 21.5t52 -21.5t22 -51.5v-246h337v246q0 30 22 51.5t52 21.5t51.5 -21.5t21.5 -51.5v-603q0 -31 -21.5 -52.5t-51.5 -21.5t-52 21.5t-22 52.5v221h-337v-221q0 -31 -22 -52.5t-52 -21.5t-51.5 21.5t-21.5 52.5v603q0 30 21.5 51.5z" />
    <glyph glyph-name="I" unicode="I" horiz-adv-x="295" 
d="M95.5 22q-21.5 22 -21.5 52v602q0 31 21.5 52.5t52.5 21.5q30 0 51.5 -21.5t21.5 -52.5v-602q0 -30 -21.5 -52t-51.5 -22q-31 0 -52.5 22z" />
    <glyph glyph-name="J" unicode="J" horiz-adv-x="467" 
d="M387 728.5q22 -21.5 22 -52.5v-434q0 -121 -57.5 -182.5t-169.5 -61.5q-48 0 -98 13q-23 4 -38 22.5t-15 42.5q0 29 22 49.5t50 17.5q28 -7 40 -7q58 0 88 27t30 79v434q0 31 21.5 52.5t52.5 21.5q30 0 52 -21.5z" />
    <glyph glyph-name="K" unicode="K" horiz-adv-x="703" 
d="M629 76q0 -30 -21.5 -53t-54.5 -23q-19 0 -35.5 9.5t-27.5 25.5l-195 252l-80 -83v-130q0 -30 -21.5 -52t-51.5 -22q-31 0 -52.5 22t-21.5 52v603q0 30 21.5 51.5t52.5 21.5q30 0 51.5 -21.5t21.5 -51.5v-286l281 334q19 25 52 25q28 0 47 -20.5t19 -46.5q0 -21 -13 -38
l-208 -251l222 -275q14 -22 14 -43z" />
    <glyph glyph-name="L" unicode="L" horiz-adv-x="568" 
d="M89.5 728.5q21.5 21.5 52.5 21.5t52.5 -21.5t21.5 -52.5v-537h254q28 0 48.5 -20.5t20.5 -49.5q0 -28 -20 -48.5t-49 -20.5h-277q-52 0 -88.5 36.5t-36.5 88.5v551q0 31 21.5 52.5z" />
    <glyph glyph-name="M" unicode="M" horiz-adv-x="933" 
d="M103.5 714q35.5 36 86.5 36q38 0 70 -22.5t45 -58.5l161 -417l165 419q13 36 43.5 57.5t68.5 21.5q50 0 85 -35t35 -84v-561q0 -29 -20 -49.5t-49 -20.5t-49.5 20.5t-20.5 49.5v502l-209 -532q-6 -18 -21.5 -29t-33.5 -11q-20 0 -35.5 11t-21.5 30l-196 534v-505
q0 -29 -20.5 -49.5t-49.5 -20.5t-49 20.5t-20 49.5v558q0 50 35.5 86z" />
    <glyph glyph-name="N" unicode="N" horiz-adv-x="771" 
d="M101 717q33 33 80 33q30 0 56 -14.5t41 -40.5l286 -456v442q0 29 20.5 49t49.5 20t49 -20t20 -49v-591q0 -38 -26 -64t-63 -26q-23 0 -43.5 12t-33.5 32l-330 524v-498q0 -29 -20.5 -49.5t-49.5 -20.5t-49 20.5t-20 49.5v568q0 46 33 79z" />
    <glyph glyph-name="O" unicode="O" horiz-adv-x="835" 
d="M220 36q-85 47 -131 133t-46 201v17q1 112 48.5 197t131.5 131.5t195 46.5q110 0 194 -46t131 -129.5t49 -194.5v-22q0 -115 -46 -201t-130 -133t-197 -47q-114 0 -199 47zM536.5 158q51.5 30 80 85t28.5 127v22q-1 68 -30 120.5t-80.5 82t-116.5 29.5q-67 0 -118 -29
t-80 -82t-30 -121v-22q0 -73 28 -127.5t80 -84.5t120 -30q67 0 118.5 30z" />
    <glyph glyph-name="P" unicode="P" horiz-adv-x="640" 
d="M546 695q63 -55 63 -174v-22q0 -107 -69.5 -159t-213.5 -52h-113v-218q0 -29 -20.5 -49.5t-49.5 -20.5t-49.5 20.5t-20.5 49.5v555q0 52 36.5 88.5t88.5 36.5h149q136 0 199 -55zM437.5 442q34.5 24 34.5 69v9q0 44 -33 66t-100 22h-126v-190h126q64 0 98.5 24z" />
    <glyph glyph-name="Q" unicode="Q" horiz-adv-x="828" 
d="M743.5 184q-41.5 -87 -108.5 -128l24 -39q7 -10 7 -23q0 -10 -5.5 -20t-14.5 -16q-10 -7 -23 -7q-12 0 -22 5t-16 15l-26 45q-34 -13 -72.5 -20t-72.5 -7q-109 0 -193.5 48.5t-131 135t-46.5 197.5v15q2 109 49 194.5t131 133.5t191 48q108 0 191.5 -48t130.5 -133
t49 -193v-16q0 -100 -41.5 -187zM499 249q24 0 38 -19l35 -54q33 35 53 88t20 107v16q-1 67 -30.5 121t-81 84.5t-119.5 30.5q-65 0 -116 -30.5t-79.5 -84.5t-29.5 -122v-16q0 -70 28.5 -125.5t79.5 -86.5t117 -31q11 0 33.5 3.5t39.5 8.5l-24 39q-8 11 -8 26q0 26 21 39
q11 6 23 6z" />
    <glyph glyph-name="R" unicode="R" horiz-adv-x="688" 
d="M616 70q0 -28 -20 -49t-49 -21q-21 0 -38 11t-25 31l-134 253h-138v-226q0 -28 -20.5 -48.5t-49.5 -20.5h-1q-29 0 -49.5 20.5t-20.5 48.5v556q0 34 17 62.5t46 45.5t62 17h155q266 0 266 -218v-12q0 -67 -30 -113t-88 -65l-26 -10l136 -231q7 -14 7 -31zM442 439.5
q34 24.5 34 72.5v13q0 93 -134 93h-130v-203h129q67 0 101 24.5z" />
    <glyph glyph-name="S" unicode="S" horiz-adv-x="656" 
d="M521 405.5q46 -22.5 73.5 -65t27.5 -111.5q0 -123 -87 -183t-225 -60q-87 0 -163.5 40.5t-101.5 137.5q-3 9 -3 19q0 25 18 43.5t44 18.5q19 0 34 -9.5t23 -26.5q12 -40 51 -67t112 -27q70 0 116 27t46 69q0 34 -21 53.5t-63 31.5t-124 26q-114 18 -178.5 64.5
t-64.5 144.5q0 108 73.5 169.5t201.5 61.5q96 0 160.5 -32.5t94.5 -95.5q9 -16 9 -33q0 -27 -19.5 -47.5t-48.5 -20.5h-2q-16 0 -30.5 7.5t-24.5 21.5q-14 33 -52 52t-88 19q-66 0 -102.5 -21t-36.5 -64q0 -26 20.5 -42t56 -26.5t109.5 -26.5l51 -11q68 -14 114 -36.5z" />
    <glyph glyph-name="T" unicode="T" horiz-adv-x="620" 
d="M38.5 629q-20.5 20 -20.5 49t20.5 50.5t49.5 21.5h444q29 0 49.5 -20.5t20.5 -48.5q0 -30 -20 -51t-50 -21h-150v-534q0 -31 -21.5 -53t-53.5 -22q-31 0 -52.5 21.5t-21.5 52.5l-1 535h-144q-29 0 -49.5 20z" />
    <glyph glyph-name="U" unicode="U" horiz-adv-x="743" 
d="M81.5 728.5q21.5 21.5 52.5 21.5q30 0 52 -21.5t22 -52.5v-371q0 -87 36.5 -130t134.5 -43q65 0 98.5 20.5t45 57.5t11.5 99v367q0 31 21.5 52.5t52.5 21.5h2q30 0 52 -21.5t22 -52.5v-388q0 -294 -305 -294q-153 0 -236 75.5t-83 214.5v392q0 31 21.5 52.5z" />
    <glyph glyph-name="V" unicode="V" horiz-adv-x="743" 
d="M36 673q0 31 22.5 54t55.5 23q24 0 44 -14t28 -37l201 -536l174 534q8 23 27.5 38t43.5 15q32 0 53 -22t21 -52q0 -11 -5 -26l-212 -568q-13 -37 -46 -59.5t-72 -22.5q-40 0 -72.5 23t-45.5 60l-212 564q-5 15 -5 26z" />
    <glyph glyph-name="W" unicode="W" horiz-adv-x="1132" 
d="M974.5 734.5q20.5 15.5 46.5 15.5q31 0 52.5 -22t21.5 -53q0 -10 -3 -21l-178 -579q-9 -34 -37 -54.5t-63 -20.5q-33 0 -60 19t-38 51l-152 434l-143 -431q-11 -32 -38.5 -52.5t-61.5 -20.5q-35 0 -62.5 21t-38.5 55l-180 580q-3 11 -3 21q0 30 21 51.5t52 21.5
q25 0 45 -15t27 -39l147 -499l149 487q8 30 33 48t56 18q30 0 55 -18.5t33 -47.5l154 -485l139 495q6 25 26.5 40.5z" />
    <glyph glyph-name="X" unicode="X" horiz-adv-x="751" 
d="M100 671q0 32 22 55.5t56 23.5q22 0 41 -11.5t29 -31.5l140 -241l140 245q9 18 26.5 28.5t37.5 10.5q31 0 51.5 -21t20.5 -50q0 -18 -9 -35l-164 -272l172 -252q12 -19 12 -42q0 -32 -22 -55t-55 -23q-21 0 -38.5 10t-28.5 27l-163 244l-156 -244q-10 -17 -27 -27
t-37 -10q-32 0 -53.5 22.5t-21.5 52.5q0 21 12 40l180 266l-155 251q-10 17 -10 39z" />
    <glyph glyph-name="Y" unicode="Y" horiz-adv-x="664" 
d="M55 678q0 29 21 50.5t52 21.5q20 0 37.5 -10.5t26.5 -29.5l150 -284l133 281q8 20 25.5 31.5t38.5 11.5q30 0 50 -21t20 -49q0 -20 -9 -34l-194 -347v-225q0 -30 -21.5 -52t-52.5 -22t-52.5 22t-21.5 52v225l-193 343q-10 17 -10 36z" />
    <glyph glyph-name="Z" unicode="Z" horiz-adv-x="648" 
d="M42 144.5q7 18.5 20 32.5l360 434h-296q-28 0 -48.5 20.5t-20.5 49.5t20.5 49t48.5 20h379q41 0 70.5 -29t29.5 -70t-27 -70l-372 -438h336q29 0 49.5 -21t20.5 -50v-1q0 -29 -20.5 -50t-49.5 -21h-401q-44 0 -75 31.5t-31 75.5q0 19 7 37.5z" />
    <glyph glyph-name="bracketleft" unicode="[" horiz-adv-x="392" 
d="M136 616q27 27 66 27h103q21 0 35.5 -14.5t14.5 -34.5q0 -21 -14.5 -35.5t-35.5 -14.5h-65v-608h65q21 0 35.5 -14.5t14.5 -34.5q0 -21 -14.5 -35.5t-35.5 -14.5h-103q-39 0 -66 27.5t-27 65.5v620q0 39 27 66z" />
    <glyph glyph-name="backslash" unicode="\" horiz-adv-x="409" 
d="M171 616l181 -695q1 -3 1 -10q0 -22 -26 -22h-57q-27 0 -33 25l-181 695q-1 3 -1 10q0 10 7 16t20 6h57q26 0 32 -25z" />
    <glyph glyph-name="bracketright" unicode="]" horiz-adv-x="391" 
d="M255.5 -135.5q-27.5 -27.5 -65.5 -27.5h-103q-21 0 -35.5 14.5t-14.5 35.5q0 20 14.5 34.5t35.5 14.5h64v608h-64q-21 0 -35.5 14.5t-14.5 35.5q0 20 14.5 34.5t35.5 14.5h103q38 0 65.5 -27t27.5 -66v-620q0 -38 -27.5 -65.5z" />
    <glyph glyph-name="underscore" unicode="_" horiz-adv-x="785" 
d="M720.5 24q-14.5 -13 -40.5 -13h-561q-27 0 -41.5 13t-14.5 38t14.5 38t41.5 13h561q27 0 41 -13t14 -38t-14.5 -38z" />
    <glyph glyph-name="grave" unicode="`" horiz-adv-x="141" 
d="M1 982q0 13 27 13h46q13 0 20.5 -7t7.5 -20l2 -11q1 -35 8 -71t20 -89q2 -8 2 -10q0 -9 -7 -14.5t-18 -5.5h-31q-23 0 -31 21q-19 55 -29 90.5t-13 75.5l-4 27v1z" />
    <glyph glyph-name="a" unicode="a" horiz-adv-x="591" 
d="M482 498.5q68 -51.5 68 -149.5v-284q0 -28 -19.5 -47.5t-47.5 -19.5q-27 0 -46 19t-20 46q-25 -31 -75.5 -52t-119.5 -21q-81 0 -134.5 39t-53.5 116q0 87 69 127.5t203 40.5h90v36q-6 88 -99 88q-32 0 -55 -13t-33 -35q-9 -12 -23 -19t-29 -7q-29 0 -47.5 20t-18.5 47
q0 33 27 51q29 33 76.5 51t105.5 18q114 0 182 -51.5zM396 227h-87q-60 0 -91.5 -15.5t-31.5 -55.5q0 -30 23.5 -46.5t63.5 -16.5q51 0 85.5 25.5t37.5 66.5v42z" />
    <glyph glyph-name="b" unicode="b" horiz-adv-x="633" 
d="M581 112.5q-34 -60.5 -89 -91.5t-119 -31q-47 0 -86.5 16t-67 41t-38.5 52l6 -26q0 -30 -21 -51.5t-51 -21.5t-51.5 21.5t-21.5 51.5v600q0 32 23 54.5t54 22.5q32 0 54.5 -22.5t22.5 -54.5v-224q23 42 70 71.5t113 29.5t119.5 -33t85 -96t31.5 -149v-14
q0 -85 -34 -145.5zM231.5 147.5q38.5 -40.5 95.5 -40.5q58 0 94.5 41.5t36.5 112.5v13q0 76 -37.5 115.5t-96.5 39.5q-60 0 -95.5 -45t-35.5 -109v-14q0 -73 38.5 -113.5z" />
    <glyph glyph-name="c" unicode="c" horiz-adv-x="563" 
d="M158 28q-63 38 -96 101.5t-33 137.5v29q0 64 34 122.5t99.5 95t154.5 36.5q59 0 110 -21.5t81 -58.5q24 -20 24 -50q0 -25 -17.5 -44.5t-45.5 -19.5q-16 0 -29.5 7t-22.5 19q-11 26 -37.5 41.5t-57.5 15.5q-62 0 -96 -45.5t-37 -105.5v-30q0 -73 36 -119t91 -46
q42 0 70 19t36 53q8 16 23 25t33 9h2q28 0 46.5 -19.5t18.5 -45.5q0 -27 -21 -47q-29 -47 -85 -72t-132 -25q-86 0 -149 38z" />
    <glyph glyph-name="d" unicode="d" horiz-adv-x="633" 
d="M49.5 421q31.5 63 85 96t119.5 33t113 -29.5t70 -71.5v224q0 32 22.5 54.5t54.5 22.5t54.5 -22.5t22.5 -54.5v-600q0 -30 -21.5 -51.5t-51.5 -21.5t-51 21.5t-21 51.5l6 26q-11 -27 -38.5 -52t-67 -41t-86.5 -16q-64 0 -119 31t-89 91.5t-34 145.5v14q0 86 31.5 149z
M404.5 384q-35.5 45 -95.5 45q-59 0 -96.5 -39.5t-37.5 -115.5v-13q0 -71 36.5 -112.5t94.5 -41.5q57 0 95.5 40.5t38.5 113.5v14q0 64 -35.5 109z" />
    <glyph glyph-name="e" unicode="e" horiz-adv-x="623" 
d="M167 24.5q-64 34.5 -99 97.5t-35 145q0 86 36 150t100 98.5t147 34.5q116 0 189.5 -66.5t84.5 -180.5q4 -32 -18 -56t-55 -24h-327q1 -62 35.5 -94.5t94.5 -32.5q38 0 72 16t56 54q20 18 43 18q29 0 46.5 -19.5t17.5 -45.5q0 -17 -8.5 -31.5t-25.5 -23.5q-30 -36 -84 -55
t-122 -19q-84 0 -148 34.5zM413 404.5q-32 38.5 -97 38.5q-59 0 -91.5 -37.5t-34.5 -92.5h255q0 53 -32 91.5z" />
    <glyph glyph-name="f" unicode="f" horiz-adv-x="400" 
d="M33 454.5q-13 14.5 -13 33.5v3q0 19 13 33t31 16l26 1v25q0 94 54 139.5t143 45.5q25 0 52 -5q19 -2 32 -16.5t12 -33.5v-14q0 -20 -15 -34.5t-35 -13.5q-8 4 -17 4q-35 0 -54.5 -18.5t-19.5 -53.5v-25h91q21 0 36 -15.5t15 -36.5t-15 -36t-36 -15h-91v-362
q0 -31 -22 -53.5t-53 -22.5h-1q-31 0 -53.5 22.5t-22.5 53.5v362h-26q-18 2 -31 16.5z" />
    <glyph glyph-name="g" unicode="g" horiz-adv-x="643" 
d="M557.5 533.5q20.5 -20.5 20.5 -49.5v-435q0 -70 -32.5 -124.5t-95.5 -86t-151 -31.5q-70 0 -120 20t-81 51q-29 19 -29 53q0 25 18 44.5t46 19.5q31 0 50 -24q11 -27 44 -43.5t76 -16.5q52 0 87.5 34t35.5 104v61q-22 -34 -64 -56t-98 -22t-109.5 29t-87.5 85.5
t-34 135.5v18q1 74 32 130.5t84.5 88t122.5 31.5q41 0 77 -15.5t59.5 -39.5t30.5 -49v38q0 29 20 49.5t49 20.5t49.5 -20.5zM401 401.5q-36 38.5 -93 38.5t-94.5 -37t-40.5 -100l-1 -21q0 -65 35.5 -105t96.5 -40q59 0 97 37.5t38 107.5v20q-2 61 -38 99.5z" />
    <glyph glyph-name="h" unicode="h" horiz-adv-x="673" 
d="M549 498.5q55 -51.5 55 -147.5v-275q0 -31 -22 -53.5t-54 -22.5q-31 0 -53.5 22.5t-22.5 53.5v243q0 53 -29.5 81.5t-83.5 28.5q-55 0 -88 -33.5t-33 -86.5v-233q0 -31 -22.5 -53.5t-54.5 -22.5q-31 0 -53.5 22.5t-22.5 53.5v597q0 32 22.5 54.5t54.5 22.5t54.5 -22.5
t22.5 -54.5v-226q24 50 73.5 76.5t110.5 26.5q91 0 146 -51.5z" />
    <glyph glyph-name="i" unicode="i" horiz-adv-x="281" 
d="M78.5 755.5q25.5 26.5 62.5 26.5t62.5 -26.5t25.5 -63.5q0 -36 -25.5 -62t-62.5 -26t-62.5 26t-25.5 62q0 37 25.5 63.5zM86.5 518q22.5 22 53.5 22h1q32 0 54 -22t22 -54v-388q0 -31 -22 -53.5t-54 -22.5h-1q-31 0 -53.5 22.5t-22.5 53.5v388q0 32 22.5 54z" />
    <glyph glyph-name="j" unicode="j" horiz-adv-x="268" 
d="M70.5 644q-25.5 26 -25.5 63q0 35 25.5 60.5t61.5 25.5t61.5 -25.5t25.5 -60.5q0 -37 -25 -63t-62 -26q-36 0 -61.5 26zM79 532.5q22 21.5 53 21.5q32 0 54 -21.5t22 -52.5v-501q0 -68 -43.5 -103.5t-132.5 -43.5q-25 -2 -43 14.5t-18 41.5q0 18 11 33t29 21q24 5 35 21
t11 44v473q0 31 22 52.5z" />
    <glyph glyph-name="k" unicode="k" horiz-adv-x="532" 
d="M526 70q0 -28 -20 -49t-50 -21q-19 0 -35.5 10t-26.5 28l-122 161l-54 -63v-59q0 -32 -22 -54.5t-54 -22.5t-54.5 22.5t-22.5 54.5v603q0 31 22.5 53.5t54.5 22.5t54 -22t22 -54v-379l179 213q8 12 22 19t30 7q27 0 45.5 -19.5t18.5 -44.5q0 -19 -12 -36l-132 -154
l146 -178q11 -16 11 -38z" />
    <glyph glyph-name="l" unicode="l" horiz-adv-x="275" 
d="M84.5 22.5q-22.5 22.5 -22.5 53.5v604q0 32 22.5 54t53.5 22t53 -22.5t22 -53.5v-604q0 -31 -22 -53.5t-53 -22.5t-53.5 22.5z" />
    <glyph glyph-name="m" unicode="m" horiz-adv-x="1028" 
d="M914.5 500.5q55.5 -49.5 55.5 -145.5v-278q0 -31 -22.5 -54t-54.5 -23q-31 0 -54 23t-23 54v240q0 118 -101 118q-56 0 -86 -32.5t-31 -84.5v-241q0 -31 -22.5 -54t-54.5 -23h-1q-31 0 -54 23t-23 54v240q0 58 -27.5 88t-77.5 30q-55 0 -86 -34t-31 -88v-236
q0 -31 -22.5 -54t-54.5 -23h-2q-31 0 -54 23t-23 54v389q0 31 22 52.5t52 21.5h1q30 0 52 -21.5t22 -52.5v-26q20 45 71.5 77.5t108.5 32.5q73 0 118 -25t64 -82q22 56 74.5 81.5t115.5 25.5q93 0 148.5 -49.5z" />
    <glyph glyph-name="n" unicode="n" horiz-adv-x="671" 
d="M557.5 497.5q55.5 -52.5 55.5 -142.5v-277q0 -32 -23 -55t-55 -23h-1q-32 0 -54.5 23t-22.5 55v240q0 55 -30.5 86.5t-83.5 31.5t-87.5 -35.5t-34.5 -87.5v-235q0 -32 -22.5 -55t-54.5 -23q-33 0 -56 23t-23 55v387q0 31 22 53t53 22t53 -22t22 -53v-28q31 59 83.5 86
t109.5 27q94 0 149.5 -52.5z" />
    <glyph glyph-name="o" unicode="o" horiz-adv-x="636" 
d="M468.5 514.5q64.5 -35.5 99 -97.5t36.5 -139v-14q0 -54 -23.5 -116t-87.5 -109.5t-175 -47.5q-86 0 -150.5 34t-99.5 96t-35 143v16q1 80 37.5 141t100.5 95t148 34q85 0 149.5 -35.5zM408 395q-33 44 -89 44q-62 0 -92.5 -46.5t-32.5 -112.5v-16q0 -75 33 -117.5
t92 -42.5q60 0 92 41t32 119v16q-2 71 -35 115z" />
    <glyph glyph-name="p" unicode="p" horiz-adv-x="662" 
d="M277.5 515.5q50.5 34.5 118.5 34.5q66 0 119.5 -32.5t84 -94.5t30.5 -148v-17q0 -79 -29 -139.5t-84.5 -94.5t-132.5 -35q-58 0 -103.5 28.5t-63.5 64.5v-210q0 -31 -22.5 -53.5t-54.5 -22.5q-31 0 -53 22t-22 54v597q0 29 21 50t50 21q30 0 51 -21t21 -50v-40
q19 52 69.5 86.5zM251 393q-38 -42 -38 -116v-22q0 -63 33.5 -107.5t97.5 -44.5q57 0 94 39t37 113v18q0 72 -35 117t-95 45q-56 0 -94 -42z" />
    <glyph glyph-name="q" unicode="q" horiz-adv-x="662" 
d="M476 519q21 21 50 21t50 -21t21 -50v-597q0 -32 -22 -54t-53 -22t-53.5 22t-22.5 54v210q-19 -36 -64 -64.5t-103 -28.5q-77 1 -132.5 35t-84.5 94.5t-29 139.5v17q0 86 30.5 148t83.5 94.5t120 32.5q68 0 118 -34.5t70 -86.5v40q0 29 21 50zM222 390q-35 -45 -35 -117
v-18q0 -74 37 -113t94 -39q64 0 97.5 44.5t33.5 107.5v22q0 74 -38 116t-94 42q-60 0 -95 -45z" />
    <glyph glyph-name="r" unicode="r" horiz-adv-x="432" 
d="M245.5 463.5q20.5 24.5 54.5 42.5q20 20 48 20q27 0 47.5 -18.5t20.5 -48.5q0 -25 -16 -43.5t-40 -23.5q-65 -7 -102 -41t-37 -90v-183q0 -33 -23 -55.5t-55 -22.5t-55 22.5t-23 55.5v384q0 32 23 55t55 23t55 -23t23 -55v-41q4 18 24.5 42.5z" />
    <glyph glyph-name="s" unicode="s" horiz-adv-x="539" 
d="M443 35q-65 -45 -166 -45q-67 0 -119.5 16t-95.5 58q-27 20 -27 43q0 8 5 20q16 31 45 31q15 0 33 -10q41 -32 78.5 -46.5t65.5 -14.5q39 0 62.5 17t23.5 43t-25 40.5t-89 25.5q-107 18 -155.5 54t-48.5 108q0 57 32.5 98t87.5 60.5t121 16.5q47 -1 87 -17t71 -39
q39 -23 39 -54q0 -16 -14 -35q-15 -20 -43 -20q-21 0 -40 13q-21 18 -49.5 32t-57.5 14q-37 0 -58.5 -15.5t-21.5 -41.5q0 -25 25.5 -40t83.5 -25q113 -19 164 -54t51 -107q0 -81 -65 -126z" />
    <glyph glyph-name="t" unicode="t" horiz-adv-x="412" 
d="M343.5 453.5q-14.5 -14.5 -35.5 -14.5h-79v-270q0 -59 58 -59h33q23 0 39 -16t16 -39v-1q0 -22 -16 -38.5t-39 -16.5h-72q-83 0 -125 37t-42 120v283h-16q-19 0 -32.5 13.5t-13.5 32.5v8q0 20 13.5 33t32.5 13h16v44q0 30 21.5 51.5t52.5 21.5q30 0 52 -21.5t22 -51.5
v-44h79q21 0 35.5 -14.5t14.5 -34.5v-1q0 -21 -14.5 -35.5z" />
    <glyph glyph-name="u" unicode="u" horiz-adv-x="666" 
d="M113 40.5q-59 50.5 -59 145.5v276q0 32 23 55t55 23q33 0 56 -23t23 -55v-244q0 -54 28.5 -83.5t82.5 -29.5q56 0 89.5 34.5t33.5 88.5v234q0 32 23 55t55 23t55 -23t23 -55v-392q0 -29 -20.5 -49.5t-49.5 -20.5t-49.5 20.5t-20.5 49.5v28q-21 -55 -75.5 -81.5
t-119.5 -26.5q-94 0 -153 50.5z" />
    <glyph glyph-name="v" unicode="v" horiz-adv-x="611" 
d="M466 528q17 12 38 12q28 0 47.5 -19.5t19.5 -46.5q0 -11 -5 -24l-147 -372q-13 -35 -44 -56.5t-69 -21.5q-37 0 -67.5 21t-44.5 56l-144 361q-5 11 -5 27q0 31 21.5 53t53.5 22q24 0 43.5 -13.5t27.5 -36.5l124 -327l127 333q7 20 24 32z" />
    <glyph glyph-name="w" unicode="w" horiz-adv-x="949" 
d="M799.5 527q17.5 13 39.5 13q28 0 47.5 -20t19.5 -47q0 -13 -4 -22l-133 -376q-12 -34 -41 -54.5t-65 -20.5q-38 0 -68 23t-40 59l-81 268l-83 -268q-10 -36 -40 -59t-68 -23q-36 0 -65.5 20.5t-40.5 54.5l-126 364q-4 12 -4 25q0 31 21.5 53.5t53.5 22.5q25 0 45 -15
t28 -39l99 -323l88 299q9 34 37.5 56t63.5 22q36 0 64.5 -22t37.5 -57l84 -298l106 330q7 21 24.5 34z" />
    <glyph glyph-name="x" unicode="x" horiz-adv-x="506" 
d="M36 466q0 29 21.5 51.5t52.5 22.5q18 0 34 -8.5t26 -24.5l95 -133l97 138q8 13 22 20.5t30 7.5q28 0 46 -19t18 -45q0 -21 -12 -37l-115 -156l125 -169q14 -20 14 -42q0 -29 -21 -50.5t-52 -21.5q-18 0 -33.5 8.5t-26.5 23.5l-111 151l-110 -155q-10 -13 -24 -20.5
t-30 -7.5q-28 0 -46.5 19.5t-18.5 45.5q0 21 11 36l128 176l-107 149q-13 19 -13 40z" />
    <glyph glyph-name="y" unicode="y" horiz-adv-x="589" 
d="M445 528q17 12 38 12q28 0 47 -19.5t19 -46.5q0 -12 -4 -23l-231 -581q-8 -21 -26.5 -33.5t-40.5 -12.5q-30 0 -51 21.5t-21 51.5q0 12 4 23l41 105l-172 418q-5 15 -5 26q0 29 20.5 50t50.5 21q23 0 41.5 -13.5t25.5 -35.5l118 -323l122 328q7 20 24 32z" />
    <glyph glyph-name="z" unicode="z" horiz-adv-x="552" 
d="M52 133l273 297h-215q-23 0 -39 16t-16 39t16 39t39 16h329q32 0 55.5 -23.5t23.5 -56.5q0 -32 -21 -53l-262 -297h215q23 0 39.5 -16t16.5 -39t-16.5 -39t-39.5 -16h-342q-32 0 -55 23t-23 56q0 30 22 54z" />
    <glyph glyph-name="braceleft" unicode="{" horiz-adv-x="394" 
d="M350 -148q-16 -15 -38 -14q-80 4 -123 40.5t-43 129.5v82q0 38 -12.5 57.5t-41.5 26.5q-20 8 -32.5 26t-12.5 40t12 39.5t32 24.5q30 8 42.5 28t12.5 59v81q0 93 43 129.5t123 40.5q22 1 38 -14t16 -38q0 -17 -10.5 -31.5t-27.5 -18.5q-30 -6 -41 -26t-10 -59v-96
q-1 -42 -24.5 -70.5t-83.5 -42.5v-12q60 -13 83.5 -42t24.5 -71v-95q-1 -39 10 -59t41 -27q17 -4 27.5 -18t10.5 -31v-1q0 -23 -16 -38z" />
    <glyph glyph-name="bar" unicode="|" horiz-adv-x="215" 
d="M36 726q24 24 69 24h5q45 0 69 -24t24 -69v-564q0 -45 -24 -69t-69 -24h-5q-45 0 -69 24t-24 69v564q0 45 24 69z" />
    <glyph glyph-name="braceright" unicode="}" horiz-adv-x="394" 
d="M38.5 -78q10.5 14 27.5 18q30 7 41 27t10 59v96q1 41 24.5 70t83.5 43v11q-60 14 -83.5 42.5t-24.5 70.5v96q1 39 -10 59t-41 26q-17 4 -27.5 18.5t-10.5 31.5q0 23 16 38.5t38 14.5q80 -4 123 -41t43 -130v-80q0 -39 12.5 -59.5t42.5 -27.5q20 -8 32 -25.5t12 -39.5
t-12.5 -39.5t-32.5 -25.5q-29 -7 -41.5 -27t-12.5 -58v-81q0 -94 -43 -130.5t-123 -40.5q-23 -1 -38.5 14.5t-15.5 37.5v1q0 17 10.5 31z" />
    <glyph glyph-name="asciitilde" unicode="~" horiz-adv-x="855" 
d="M146 334q-21 0 -34 21q-11 17 -11 35q0 27 25 48l153 134q31 -66 93.5 -94t136.5 -28q40 0 88 11t86 27q18 7 34 7q33 0 34 -38l1 -21q0 -29 -8 -44.5t-30 -26.5q-42 -23 -99 -36.5t-106 -13.5q-75 0 -135 24t-115 74l-69 -58q-22 -21 -44 -21z" />
    <glyph glyph-name="exclamdown" unicode="&#xa1;" horiz-adv-x="316" 
d="M208 728q21 -21 21 -51q0 -29 -21 -50t-50 -21q-30 0 -51 21t-21 50q0 30 21 51t51 21q29 0 50 -21zM200 521q15 -18 16 -51l8 -410q1 -35 -16 -53.5t-50 -18.5t-50 18.5t-16 53.5l8 410q1 33 16 51t42 18t42 -18z" />
    <glyph glyph-name="cent" unicode="&#xa2;" horiz-adv-x="597" 
d="M542.5 185q17.5 -14 17.5 -36q0 -16 -12 -36q-23 -53 -76.5 -84.5t-129.5 -37.5v-59q0 -14 -8 -21.5t-22 -7.5q-13 0 -21 7.5t-8 21.5v59q-79 5 -136.5 44t-87.5 100t-30 132v29q0 60 30 115.5t87.5 93t136.5 44.5v43q0 14 8 21.5t21 7.5q14 0 22 -7.5t8 -21.5v-43
q56 -4 102.5 -27.5t75.5 -61.5q28 -27 28 -57q0 -20 -14.5 -33.5t-39.5 -13.5q-32 0 -49 8.5t-38 27.5q-8 17 -25.5 29t-39.5 16v-341q21 5 36 17t20 30q15 8 36 27q17 15 30.5 22t34.5 7q26 0 43.5 -14zM214.5 154q25.5 -43 68.5 -56v335q-44 -13 -68 -54.5t-26 -90.5v-30
q0 -61 25.5 -104z" />
    <glyph glyph-name="sterling" unicode="&#xa3;" horiz-adv-x="900" 
 />
    <glyph glyph-name="currency" unicode="&#xa4;" horiz-adv-x="612" 
d="M534.5 234q-19.5 -53 -58.5 -88l49 -88q4 -7 4 -15t-5.5 -14t-14.5 -8l-24 -8q-8 -2 -11 -2q-17 0 -26 17l-44 78q-39 -16 -90 -16q-64 0 -113 24l-46 -86q-9 -17 -25 -17q-3 0 -11 2l-25 8q-20 5 -20 21q0 6 5 16l56 105q-61 67 -61 189q0 101 45 168l-71 126
q-4 7 -4 15t5.5 14t14.5 8l25 8q8 2 11 2q16 0 25 -17l54 -97q62 34 135 34q63 0 120 -26l47 89q9 17 25 17q3 0 11 -2l25 -8q19 -4 19 -21q0 -9 -4 -16l-60 -113q28 -33 42.5 -79.5t14.5 -101.5q0 -65 -19.5 -118zM394 236.5q26 45.5 26 115.5q0 71 -26 116t-80 45
q-55 0 -82.5 -46t-27.5 -115q0 -72 28.5 -116.5t81.5 -44.5q54 0 80 45.5z" />
    <glyph glyph-name="yen" unicode="&#xa5;" horiz-adv-x="627" 
d="M471 256q13 0 20.5 -7.5t7.5 -21.5v-11q0 -28 -28 -28h-80v-30h80q13 0 20.5 -7.5t7.5 -21.5v-5q0 -13 -7.5 -20.5t-20.5 -7.5h-80v-69q0 -13 -7.5 -20.5t-20.5 -7.5h-98q-28 0 -28 28v69h-86q-13 0 -20.5 7.5t-7.5 20.5v5q0 13 7.5 21t20.5 8h86v30h-86q-13 0 -20.5 7.5
t-7.5 20.5v11q0 13 7.5 21t20.5 8h59l27 11l-202 381q-5 10 -5 15q0 8 6.5 13t18.5 5h101q23 0 32 -22l132 -301l126 301q8 22 33 22h94q11 0 17.5 -5t6.5 -13q0 -5 -4 -15l-202 -382v-10h80z" />
    <glyph glyph-name="brokenbar" unicode="&#xa6;" horiz-adv-x="215" 
d="M36 1034.5q24 23.5 69 23.5h5q45 0 69 -23.5t24 -69.5v-257q0 -45 -24 -69t-69 -24h-5q-45 0 -69 24t-24 69v257q0 46 24 69.5zM36 433q24 24 69 24h5q45 0 69 -24t24 -69v-271q0 -45 -24 -69t-69 -24h-5q-45 0 -69 24t-24 69v271q0 45 24 69z" />
    <glyph glyph-name="dieresis" unicode="&#xa8;" horiz-adv-x="255" 
d="M-8.5 785.5q-19.5 19.5 -19.5 45.5q0 27 19.5 46.5t45.5 19.5q28 0 47.5 -19.5t19.5 -46.5q0 -26 -19.5 -45.5t-47.5 -19.5q-26 0 -45.5 19.5zM184.5 785.5q-19.5 19.5 -19.5 45.5q0 27 19.5 46.5t46.5 19.5t46.5 -19.5t19.5 -46.5q0 -26 -19.5 -45.5t-46.5 -19.5
t-46.5 19.5z" />
    <glyph glyph-name="copyright" unicode="&#xa9;" horiz-adv-x="938" 
d="M856.5 428q31.5 -77 31.5 -160q0 -84 -31.5 -161t-90.5 -137q-60 -59 -136.5 -90.5t-160.5 -31.5t-161 31.5t-136 90.5q-59 60 -90.5 137t-31.5 161q0 83 31.5 160t90.5 137q59 59 136 90.5t161 31.5t160.5 -31.5t136.5 -90.5q59 -60 90.5 -137zM809 127.5
q28 67.5 28 140.5t-28 140t-80 120q-53 52 -120 80t-140 28t-140.5 -28t-119.5 -80q-52 -53 -80 -120t-28 -140t28 -140.5t80 -120.5q52 -51 119.5 -79.5t140.5 -28.5t140 28t120 80q52 53 80 120.5zM317.5 28q-63.5 38 -96.5 101.5t-33 137.5v29q0 64 34 122.5t99.5 95
t154.5 36.5q64 0 117.5 -24t85.5 -66q28 -27 28 -57q0 -20 -14.5 -33.5t-39.5 -13.5q-32 0 -49 8.5t-37 27.5q-11 21 -34.5 34t-51.5 13q-62 0 -95.5 -45.5t-36.5 -105.5v-30q0 -73 35.5 -119t91.5 -46q30 0 52.5 13t29.5 37q12 7 23.5 16.5t14.5 11.5q16 15 28 22t25 7
q6 0 9 -1q26 -6 43.5 -19.5t17.5 -32.5q0 -14 -12 -34q-26 -59 -89 -91t-152 -32q-85 0 -148.5 38z" />
    <glyph glyph-name="guillemotleft" unicode="&#xab;" horiz-adv-x="443" 
d="M156 71l-115 166q-7 8 -7 20q0 10 7 18l114 163q11 17 33 17h19q11 0 17 -4.5t6 -12.5q0 -7 -6 -16l-114 -166l114 -170q6 -9 6 -16q0 -8 -6 -12.5t-17 -4.5h-19q-21 0 -32 18zM323 71l-115 166q-7 11 -7 19q0 9 7 19l114 163q13 17 34 17h18q11 0 17 -4.5t6 -11.5
q0 -8 -6 -17l-114 -166l114 -170q6 -9 6 -17q0 -7 -6 -11.5t-17 -4.5h-18q-22 0 -33 18z" />
    <glyph glyph-name="uni00AD" unicode="&#xad;" horiz-adv-x="360" 
d="M352.5 222.5q-14.5 -13.5 -40.5 -13.5h-178q-27 0 -41.5 13.5t-14.5 38.5q0 24 14.5 37t41.5 13h178q26 0 40.5 -12.5t14.5 -37.5t-14.5 -38.5z" />
    <glyph glyph-name="macron" unicode="&#xaf;" horiz-adv-x="482" 
d="M7.5 571.5q7.5 7.5 21.5 7.5h425q13 0 20.5 -8t7.5 -21v-45q0 -13 -7.5 -20.5t-20.5 -7.5h-425q-14 0 -21.5 7.5t-7.5 20.5v45q0 14 7.5 21.5z" />
    <glyph glyph-name="degree" unicode="&#xb0;" horiz-adv-x="322" 
d="M95.5 828.5q-30.5 17.5 -48 48t-17.5 66.5t17.5 66t48 47.5t65.5 17.5t65.5 -17.5t48 -47.5t17.5 -66t-17.5 -66.5t-48 -48t-65.5 -17.5t-65.5 17.5zM199.5 907.5q15.5 16.5 15.5 41.5q0 23 -15.5 38.5t-38.5 15.5t-38.5 -15.5t-15.5 -38.5q0 -25 15.5 -41.5t38.5 -16.5
t38.5 16.5z" />
    <glyph glyph-name="plusminus" unicode="&#xb1;" horiz-adv-x="611" 
d="M92.5 455q-14.5 13 -14.5 38t14.5 38t41.5 13h123v116q0 26 13 40.5t38 14.5q51 0 51 -56v-115h118q56 0 56 -51q0 -25 -14.5 -38t-41.5 -13h-118v-126q0 -55 -51 -55q-25 0 -38 14t-13 41v126h-123q-27 0 -41.5 13zM518.5 168q14.5 -13 14.5 -38t-14.5 -38.5
t-41.5 -13.5h-343q-27 0 -41.5 13.5t-14.5 38.5q0 24 14.5 37.5t41.5 13.5h343q27 0 41.5 -13z" />
    <glyph glyph-name="acute" unicode="&#xb4;" horiz-adv-x="141" 
d="M139 976q-5 -47 -15.5 -85.5t-29.5 -94.5q-8 -21 -31 -21h-31q-11 0 -18 5.5t-7 14.5q0 2 2 10q13 57 20 91t8 69l2 11q0 13 7.5 20t20.5 7h46q27 0 26 -27z" />
    <glyph glyph-name="paragraph" unicode="&#xb6;" horiz-adv-x="834" 
d="M164 261.5q-54 27.5 -83.5 78t-29.5 118.5q0 67 30 117.5t84 78t125 27.5h295v-589q0 -45 -20 -69t-57 -24q-38 0 -58 24t-20 69v142h-140q-72 0 -126 27.5zM649 23q-20 24 -20 69v496q0 45 20 69t58 24q37 0 57 -24t20 -69v-496q0 -45 -20 -69t-57 -24q-38 0 -58 24z
" />
    <glyph glyph-name="periodcentered" unicode="&#xb7;" horiz-adv-x="284" 
d="M99 180q-17 18 -17 44q0 24 17.5 40.5t42.5 16.5q24 0 42 -16.5t18 -40.5q0 -26 -17.5 -44t-42.5 -18q-26 0 -43 18z" />
    <glyph glyph-name="cedilla" unicode="&#xb8;" horiz-adv-x="252" 
d="M220 -146q33 -28 33 -62q0 -42 -30.5 -71.5t-72.5 -29.5h-123q-13 0 -20 7t-7 20v20q0 13 7 20t20 7h123q12 0 19.5 8t7.5 19t-7.5 19t-19.5 8h-116q-11 0 -17 5t-6 13q0 5 3 13q19 68 23 123q0 13 7 20t20 7h20q13 0 20 -7t6 -20q-4 -40 -14 -80l51 -3q40 -8 73 -36z
" />
    <glyph glyph-name="guillemotright" unicode="&#xbb;" horiz-adv-x="446" 
d="M99 53h-19q-11 0 -17 4.5t-6 12.5q0 7 6 16l115 170l-115 166q-6 9 -6 16q0 8 6 12.5t17 4.5h19q22 0 33 -17l115 -163q6 -9 6 -18q0 -11 -6 -20l-115 -166q-12 -18 -33 -18zM266 53h-18q-12 0 -18 4.5t-6 12.5q0 7 6 16l115 170l-115 166q-6 9 -6 16q0 8 6 12.5t17 4.5
h19q21 0 34 -17l114 -163q6 -9 6 -18q0 -11 -6 -20l-115 -166q-12 -18 -33 -18z" />
    <glyph glyph-name="questiondown" unicode="&#xbf;" horiz-adv-x="547" 
d="M335.5 631q20.5 -21 21.5 -51q0 -29 -21 -50t-51 -21q-28 0 -50 20.5t-22 48.5q0 30 21.5 52t50.5 22q30 0 50.5 -21zM319 291q-18 -30 -56 -56q-40 -28 -57.5 -48.5t-17.5 -47.5q0 -33 23 -54.5t57 -21.5q29 0 50.5 16t29.5 42q8 13 21.5 20.5t29.5 7.5q27 0 44.5 -18.5
t17.5 -42.5q0 -23 -16 -40q-24 -43 -71 -67t-106 -24q-97 0 -158 46.5t-61 128.5q0 50 25 85.5t77 69.5q43 27 56 40.5t15 35.5l2 10q0 23 17 40t40 17q25 0 42 -17t17 -41l-1 -8q-2 -43 -20 -73z" />
    <glyph glyph-name="Agrave" unicode="&#xc0;" horiz-adv-x="760" 
d="M291.5 1038q8.5 4 21.5 4h43q12 0 20 -7.5t8 -19.5l3 -19q2 -32 8 -61t18 -82q1 -3 1 -8q0 -13 -8.5 -22t-22.5 -9h-28q-16 0 -23 15q-3 7 -14.5 41t-20 68t-10.5 64l-3 26q-1 6 7.5 10zM42 72q0 -30 21 -51t51 -21q23 0 41.5 13.5t26.5 36.5l36 100h299l30 -93
q8 -25 28 -41t45 -16q33 0 56 23t23 55q0 13 -4 25l-197 558q-13 40 -48 64.5t-77 24.5t-76.5 -24t-48.5 -64l-202 -566q-4 -11 -4 -24zM486 271h-234l114 343z" />
    <glyph glyph-name="Aacute" unicode="&#xc1;" horiz-adv-x="760" 
d="M465 1040.5q12 -8.5 11 -21.5q-5 -46 -15 -83.5t-29 -91.5q-9 -23 -35 -23q-21 0 -33.5 12.5t-12.5 31.5q0 8 1 12q19 80 24 144q0 12 12 20t29 8h17q19 0 31 -8.5zM42 72q0 -30 21 -51t51 -21q23 0 41.5 13.5t26.5 36.5l36 100h299l30 -93q8 -25 28 -41t45 -16
q33 0 56 23t23 55q0 13 -4 25l-197 558q-13 40 -48 64.5t-77 24.5t-76.5 -24t-48.5 -64l-202 -566q-4 -11 -4 -24zM486 271h-234l114 343z" />
    <glyph glyph-name="Acircumflex" unicode="&#xc2;" horiz-adv-x="760" 
d="M235.5 843q-5.5 7 -5.5 18q0 14 9 29l69 89q6 11 20 11h97q12 0 19 -10l70 -88q12 -16 12 -33q0 -10 -5.5 -16.5t-14.5 -6.5h-35q-13 0 -20 9l-71 87l-75 -87q-7 -9 -19 -9h-35q-10 0 -15.5 7zM42 72q0 -30 21 -51t51 -21q23 0 41.5 13.5t26.5 36.5l36 100h299l30 -93
q8 -25 28 -41t45 -16q33 0 56 23t23 55q0 13 -4 25l-197 558q-13 40 -48 64.5t-77 24.5t-76.5 -24t-48.5 -64l-202 -566q-4 -11 -4 -24zM486 271h-234l114 343z" />
    <glyph glyph-name="Atilde" unicode="&#xc3;" horiz-adv-x="760" 
d="M254 844q-8 0 -14.5 6.5t-7.5 16.5l-3 12q-2 11 2 21t14 16l41 27q7 6 16 6q10 0 21 -8q16 -11 40 -19t48 -8q26 0 65 16q12 4 25 4q26 0 29 -19l3 -10q2 -12 -2.5 -23t-14.5 -16q-24 -12 -54 -20t-51 -8q-61 0 -110 36l-36 -26q-6 -4 -11 -4zM42 72q0 -30 21 -51t51 -21
q23 0 41.5 13.5t26.5 36.5l36 100h299l30 -93q8 -25 28 -41t45 -16q33 0 56 23t23 55q0 13 -4 25l-197 558q-13 40 -48 64.5t-77 24.5t-76.5 -24t-48.5 -64l-202 -566q-4 -11 -4 -24zM486 271h-234l114 343z" />
    <glyph glyph-name="Adieresis" unicode="&#xc4;" horiz-adv-x="760" 
d="M242 852.5q-19 19.5 -19 45.5q0 27 19 46.5t45 19.5q28 0 47.5 -19.5t19.5 -46.5q0 -26 -20 -45.5t-47 -19.5q-26 0 -45 19.5zM434.5 852.5q-19.5 19.5 -19.5 45.5q0 27 19.5 46.5t46.5 19.5t46.5 -19.5t19.5 -46.5q0 -26 -19.5 -45.5t-46.5 -19.5t-46.5 19.5zM42 72
q0 -30 21 -51t51 -21q23 0 41.5 13.5t26.5 36.5l36 100h299l30 -93q8 -25 28 -41t45 -16q33 0 56 23t23 55q0 13 -4 25l-197 558q-13 40 -48 64.5t-77 24.5t-76.5 -24t-48.5 -64l-202 -566q-4 -11 -4 -24zM486 271h-234l114 343z" />
    <glyph glyph-name="Aring" unicode="&#xc5;" horiz-adv-x="760" 
d="M319 831q-23 23 -23 57q0 32 23 55.5t56 23.5q32 0 55.5 -23.5t23.5 -55.5q0 -33 -23 -56.5t-56 -23.5t-56 23zM398 859.5q9 9.5 9 24.5q0 14 -9 23t-23 9t-23 -9t-9 -23q0 -15 9 -24.5t23 -9.5t23 9.5zM42 72q0 -30 21 -51t51 -21q23 0 41.5 13.5t26.5 36.5l36 100h299
l30 -93q8 -25 28 -41t45 -16q33 0 56 23t23 55q0 13 -4 25l-197 558q-13 40 -48 64.5t-77 24.5t-76.5 -24t-48.5 -64l-202 -566q-4 -11 -4 -24zM486 271h-234l114 343z" />
    <glyph glyph-name="AE" unicode="&#xc6;" horiz-adv-x="948" 
d="M909.5 108q20.5 -18 20.5 -45q0 -28 -20.5 -46t-51.5 -18h-401v156h-242l-45 -156h-152l253 702l582 1q31 0 51.5 -18.5t20.5 -47.5t-20.5 -47.5t-51.5 -18.5h-242v-155h196q32 0 52 -17.5t20 -45.5q0 -27 -20.5 -45.5t-51.5 -18.5h-195v-162h246q31 0 51.5 -18zM454 540
h-128l-84 -271h213z" />
    <glyph glyph-name="Ccedilla" unicode="&#xc7;" horiz-adv-x="837" 
d="M745 269.5q21 -21.5 21 -50.5q0 -14 -6 -28q-32 -88 -108.5 -141t-187.5 -60l-1 -8q-4 -43 -12 -72l50 -2q40 -9 72.5 -37t32.5 -62q0 -42 -29.5 -71.5t-71.5 -29.5h-150v74h150q11 0 19 8t8 19t-8 19t-19 8h-150q30 70 35 145l1 10q-107 8 -185.5 56t-120.5 130.5
t-42 189.5v18q0 113 47.5 198t134.5 131t201 46q108 0 192.5 -48.5t126.5 -132.5q9 -16 9 -35q0 -29 -20 -50t-51 -21h-2q-19 0 -36 10.5t-27 27.5q-24 50 -73 80t-122 30q-107 0 -172 -61.5t-67 -165.5v-20q0 -75 29 -130.5t83 -86t127 -30.5q78 0 131 33t74 90q9 19 27 30
t38 11q31 0 52 -21.5z" />
    <glyph glyph-name="Egrave" unicode="&#xc8;" horiz-adv-x="626" 
d="M228.5 1052.5q8.5 3.5 22.5 3.5h43q12 0 20 -7.5t8 -19.5l3 -35q4 -37 13.5 -78t11.5 -49q1 -3 1 -9q0 -13 -8.5 -21.5t-21.5 -8.5h-29q-7 0 -13.5 4t-9.5 11q-2 7 -14 41t-20 68t-10 64l-4 26q-1 7 7.5 10.5zM104.5 713.5q36.5 36.5 88.5 36.5h296q28 0 48 -20t20 -48
v-1q0 -28 -20 -48t-48 -20h-274v-162h216q27 0 46 -19.5t19 -46.5t-19 -46.5t-46 -19.5h-216v-182h282q28 0 48 -20t20 -48v-1q0 -28 -20 -48t-48 -20h-304q-52 0 -88.5 36.5t-36.5 88.5v500q0 52 36.5 88.5z" />
    <glyph glyph-name="Eacute" unicode="&#xc9;" horiz-adv-x="626" 
d="M408.5 1041.5q8.5 -7.5 7.5 -19.5l-7 -45q-6 -34 -15 -63.5t-26 -77.5q-7 -15 -22 -15h-29q-13 0 -21.5 8.5t-8.5 20.5q0 7 1 10l8 38q12 50 17 90l3 34q0 12 8 19.5t20 7.5h43q13 0 21.5 -7.5zM104.5 713.5q36.5 36.5 88.5 36.5h296q28 0 48 -20t20 -48v-1
q0 -28 -20 -48t-48 -20h-274v-162h216q27 0 46 -19.5t19 -46.5t-19 -46.5t-46 -19.5h-216v-182h282q28 0 48 -20t20 -48v-1q0 -28 -20 -48t-48 -20h-304q-52 0 -88.5 36.5t-36.5 88.5v500q0 52 36.5 88.5z" />
    <glyph glyph-name="Ecircumflex" unicode="&#xca;" horiz-adv-x="626" 
d="M187.5 841.5q-5.5 7.5 -5.5 18.5q0 15 10 29l68 89q8 11 20 11h97q12 0 20 -10l70 -88q11 -16 11 -34q0 -10 -4.5 -16.5t-13.5 -6.5h-37q-11 0 -18 10l-73 87l-74 -87q-8 -10 -19 -10h-36q-10 0 -15.5 7.5zM104.5 713.5q36.5 36.5 88.5 36.5h296q28 0 48 -20t20 -48v-1
q0 -28 -20 -48t-48 -20h-274v-162h216q27 0 46 -19.5t19 -46.5t-19 -46.5t-46 -19.5h-216v-182h282q28 0 48 -20t20 -48v-1q0 -28 -20 -48t-48 -20h-304q-52 0 -88.5 36.5t-36.5 88.5v500q0 52 36.5 88.5z" />
    <glyph glyph-name="Edieresis" unicode="&#xcb;" horiz-adv-x="626" 
d="M185 852.5q-19 19.5 -19 45.5q0 27 19 46.5t46 19.5t46.5 -19.5t19.5 -46.5q0 -26 -19.5 -45.5t-46.5 -19.5t-46 19.5zM378 852.5q-19 19.5 -19 45.5q0 27 19 46.5t46 19.5t46.5 -19.5t19.5 -46.5q0 -26 -19.5 -45.5t-46.5 -19.5t-46 19.5zM104.5 713.5
q36.5 36.5 88.5 36.5h296q28 0 48 -20t20 -48v-1q0 -28 -20 -48t-48 -20h-274v-162h216q27 0 46 -19.5t19 -46.5t-19 -46.5t-46 -19.5h-216v-182h282q28 0 48 -20t20 -48v-1q0 -28 -20 -48t-48 -20h-304q-52 0 -88.5 36.5t-36.5 88.5v500q0 52 36.5 88.5z" />
    <glyph glyph-name="Igrave" unicode="&#xcc;" horiz-adv-x="264" 
d="M56.5 1029.5q8.5 3.5 22.5 3.5h43q12 0 20 -7.5t8 -19.5l3 -25q3 -47 25 -137q1 -3 1 -9q0 -13 -8.5 -21.5t-21.5 -8.5h-29q-7 0 -13.5 4t-9.5 11l-9 28q-15 42 -24 76t-11 69l-4 26q-1 7 7.5 10.5zM84.5 22.5q-22.5 22.5 -22.5 53.5v604q0 32 22.5 54t53.5 22t53 -22.5
t22 -53.5v-604q0 -31 -22 -53.5t-53 -22.5t-53.5 22.5z" />
    <glyph glyph-name="Iacute" unicode="&#xcd;" horiz-adv-x="264" 
d="M233.5 1031q8.5 -8 7.5 -19l-9 -58q-6 -30 -28 -95q-8 -22 -11 -33q-7 -15 -23 -15h-28q-13 0 -22 9t-9 22q0 5 1 8l6 27q14 60 18 89l5 46q0 12 8 19.5t20 7.5h43q13 0 21.5 -8zM84.5 22.5q-22.5 22.5 -22.5 53.5v604q0 32 22.5 54t53.5 22t53 -22.5t22 -53.5v-604
q0 -31 -22 -53.5t-53 -22.5t-53.5 22.5z" />
    <glyph glyph-name="Icircumflex" unicode="&#xce;" horiz-adv-x="264" 
d="M25.5 874q-5.5 7 -5.5 18q0 16 10 30l70 89q7 10 19 10h96q13 0 19 -10l70 -87q12 -18 12 -34q0 -10 -5 -16.5t-14 -6.5h-36q-11 0 -19 9l-72 88l-75 -88q-7 -9 -18 -9h-36q-10 0 -15.5 7zM84.5 22.5q-22.5 22.5 -22.5 53.5v604q0 32 22.5 54t53.5 22t53 -22.5t22 -53.5
v-604q0 -31 -22 -53.5t-53 -22.5t-53.5 22.5z" />
    <glyph glyph-name="Idieresis" unicode="&#xcf;" horiz-adv-x="264" 
d="M-1.5 852.5q-19.5 19.5 -19.5 45.5q0 27 19.5 46.5t45.5 19.5q28 0 47.5 -19.5t19.5 -46.5q0 -26 -20 -45.5t-47 -19.5q-26 0 -45.5 19.5zM191 852.5q-19 19.5 -19 45.5q0 27 19 46.5t46 19.5t46.5 -19.5t19.5 -46.5q0 -26 -19.5 -45.5t-46.5 -19.5t-46 19.5zM84.5 22.5
q-22.5 22.5 -22.5 53.5v604q0 32 22.5 54t53.5 22t53 -22.5t22 -53.5v-604q0 -31 -22 -53.5t-53 -22.5t-53.5 22.5z" />
    <glyph glyph-name="Eth" unicode="&#xd0;" horiz-adv-x="736" 
d="M605.5 638.5q89.5 -95.5 93.5 -268.5q0 -113 -41.5 -197t-118 -129t-179.5 -45h-170q-52 0 -86 34t-34 86v198h-78q-5 0 -8 3t-3 8v72q0 5 3 8t8 3h79v203q0 52 34 86t86 34h169q156 0 245.5 -95.5zM492 533.5q-48 58.5 -134 58.5h-133v-181h88q5 0 8 -3t3 -8v-72
q0 -5 -3 -8t-8 -3h-88v-175h133q85 0 134.5 59t49.5 161q-2 113 -50 171.5z" />
    <glyph glyph-name="Ntilde" unicode="&#xd1;" horiz-adv-x="801" 
d="M270 849q-9 0 -15.5 4.5t-7.5 12.5l-5 20v4q0 16 11 21l68 46q6 -15 39 -29t66 -14q28 0 78 20q8 3 15 3q23 0 26 -21l5 -20v-5q0 -16 -11 -21q-22 -13 -56 -22.5t-57 -9.5q-61 0 -110 36l-22 -17q-11 -8 -24 -8zM101 717q33 33 80 33q30 0 56 -14.5t41 -40.5l286 -456
v442q0 29 20.5 49t49.5 20t49 -20t20 -49v-591q0 -38 -26 -64t-63 -26q-23 0 -43.5 12t-33.5 32l-330 524v-498q0 -29 -20.5 -49.5t-49.5 -20.5t-49 20.5t-20 49.5v568q0 46 33 79z" />
    <glyph glyph-name="Ograve" unicode="&#xd2;" horiz-adv-x="835" 
d="M339.5 1053q8.5 4 21.5 4h43q11 0 19.5 -8t8.5 -19l4 -30q3 -32 10.5 -68.5t9.5 -44.5q4 -15 5 -20q1 -3 1 -8q0 -13 -9 -21.5t-22 -8.5h-28q-17 0 -23 15q-21 60 -32.5 99.5t-12.5 72.5l-3 27q-1 6 7.5 10zM217 36.5q-88 47.5 -137 134t-49 199.5v17q1 111 51.5 196
t138 131.5t197.5 46.5t196.5 -46t137 -130t52.5 -193v-22q0 -113 -49.5 -199.5t-137 -134t-198.5 -47.5q-114 0 -202 47.5zM570 207.5q45 71.5 45 162.5v21q-1 53 -21.5 104.5t-64.5 85.5t-111 34q-71 0 -115 -34t-63 -84.5t-20 -104.5v-22q0 -55 19.5 -108.5t64 -89.5
t114.5 -36q107 0 152 71.5z" />
    <glyph glyph-name="Oacute" unicode="&#xd3;" horiz-adv-x="835" 
d="M511.5 1043q8.5 -8 7.5 -20l-7 -46q-7 -37 -31 -110q-2 -5 -10 -29q-6 -15 -23 -15h-28q-13 0 -22 9t-9 22q0 5 1 8q20 85 25 125l4 37q0 11 8.5 19t19.5 8h43q13 0 21.5 -8zM217 36.5q-88 47.5 -137 134t-49 199.5v17q1 111 51.5 196t138 131.5t197.5 46.5t196.5 -46
t137 -130t52.5 -193v-22q0 -113 -49.5 -199.5t-137 -134t-198.5 -47.5q-114 0 -202 47.5zM570 207.5q45 71.5 45 162.5v21q-1 53 -21.5 104.5t-64.5 85.5t-111 34q-71 0 -115 -34t-63 -84.5t-20 -104.5v-22q0 -55 19.5 -108.5t64 -89.5t114.5 -36q107 0 152 71.5z" />
    <glyph glyph-name="Ocircumflex" unicode="&#xd4;" horiz-adv-x="835" 
d="M274.5 839q-5.5 7 -5.5 18q0 14 9 29l69 89q6 11 20 11h97q12 0 19 -10l70 -88q12 -16 12 -34q0 -10 -5 -16t-14 -6h-37q-12 0 -18 9l-72 87l-75 -87q-9 -9 -19 -9h-35q-10 0 -15.5 7zM217 36.5q-88 47.5 -137 134t-49 199.5v17q1 111 51.5 196t138 131.5t197.5 46.5
t196.5 -46t137 -130t52.5 -193v-22q0 -113 -49.5 -199.5t-137 -134t-198.5 -47.5q-114 0 -202 47.5zM570 207.5q45 71.5 45 162.5v21q-1 53 -21.5 104.5t-64.5 85.5t-111 34q-71 0 -115 -34t-63 -84.5t-20 -104.5v-22q0 -55 19.5 -108.5t64 -89.5t114.5 -36q107 0 152 71.5z
" />
    <glyph glyph-name="Otilde" unicode="&#xd5;" horiz-adv-x="835" 
d="M293 842q-18 0 -19 13l-4 18v4q0 12 11 20l73 51q5 -14 31.5 -27t53.5 -13q20 0 56 14q9 4 19 4q21 0 22 -16l4 -19l1 -5q0 -12 -10 -19q-19 -12 -46.5 -20.5t-45.5 -8.5q-48 0 -89 33l-29 -20q-13 -9 -28 -9zM217 36.5q-88 47.5 -137 134t-49 199.5v17q1 111 51.5 196
t138 131.5t197.5 46.5t196.5 -46t137 -130t52.5 -193v-22q0 -113 -49.5 -199.5t-137 -134t-198.5 -47.5q-114 0 -202 47.5zM570 207.5q45 71.5 45 162.5v21q-1 53 -21.5 104.5t-64.5 85.5t-111 34q-71 0 -115 -34t-63 -84.5t-20 -104.5v-22q0 -55 19.5 -108.5t64 -89.5
t114.5 -36q107 0 152 71.5z" />
    <glyph glyph-name="Odieresis" unicode="&#xd6;" horiz-adv-x="835" 
d="M266 852.5q-19 19.5 -19 45.5q0 27 19 46.5t45 19.5q28 0 47.5 -19.5t19.5 -46.5q0 -26 -20 -45.5t-47 -19.5q-26 0 -45 19.5zM458.5 852.5q-19.5 19.5 -19.5 45.5q0 27 19.5 46.5t46.5 19.5t46.5 -19.5t19.5 -46.5q0 -26 -19.5 -45.5t-46.5 -19.5t-46.5 19.5zM217 36.5
q-88 47.5 -137 134t-49 199.5v17q1 111 51.5 196t138 131.5t197.5 46.5t196.5 -46t137 -130t52.5 -193v-22q0 -113 -49.5 -199.5t-137 -134t-198.5 -47.5q-114 0 -202 47.5zM570 207.5q45 71.5 45 162.5v21q-1 53 -21.5 104.5t-64.5 85.5t-111 34q-71 0 -115 -34t-63 -84.5
t-20 -104.5v-22q0 -55 19.5 -108.5t64 -89.5t114.5 -36q107 0 152 71.5z" />
    <glyph glyph-name="multiply" unicode="&#xd7;" horiz-adv-x="585" 
d="M472 133q0 -17 -15 -34q-15 -18 -35 -18q-18 0 -40 17l-93 85l-83 -90q-19 -22 -40 -22q-17 0 -34 15q-19 16 -19 36t18 39l83 91l-85 78q-22 21 -22 41q0 17 15 34q18 19 37 19t39 -18l85 -79l80 87q19 22 40 22q18 0 34 -15q19 -16 19 -36q0 -19 -18 -39l-80 -87
l92 -85q22 -19 22 -41z" />
    <glyph glyph-name="Oslash" unicode="&#xd8;" horiz-adv-x="707" 
d="M617 132.5q-45 -86.5 -135 -121.5l12 -45q1 -3 1 -10q0 -12 -7 -20t-18 -8h-17q-8 0 -15.5 5.5t-9.5 14.5l-12 46q-33 -5 -62 -5q-154 0 -231.5 95.5t-77.5 256.5q0 124 47 210.5t140 120.5l-11 42q-1 3 -1 8q0 13 9 21.5t22 8.5h11q8 0 15.5 -5.5t9.5 -14.5l12 -44
q25 3 55 3q154 0 231 -95t77 -255q0 -122 -45 -208.5zM508 341q0 223 -154 223q-14 0 -21 -1l112 -417q63 54 63 195zM382 118l-114 421q-69 -49 -69 -198q0 -106 37.5 -165.5t117.5 -59.5q10 0 28 2z" />
    <glyph glyph-name="Ugrave" unicode="&#xd9;" horiz-adv-x="754" 
d="M312.5 1045q8.5 4 21.5 4h43q12 0 20 -7.5t8 -19.5q9 -79 29 -162q1 -3 1 -8q0 -13 -8.5 -22t-22.5 -9h-28q-7 0 -13.5 4t-9.5 11q-23 63 -33.5 105.5t-14.5 93.5q-1 6 7.5 10zM81.5 728.5q21.5 21.5 52.5 21.5q30 0 52 -21.5t22 -52.5v-371q0 -87 36.5 -130t134.5 -43
q65 0 98.5 20.5t45 57.5t11.5 99v367q0 31 21.5 52.5t52.5 21.5h2q30 0 52 -21.5t22 -52.5v-388q0 -294 -305 -294q-153 0 -236 75.5t-83 214.5v392q0 31 21.5 52.5z" />
    <glyph glyph-name="Uacute" unicode="&#xda;" horiz-adv-x="754" 
d="M471.5 1033q8.5 -8 7.5 -19q-4 -44 -14 -80.5t-27 -85.5q-2 -4 -7 -20q-7 -15 -22 -15h-29q-13 0 -21.5 8.5t-8.5 20.5q0 7 1 10q12 52 17.5 83.5t10.5 78.5q0 12 8 19.5t20 7.5h43q13 0 21.5 -8zM81.5 728.5q21.5 21.5 52.5 21.5q30 0 52 -21.5t22 -52.5v-371
q0 -87 36.5 -130t134.5 -43q65 0 98.5 20.5t45 57.5t11.5 99v367q0 31 21.5 52.5t52.5 21.5h2q30 0 52 -21.5t22 -52.5v-388q0 -294 -305 -294q-153 0 -236 75.5t-83 214.5v392q0 31 21.5 52.5z" />
    <glyph glyph-name="Ucircumflex" unicode="&#xdb;" horiz-adv-x="754" 
d="M243.5 843q-5.5 7 -5.5 18q0 14 9 29l69 89q6 11 20 11h97q13 0 19 -10l70 -88q12 -16 12 -34q0 -10 -5 -16t-14 -6h-36q-11 0 -19 9l-72 87l-75 -87q-3 -4 -8 -6.5t-10 -2.5h-36q-10 0 -15.5 7zM81.5 728.5q21.5 21.5 52.5 21.5q30 0 52 -21.5t22 -52.5v-371
q0 -87 36.5 -130t134.5 -43q65 0 98.5 20.5t45 57.5t11.5 99v367q0 31 21.5 52.5t52.5 21.5h2q30 0 52 -21.5t22 -52.5v-388q0 -294 -305 -294q-153 0 -236 75.5t-83 214.5v392q0 31 21.5 52.5z" />
    <glyph glyph-name="Udieresis" unicode="&#xdc;" horiz-adv-x="754" 
d="M240 852.5q-19 19.5 -19 45.5q0 27 19 46.5t46 19.5t46.5 -19.5t19.5 -46.5q0 -26 -19.5 -45.5t-46.5 -19.5t-46 19.5zM433 852.5q-19 19.5 -19 45.5q0 27 19 46.5t46 19.5t46.5 -19.5t19.5 -46.5q0 -26 -19.5 -45.5t-46.5 -19.5t-46 19.5zM81.5 728.5
q21.5 21.5 52.5 21.5q30 0 52 -21.5t22 -52.5v-371q0 -87 36.5 -130t134.5 -43q65 0 98.5 20.5t45 57.5t11.5 99v367q0 31 21.5 52.5t52.5 21.5h2q30 0 52 -21.5t22 -52.5v-388q0 -294 -305 -294q-153 0 -236 75.5t-83 214.5v392q0 31 21.5 52.5z" />
    <glyph glyph-name="Yacute" unicode="&#xdd;" horiz-adv-x="698" 
d="M446.5 1031q8.5 -8 7.5 -20q-4 -43 -14 -79.5t-27 -85.5q-1 -3 -7 -20q-6 -15 -22 -15h-29q-13 0 -21.5 8.5t-8.5 20.5q0 7 1 10q12 52 17.5 83.5t10.5 78.5q0 11 8.5 19t19.5 8h43q13 0 21.5 -8zM55 678q0 29 21 50.5t52 21.5q20 0 37.5 -10.5t26.5 -29.5l150 -284
l133 281q8 20 25.5 31.5t38.5 11.5q30 0 50 -21t20 -49q0 -20 -9 -34l-194 -347v-225q0 -30 -21.5 -52t-52.5 -22t-52.5 22t-21.5 52v225l-193 343q-10 17 -10 36z" />
    <glyph glyph-name="Thorn" unicode="&#xde;" horiz-adv-x="647" 
d="M265 519q50 31 119 31q67 0 120 -32.5t83.5 -94.5t30.5 -148v-17q0 -79 -29 -139.5t-84.5 -94.5t-132.5 -35q-58 0 -103 28.5t-64 64.5v-214q0 -31 -20 -51.5t-51 -20.5q-39 0 -59.5 19.5t-20.5 52.5v810q0 31 20 51.5t51 20.5t51 -20.5t20 -51.5v-240q19 50 69 81z
M240 393q-38 -42 -38 -116v-22q0 -63 33.5 -107.5t97.5 -44.5q57 0 94 39t37 113v18q0 72 -35 117t-95 45q-56 0 -94 -42z" />
    <glyph glyph-name="germandbls" unicode="&#xdf;" horiz-adv-x="628" 
d="M206 7q-7 -7 -20 -7h-104q-13 0 -20 7t-7 20v654h293q106 0 163.5 -46t57.5 -132q0 -54 -27 -93t-74 -57q62 -22 94.5 -63.5t32.5 -100.5q0 -85 -64 -136t-168 -54h-47q-13 0 -20.5 7t-7.5 20v73q0 13 7 20t20 7h42q84 3 84 79q0 77 -89 80h-22q-13 0 -20 7t-7 20v73
q0 13 7 20t20 7h14q39 2 58 19t19 52q0 71 -85 71h-127l4 -527q0 -13 -7 -20z" />
    <glyph glyph-name="agrave" unicode="&#xe0;" horiz-adv-x="595" 
d="M193 823q-1 7 7.5 10.5t21.5 3.5h43q12 0 20 -7.5t8 -19.5q9 -80 29 -162q1 -3 1 -8q0 -13 -8.5 -22t-22.5 -9h-28q-7 0 -13.5 4t-9.5 11t-14.5 41t-20 68t-10.5 64zM482 498.5q68 -51.5 68 -149.5v-284q0 -28 -19.5 -47.5t-47.5 -19.5q-27 0 -46 19t-20 46
q-25 -31 -75.5 -52t-119.5 -21q-81 0 -134.5 39t-53.5 116q0 87 69 127.5t203 40.5h90v36q-6 88 -99 88q-32 0 -55 -13t-33 -35q-9 -12 -23 -19t-29 -7q-29 0 -47.5 20t-18.5 47q0 33 27 51q29 33 76.5 51t105.5 18q114 0 182 -51.5zM396 227h-87q-60 0 -91.5 -15.5
t-31.5 -55.5q0 -30 23.5 -46.5t63.5 -16.5q51 0 85.5 25.5t37.5 66.5v42z" />
    <glyph glyph-name="aacute" unicode="&#xe1;" horiz-adv-x="595" 
d="M265.5 627.5q-8.5 8.5 -8.5 21.5q0 6 1 9q12 52 17.5 83.5t10.5 78.5q0 11 8.5 19t19.5 8h43q13 0 21.5 -8t7.5 -20q-4 -41 -13.5 -77t-24.5 -82l-9 -26q-6 -15 -23 -15h-29q-13 0 -21.5 8.5zM482 498.5q68 -51.5 68 -149.5v-284q0 -28 -19.5 -47.5t-47.5 -19.5
q-27 0 -46 19t-20 46q-25 -31 -75.5 -52t-119.5 -21q-81 0 -134.5 39t-53.5 116q0 87 69 127.5t203 40.5h90v36q-6 88 -99 88q-32 0 -55 -13t-33 -35q-9 -12 -23 -19t-29 -7q-29 0 -47.5 20t-18.5 47q0 33 27 51q29 33 76.5 51t105.5 18q114 0 182 -51.5zM396 227h-87
q-60 0 -91.5 -15.5t-31.5 -55.5q0 -30 23.5 -46.5t63.5 -16.5q51 0 85.5 25.5t37.5 66.5v42z" />
    <glyph glyph-name="acircumflex" unicode="&#xe2;" horiz-adv-x="595" 
d="M162.5 643q-5.5 7 -5.5 18q0 15 10 29l68 90q8 10 20 10h97q13 0 20 -10l70 -87q11 -16 11 -34q0 -10 -4.5 -16.5t-13.5 -6.5h-38q-11 0 -17 9l-79 88l-68 -87q-8 -10 -20 -10h-35q-10 0 -15.5 7zM482 498.5q68 -51.5 68 -149.5v-284q0 -28 -19.5 -47.5t-47.5 -19.5
q-27 0 -46 19t-20 46q-25 -31 -75.5 -52t-119.5 -21q-81 0 -134.5 39t-53.5 116q0 87 69 127.5t203 40.5h90v36q-6 88 -99 88q-32 0 -55 -13t-33 -35q-9 -12 -23 -19t-29 -7q-29 0 -47.5 20t-18.5 47q0 33 27 51q29 33 76.5 51t105.5 18q114 0 182 -51.5zM396 227h-87
q-60 0 -91.5 -15.5t-31.5 -55.5q0 -30 23.5 -46.5t63.5 -16.5q51 0 85.5 25.5t37.5 66.5v42z" />
    <glyph glyph-name="atilde" unicode="&#xe3;" horiz-adv-x="613" 
d="M195 657v5q0 15 12 21l70 43q5 -14 31.5 -27t53.5 -13q21 0 55 14q9 4 20 4q19 0 22 -16l4 -19v-4q0 -15 -10 -20q-19 -11 -46 -20t-45 -9q-48 0 -89 33l-30 -18q-12 -7 -22 -7q-8 0 -14.5 4.5t-7.5 12.5zM482 498.5q68 -51.5 68 -149.5v-284q0 -28 -19.5 -47.5
t-47.5 -19.5q-27 0 -46 19t-20 46q-25 -31 -75.5 -52t-119.5 -21q-81 0 -134.5 39t-53.5 116q0 87 69 127.5t203 40.5h90v36q-6 88 -99 88q-32 0 -55 -13t-33 -35q-9 -12 -23 -19t-29 -7q-29 0 -47.5 20t-18.5 47q0 33 27 51q29 33 76.5 51t105.5 18q114 0 182 -51.5z
M396 227h-87q-60 0 -91.5 -15.5t-31.5 -55.5q0 -30 23.5 -46.5t63.5 -16.5q51 0 85.5 25.5t37.5 66.5v42z" />
    <glyph glyph-name="adieresis" unicode="&#xe4;" horiz-adv-x="595" 
d="M137 649.5q-19 19.5 -19 45.5q0 27 19 46.5t46 19.5t46.5 -19.5t19.5 -46.5q0 -26 -19.5 -45.5t-46.5 -19.5t-46 19.5zM330 649.5q-19 19.5 -19 45.5q0 27 19 46.5t46 19.5t46.5 -19.5t19.5 -46.5q0 -26 -19.5 -45.5t-46.5 -19.5t-46 19.5zM482 498.5q68 -51.5 68 -149.5
v-284q0 -28 -19.5 -47.5t-47.5 -19.5q-27 0 -46 19t-20 46q-25 -31 -75.5 -52t-119.5 -21q-81 0 -134.5 39t-53.5 116q0 87 69 127.5t203 40.5h90v36q-6 88 -99 88q-32 0 -55 -13t-33 -35q-9 -12 -23 -19t-29 -7q-29 0 -47.5 20t-18.5 47q0 33 27 51q29 33 76.5 51t105.5 18
q114 0 182 -51.5zM396 227h-87q-60 0 -91.5 -15.5t-31.5 -55.5q0 -30 23.5 -46.5t63.5 -16.5q51 0 85.5 25.5t37.5 66.5v42z" />
    <glyph glyph-name="aring" unicode="&#xe5;" horiz-adv-x="613" 
d="M228.5 630.5q-30.5 30.5 -30.5 73.5t30.5 73.5t73.5 30.5t73 -30.5t30 -73.5t-30 -73.5t-73 -30.5t-73.5 30.5zM272.5 731.5q-11.5 -11.5 -11.5 -29.5q0 -19 11.5 -31t29.5 -12q17 0 29 12t12 31q0 18 -12 29.5t-29 11.5q-18 0 -29.5 -11.5zM482 498.5
q68 -51.5 68 -149.5v-284q0 -28 -19.5 -47.5t-47.5 -19.5q-27 0 -46 19t-20 46q-25 -31 -75.5 -52t-119.5 -21q-81 0 -134.5 39t-53.5 116q0 87 69 127.5t203 40.5h90v36q-6 88 -99 88q-32 0 -55 -13t-33 -35q-9 -12 -23 -19t-29 -7q-29 0 -47.5 20t-18.5 47q0 33 27 51
q29 33 76.5 51t105.5 18q114 0 182 -51.5zM396 227h-87q-60 0 -91.5 -15.5t-31.5 -55.5q0 -30 23.5 -46.5t63.5 -16.5q51 0 85.5 25.5t37.5 66.5v42z" />
    <glyph glyph-name="ae" unicode="&#xe6;" horiz-adv-x="1029" 
d="M954 247q-22 -24 -54 -24h-328q1 -62 35.5 -94.5t94.5 -32.5q39 0 72.5 16t55.5 54q20 18 43 18q29 0 46.5 -19.5t17.5 -45.5q0 -17 -8.5 -31.5t-25.5 -23.5q-29 -36 -83 -55t-123 -19q-79 0 -141 31q-20 -23 -50 -23q-27 0 -46.5 19t-20.5 46q-24 -31 -75 -52t-120 -21
q-81 0 -134.5 39t-53.5 116q0 87 69.5 127.5t203.5 40.5h89q0 4 1 7l-1 29q-6 88 -99 88q-32 0 -55 -13t-33 -35q-9 -12 -22.5 -19t-29.5 -7q-29 0 -47.5 20t-18.5 46q0 15 7 29t21 23q29 33 76 51t106 18q60 0 109 -15t82 -45q74 60 184 60q116 0 189.5 -66.5t84.5 -180.5
q4 -32 -18 -56zM828 313q0 53 -32.5 91.5t-97.5 38.5q-59 0 -91.5 -37.5t-34.5 -92.5h256zM381 118.5q34 25.5 37 66.5l1 31l-2 11h-86q-60 0 -91 -15.5t-31 -55.5q0 -30 23.5 -46.5t63.5 -16.5q51 0 85 25.5z" />
    <glyph glyph-name="ccedilla" unicode="&#xe7;" horiz-adv-x="597" 
d="M526.5 179.5q18.5 -19.5 18.5 -45.5q0 -27 -21 -47q-25 -42 -74.5 -66.5t-114.5 -29.5l-2 -26q-4 -42 -12 -74h50q24 0 49 -14.5t40.5 -38t15.5 -46.5q0 -42 -29.5 -71.5t-71.5 -29.5h-122q-12 0 -20 8t-8 20v18q0 11 8 19.5t20 8.5h122q11 0 19 8t8 19t-8 19t-19 8h-150
q14 34 23 67.5t12 77.5l1 29q-72 10 -124.5 49.5t-80 98.5t-27.5 126v29q0 64 34 122.5t99.5 95t154.5 36.5q59 0 110 -21.5t81 -58.5q24 -20 24 -50q0 -25 -17.5 -44.5t-45.5 -19.5q-16 0 -29.5 7t-22.5 19q-11 26 -37.5 41.5t-57.5 15.5q-62 0 -96 -45.5t-37 -105.5v-30
q0 -73 36 -119t91 -46q42 0 70 19t36 53q8 16 23 25t33 9h2q28 0 46.5 -19.5z" />
    <glyph glyph-name="egrave" unicode="&#xe8;" horiz-adv-x="612" 
d="M225.5 839q8.5 4 21.5 4h43q12 0 20 -7.5t8 -19.5q9 -79 29 -162q1 -3 1 -8q0 -13 -8.5 -22t-22.5 -9h-28q-7 0 -13.5 4t-9.5 11q-23 63 -33.5 105.5t-14.5 93.5q-1 6 7.5 10zM167 24.5q-64 34.5 -99 97.5t-35 145q0 86 36 150t100 98.5t147 34.5q116 0 189.5 -66.5
t84.5 -180.5q4 -32 -18 -56t-55 -24h-327q1 -62 35.5 -94.5t94.5 -32.5q38 0 72 16t56 54q20 18 43 18q29 0 46.5 -19.5t17.5 -45.5q0 -17 -8.5 -31.5t-25.5 -23.5q-30 -36 -84 -55t-122 -19q-84 0 -148 34.5zM413 404.5q-32 38.5 -97 38.5q-59 0 -91.5 -37.5t-34.5 -92.5
h255q0 53 -32 91.5z" />
    <glyph glyph-name="eacute" unicode="&#xe9;" horiz-adv-x="612" 
d="M396.5 839q8.5 -8 7.5 -19q-4 -44 -14 -80.5t-27 -85.5q-1 -3 -7 -20q-7 -15 -22 -15h-29q-13 0 -21.5 8.5t-8.5 20.5q0 7 1 10q12 52 17.5 83.5t10.5 78.5q0 12 8 19.5t20 7.5h43q13 0 21.5 -8zM167 24.5q-64 34.5 -99 97.5t-35 145q0 86 36 150t100 98.5t147 34.5
q116 0 189.5 -66.5t84.5 -180.5q4 -32 -18 -56t-55 -24h-327q1 -62 35.5 -94.5t94.5 -32.5q38 0 72 16t56 54q20 18 43 18q29 0 46.5 -19.5t17.5 -45.5q0 -17 -8.5 -31.5t-25.5 -23.5q-30 -36 -84 -55t-122 -19q-84 0 -148 34.5zM413 404.5q-32 38.5 -97 38.5
q-59 0 -91.5 -37.5t-34.5 -92.5h255q0 53 -32 91.5z" />
    <glyph glyph-name="ecircumflex" unicode="&#xea;" horiz-adv-x="612" 
d="M171.5 635q-5.5 7 -5.5 18q0 14 9 29l69 89q6 11 20 11h97q12 0 19 -10l70 -88q12 -16 12 -34q0 -10 -5 -16t-14 -6h-37q-12 0 -18 8l-79 88l-68 -86q-8 -10 -19 -10h-35q-10 0 -15.5 7zM167 24.5q-64 34.5 -99 97.5t-35 145q0 86 36 150t100 98.5t147 34.5
q116 0 189.5 -66.5t84.5 -180.5q4 -32 -18 -56t-55 -24h-327q1 -62 35.5 -94.5t94.5 -32.5q38 0 72 16t56 54q20 18 43 18q29 0 46.5 -19.5t17.5 -45.5q0 -17 -8.5 -31.5t-25.5 -23.5q-30 -36 -84 -55t-122 -19q-84 0 -148 34.5zM413 404.5q-32 38.5 -97 38.5
q-59 0 -91.5 -37.5t-34.5 -92.5h255q0 53 -32 91.5z" />
    <glyph glyph-name="edieresis" unicode="&#xeb;" horiz-adv-x="612" 
d="M156 645.5q-19 19.5 -19 45.5q0 27 19 46.5t45 19.5q28 0 47.5 -19.5t19.5 -46.5q0 -26 -19.5 -45.5t-47.5 -19.5q-26 0 -45 19.5zM348.5 645.5q-19.5 19.5 -19.5 45.5q0 27 19.5 46.5t46.5 19.5t46.5 -19.5t19.5 -46.5q0 -26 -19.5 -45.5t-46.5 -19.5t-46.5 19.5z
M167 24.5q-64 34.5 -99 97.5t-35 145q0 86 36 150t100 98.5t147 34.5q116 0 189.5 -66.5t84.5 -180.5q4 -32 -18 -56t-55 -24h-327q1 -62 35.5 -94.5t94.5 -32.5q38 0 72 16t56 54q20 18 43 18q29 0 46.5 -19.5t17.5 -45.5q0 -17 -8.5 -31.5t-25.5 -23.5q-30 -36 -84 -55
t-122 -19q-84 0 -148 34.5zM413 404.5q-32 38.5 -97 38.5q-59 0 -91.5 -37.5t-34.5 -92.5h255q0 53 -32 91.5z" />
    <glyph glyph-name="igrave" unicode="&#xec;" horiz-adv-x="281" 
d="M47 827.5q5 5.5 25 5.5h43q12 0 20 -7.5t8 -19.5q5 -49 11.5 -82.5t17.5 -79.5q1 -3 1 -8q0 -13 -8.5 -22t-22.5 -9h-28q-16 0 -23 15q-3 10 -8 22q-18 58 -27 90.5t-13 73.5q-1 16 4 21.5zM86.5 518q22.5 22 53.5 22h1q32 0 54 -22t22 -54v-388q0 -31 -22 -53.5
t-54 -22.5h-1q-31 0 -53.5 22.5t-22.5 53.5v388q0 32 22.5 54z" />
    <glyph glyph-name="iacute" unicode="&#xed;" horiz-adv-x="281" 
d="M228 827q8 -8 7 -20q-3 -43 -13 -80.5t-27 -85.5q-2 -4 -7 -19q-6 -15 -23 -15h-28q-13 0 -22 9t-9 22q0 5 1 8q12 50 18.5 84.5t10.5 77.5q0 11 8 19t20 8h43q13 0 21 -8zM86.5 518q22.5 22 53.5 22h1q32 0 54 -22t22 -54v-388q0 -31 -22 -53.5t-54 -22.5h-1
q-31 0 -53.5 22.5t-22.5 53.5v388q0 32 22.5 54z" />
    <glyph glyph-name="icircumflex" unicode="&#xee;" horiz-adv-x="281" 
d="M-3.5 653q-5.5 7 -5.5 18q0 14 9 29l69 90q8 10 20 10h97q13 0 19 -10l70 -87q12 -18 12 -34q0 -10 -5 -16.5t-14 -6.5h-37q-10 0 -18 9l-79 88l-68 -87q-7 -10 -19 -10h-35q-10 0 -15.5 7zM86.5 518q22.5 22 53.5 22h1q32 0 54 -22t22 -54v-388q0 -31 -22 -53.5
t-54 -22.5h-1q-31 0 -53.5 22.5t-22.5 53.5v388q0 32 22.5 54z" />
    <glyph glyph-name="idieresis" unicode="&#xef;" horiz-adv-x="281" 
d="M-5.5 638.5q-19.5 19.5 -19.5 45.5q0 27 19.5 46.5t45.5 19.5q28 0 47.5 -19.5t19.5 -46.5q0 -26 -19.5 -45.5t-47.5 -19.5q-26 0 -45.5 19.5zM187.5 638.5q-19.5 19.5 -19.5 45.5q0 27 19.5 46.5t46.5 19.5t46.5 -19.5t19.5 -46.5q0 -26 -19.5 -45.5t-46.5 -19.5
t-46.5 19.5zM86.5 518q22.5 22 53.5 22h1q32 0 54 -22t22 -54v-388q0 -31 -22 -53.5t-54 -22.5h-1q-31 0 -53.5 22.5t-22.5 53.5v388q0 32 22.5 54z" />
    <glyph glyph-name="eth" unicode="&#xf0;" horiz-adv-x="611" 
d="M566 308q0 -88 -28.5 -160t-88 -115.5t-149.5 -43.5q-74 0 -132 29t-90.5 83t-32.5 126q0 109 61 169t160 60q44 0 84 -17.5t68 -49.5q-4 49 -26.5 92.5t-61.5 67.5l-29 -46h-84l44 70q-6 1 -20 1q-38 0 -75 -6t-99 -25l-1 112q59 19 95.5 27.5t82.5 8.5q44 0 86 -9
l29 47l86 1l-45 -71q166 -83 166 -351zM387.5 157q23.5 48 23.5 130q-19 23 -48.5 37.5t-59.5 14.5q-61 0 -85.5 -35.5t-24.5 -83.5q0 -50 29 -80.5t75 -30.5q67 0 90.5 48z" />
    <glyph glyph-name="ntilde" unicode="&#xf1;" horiz-adv-x="652" 
d="M216 635q-17 0 -20 14l-4 18v3q0 14 11 22l72 48q5 -14 31.5 -27t53.5 -13q20 0 56 14q9 4 19 4q21 0 22 -16l4 -18l1 -6q0 -11 -10 -18q-19 -12 -46 -20.5t-46 -8.5q-48 0 -89 33l-28 -20q-15 -9 -27 -9zM557.5 497.5q55.5 -52.5 55.5 -142.5v-277q0 -32 -23 -55
t-55 -23h-1q-32 0 -54.5 23t-22.5 55v240q0 55 -30.5 86.5t-83.5 31.5t-87.5 -35.5t-34.5 -87.5v-235q0 -32 -22.5 -55t-54.5 -23q-33 0 -56 23t-23 55v387q0 31 22 53t53 22t53 -22t22 -53v-28q31 59 83.5 86t109.5 27q94 0 149.5 -52.5z" />
    <glyph glyph-name="ograve" unicode="&#xf2;" horiz-adv-x="629" 
d="M213.5 852q8.5 4 22.5 4h43q11 0 19.5 -8t8.5 -19q5 -48 10.5 -79.5t17.5 -83.5q1 -3 1 -9q0 -13 -8.5 -21t-21.5 -8h-29q-17 0 -23 15q-2 7 -14 41t-20 68t-10 63l-4 27q-1 6 7.5 10zM464 520q64 -37 99 -100.5t37 -141.5v-14q0 -54 -23.5 -117t-87 -111.5t-174.5 -48.5
q-86 0 -150.5 35t-100 98t-35.5 144v16q2 80 38 143t100.5 98.5t147.5 35.5q85 0 149 -37zM404 395q-33 44 -89 44q-62 0 -92 -46.5t-33 -112.5v-16q0 -75 33 -117.5t92 -42.5q60 0 92 41t32 119v16q-2 71 -35 115z" />
    <glyph glyph-name="oacute" unicode="&#xf3;" horiz-adv-x="629" 
d="M387.5 832q8.5 -8 7.5 -20q-4 -43 -14 -79.5t-27 -85.5q-1 -3 -7 -20q-6 -15 -22 -15h-29q-13 0 -21.5 8.5t-8.5 20.5q0 7 1 10q12 52 17.5 83.5t10.5 78.5q0 11 8.5 19t19.5 8h43q13 0 21.5 -8zM464 520q64 -37 99 -100.5t37 -141.5v-14q0 -54 -23.5 -117t-87 -111.5
t-174.5 -48.5q-86 0 -150.5 35t-100 98t-35.5 144v16q2 80 38 143t100.5 98.5t147.5 35.5q85 0 149 -37zM404 395q-33 44 -89 44q-62 0 -92 -46.5t-33 -112.5v-16q0 -75 33 -117.5t92 -42.5q60 0 92 41t32 119v16q-2 71 -35 115z" />
    <glyph glyph-name="ocircumflex" unicode="&#xf4;" horiz-adv-x="629" 
d="M187.5 634q-5.5 7 -5.5 19q0 14 9 29l69 89q6 11 20 11h97q12 0 19 -10l70 -88q8 -11 8 -25q0 -13 -9.5 -22.5t-25.5 -9.5h-17q-9 0 -18 9l-79 88l-68 -87q-7 -10 -19 -10h-35q-10 0 -15.5 7zM464 520q64 -37 99 -100.5t37 -141.5v-14q0 -54 -23.5 -117t-87 -111.5
t-174.5 -48.5q-86 0 -150.5 35t-100 98t-35.5 144v16q2 80 38 143t100.5 98.5t147.5 35.5q85 0 149 -37zM404 395q-33 44 -89 44q-62 0 -92 -46.5t-33 -112.5v-16q0 -75 33 -117.5t92 -42.5q60 0 92 41t32 119v16q-2 71 -35 115z" />
    <glyph glyph-name="otilde" unicode="&#xf5;" horiz-adv-x="629" 
d="M194 644q-9 0 -15.5 4.5t-7.5 12.5l-5 20v4q0 14 11 21l68 46q6 -15 39 -29t66 -14q15 0 37 6t41 14q8 3 15 3q23 0 26 -21l5 -20v-5q0 -16 -11 -21q-22 -13 -56 -22.5t-57 -9.5q-59 0 -110 35l-22 -16q-11 -8 -24 -8zM464 520q64 -37 99 -100.5t37 -141.5v-14
q0 -54 -23.5 -117t-87 -111.5t-174.5 -48.5q-86 0 -150.5 35t-100 98t-35.5 144v16q2 80 38 143t100.5 98.5t147.5 35.5q85 0 149 -37zM404 395q-33 44 -89 44q-62 0 -92 -46.5t-33 -112.5v-16q0 -75 33 -117.5t92 -42.5q60 0 92 41t32 119v16q-2 71 -35 115z" />
    <glyph glyph-name="odieresis" unicode="&#xf6;" horiz-adv-x="629" 
d="M159.5 644q-19.5 19 -19.5 45q0 27 19.5 47t45.5 20q28 0 47.5 -20t19.5 -47q0 -26 -19.5 -45t-47.5 -19q-26 0 -45.5 19zM352 644q-19 19 -19 45q0 27 19 47t46 20t46.5 -20t19.5 -47q0 -26 -19.5 -45t-46.5 -19t-46 19zM464 520q64 -37 99 -100.5t37 -141.5v-14
q0 -54 -23.5 -117t-87 -111.5t-174.5 -48.5q-86 0 -150.5 35t-100 98t-35.5 144v16q2 80 38 143t100.5 98.5t147.5 35.5q85 0 149 -37zM404 395q-33 44 -89 44q-62 0 -92 -46.5t-33 -112.5v-16q0 -75 33 -117.5t92 -42.5q60 0 92 41t32 119v16q-2 71 -35 115z" />
    <glyph glyph-name="divide" unicode="&#xf7;" horiz-adv-x="611" 
d="M255 454q-21 21 -21 51q0 31 21 52t52 21q30 0 51 -21t21 -52q0 -30 -21 -51t-51 -21q-31 0 -52 21zM518.5 222.5q-14.5 -13.5 -41.5 -13.5h-343q-27 0 -41.5 13.5t-14.5 38.5q0 24 14.5 37t41.5 13h343q27 0 41.5 -12.5t14.5 -37.5t-14.5 -38.5zM255 -7.5
q-21 21.5 -21 51.5t21 51t52 21q30 0 51 -21t21 -51t-21 -51.5t-51 -21.5q-31 0 -52 21.5z" />
    <glyph glyph-name="oslash" unicode="&#xf8;" horiz-adv-x="550" 
d="M452 61.5q-63 -69.5 -176 -69.5q-28 0 -43 2l-14 -39q-1 -3 -3.5 -4.5t-5.5 -1.5h-28q-6 0 -9.5 5t-1.5 11l13 40q-75 25 -112 91t-37 157q0 121 63 190.5t176 69.5q27 0 42 -2l14 50q0 7 9 7h29q5 0 8.5 -4.5t2.5 -9.5l-15 -54q76 -25 113.5 -90.5t37.5 -156.5
q0 -122 -63 -191.5zM199.5 375q-31.5 -42 -31.5 -122q0 -45 12 -80t35 -54l75 294q-59 4 -90.5 -38zM272 92q54 0 83.5 43t29.5 118q0 45 -12.5 80.5t-37.5 54.5l-76 -295z" />
    <glyph glyph-name="ugrave" unicode="&#xf9;" horiz-adv-x="651" 
d="M224 828q0 13 27 13h46q13 0 20.5 -7t7.5 -20l2 -11q1 -35 8 -69t20 -91q2 -8 2 -10q0 -9 -7 -14.5t-18 -5.5h-31q-23 0 -31 21q-19 55 -29 91t-13 76l-4 26v1zM113 40.5q-59 50.5 -59 145.5v276q0 32 23 55t55 23q33 0 56 -23t23 -55v-244q0 -54 28.5 -83.5t82.5 -29.5
q56 0 89.5 34.5t33.5 88.5v234q0 32 23 55t55 23t55 -23t23 -55v-392q0 -29 -20.5 -49.5t-49.5 -20.5t-49.5 20.5t-20.5 49.5v28q-21 -55 -75.5 -81.5t-119.5 -26.5q-94 0 -153 50.5z" />
    <glyph glyph-name="uacute" unicode="&#xfa;" horiz-adv-x="651" 
d="M428 822q-5 -46 -15.5 -83.5t-30.5 -95.5q-9 -22 -31 -22h-31q-24 0 -24 21q0 7 1 10q13 55 20 89.5t8 69.5l3 11q0 13 7 20t20 7h46q27 0 27 -27zM113 40.5q-59 50.5 -59 145.5v276q0 32 23 55t55 23q33 0 56 -23t23 -55v-244q0 -54 28.5 -83.5t82.5 -29.5
q56 0 89.5 34.5t33.5 88.5v234q0 32 23 55t55 23t55 -23t23 -55v-392q0 -29 -20.5 -49.5t-49.5 -20.5t-49.5 20.5t-20.5 49.5v28q-21 -55 -75.5 -81.5t-119.5 -26.5q-94 0 -153 50.5z" />
    <glyph glyph-name="ucircumflex" unicode="&#xfb;" horiz-adv-x="651" 
d="M158.5 653.5q-6.5 4.5 -6.5 11.5t6 16l79 104q11 18 32 18h81q21 0 32 -17l82 -104q6 -9 6 -16q0 -8 -6 -12.5t-17 -4.5h-34q-20 0 -34 15l-72 81l-64 -79q-11 -17 -32 -17h-36q-10 0 -16.5 4.5zM113 40.5q-59 50.5 -59 145.5v276q0 32 23 55t55 23q33 0 56 -23t23 -55
v-244q0 -54 28.5 -83.5t82.5 -29.5q56 0 89.5 34.5t33.5 88.5v234q0 32 23 55t55 23t55 -23t23 -55v-392q0 -29 -20.5 -49.5t-49.5 -20.5t-49.5 20.5t-20.5 49.5v28q-21 -55 -75.5 -81.5t-119.5 -26.5q-94 0 -153 50.5z" />
    <glyph glyph-name="udieresis" unicode="&#xfc;" horiz-adv-x="651" 
d="M170.5 645.5q-19.5 19.5 -19.5 45.5q0 27 19.5 46.5t45.5 19.5q28 0 47.5 -19.5t19.5 -46.5q0 -26 -19.5 -45.5t-47.5 -19.5q-26 0 -45.5 19.5zM363.5 645.5q-19.5 19.5 -19.5 45.5q0 27 19.5 46.5t46.5 19.5t46.5 -19.5t19.5 -46.5q0 -26 -19.5 -45.5t-46.5 -19.5
t-46.5 19.5zM113 40.5q-59 50.5 -59 145.5v276q0 32 23 55t55 23q33 0 56 -23t23 -55v-244q0 -54 28.5 -83.5t82.5 -29.5q56 0 89.5 34.5t33.5 88.5v234q0 32 23 55t55 23t55 -23t23 -55v-392q0 -29 -20.5 -49.5t-49.5 -20.5t-49.5 20.5t-20.5 49.5v28q-21 -55 -75.5 -81.5
t-119.5 -26.5q-94 0 -153 50.5z" />
    <glyph glyph-name="yacute" unicode="&#xfd;" horiz-adv-x="589" 
d="M392 838q-4 -41 -13.5 -77t-19 -64.5l-12.5 -37.5q-5 -11 -12.5 -16.5t-19.5 -5.5h-30q-12 0 -18.5 5.5t-6.5 15.5q0 7 1 10q2 8 10 41.5t13 63.5t5 54l3 11q0 13 7.5 20t20.5 7h46q28 0 26 -27zM445 528q17 12 38 12q28 0 47 -19.5t19 -46.5q0 -12 -4 -23l-231 -581
q-8 -21 -26.5 -33.5t-40.5 -12.5q-30 0 -51 21.5t-21 51.5q0 12 4 23l41 105l-172 418q-5 15 -5 26q0 29 20.5 50t50.5 21q23 0 41.5 -13.5t25.5 -35.5l118 -323l122 328q7 20 24 32z" />
    <glyph glyph-name="thorn" unicode="&#xfe;" horiz-adv-x="647" 
d="M265 519q50 31 119 31q67 0 120 -32.5t83.5 -94.5t30.5 -148v-17q0 -79 -29 -139.5t-84.5 -94.5t-132.5 -35q-58 0 -103 28.5t-64 64.5v-214q0 -31 -20 -51.5t-51 -20.5q-39 0 -59.5 19.5t-20.5 52.5v815q0 31 20 51.5t51 20.5t51 -20.5t20 -51.5v-245q19 50 69 81z
M240 393q-38 -42 -38 -116v-22q0 -63 33.5 -107.5t97.5 -44.5q57 0 94 39t37 113v18q0 72 -35 117t-95 45q-56 0 -94 -42z" />
    <glyph glyph-name="ydieresis" unicode="&#xff;" horiz-adv-x="589" 
d="M152.5 641q-19.5 19 -19.5 45q0 27 19.5 47t45.5 20q28 0 47.5 -20t19.5 -47q0 -26 -19.5 -45t-47.5 -19q-26 0 -45.5 19zM345.5 641q-19.5 19 -19.5 45q0 27 19.5 47t46.5 20t46.5 -20t19.5 -47q0 -26 -19.5 -45t-46.5 -19t-46.5 19zM445 528q17 12 38 12q28 0 47 -19.5
t19 -46.5q0 -12 -4 -23l-231 -581q-8 -21 -26.5 -33.5t-40.5 -12.5q-30 0 -51 21.5t-21 51.5q0 12 4 23l41 105l-172 418q-5 15 -5 26q0 29 20.5 50t50.5 21q23 0 41.5 -13.5t25.5 -35.5l118 -323l122 328q7 20 24 32z" />
    <glyph glyph-name="Amacron" unicode="&#x100;" horiz-adv-x="760" 
d="M225 911q8 8 20 8h277q11 0 19.5 -8t8.5 -20v-42q0 -12 -8.5 -20t-19.5 -8h-277q-12 0 -20 8t-8 20v42q0 12 8 20zM42 72q0 -30 21 -51t51 -21q23 0 41.5 13.5t26.5 36.5l36 100h299l30 -93q8 -25 28 -41t45 -16q33 0 56 23t23 55q0 13 -4 25l-197 558q-13 40 -48 64.5
t-77 24.5t-76.5 -24t-48.5 -64l-202 -566q-4 -11 -4 -24zM486 271h-234l114 343z" />
    <glyph glyph-name="amacron" unicode="&#x101;" horiz-adv-x="595" 
d="M143 616q-8 8 -8 20v43q0 11 8 19.5t20 8.5h277q11 0 19.5 -8.5t8.5 -19.5v-43q0 -12 -8.5 -20t-19.5 -8h-277q-12 0 -20 8zM482 498.5q68 -51.5 68 -149.5v-284q0 -28 -19.5 -47.5t-47.5 -19.5q-27 0 -46 19t-20 46q-25 -31 -75.5 -52t-119.5 -21q-81 0 -134.5 39
t-53.5 116q0 87 69 127.5t203 40.5h90v36q-6 88 -99 88q-32 0 -55 -13t-33 -35q-9 -12 -23 -19t-29 -7q-29 0 -47.5 20t-18.5 47q0 33 27 51q29 33 76.5 51t105.5 18q114 0 182 -51.5zM396 227h-87q-60 0 -91.5 -15.5t-31.5 -55.5q0 -30 23.5 -46.5t63.5 -16.5
q51 0 85.5 25.5t37.5 66.5v42z" />
    <glyph glyph-name="Abreve" unicode="&#x102;" horiz-adv-x="760" 
d="M269 846q-14 8 -14 27t10 30t25 11q7 0 16 -3q42 -12 76 -13q33 0 66 9q13 3 24 3q17 0 27 -7.5t10 -22.5v-9q0 -20 -14 -29q-46 -28 -114 -28q-68 2 -112 32zM42 72q0 -30 21 -51t51 -21q23 0 41.5 13.5t26.5 36.5l36 100h299l30 -93q8 -25 28 -41t45 -16q33 0 56 23
t23 55q0 13 -4 25l-197 558q-13 40 -48 64.5t-77 24.5t-76.5 -24t-48.5 -64l-202 -566q-4 -11 -4 -24zM486 271h-234l114 343z" />
    <glyph glyph-name="abreve" unicode="&#x103;" horiz-adv-x="595" 
d="M188 644q-9 9 -9 18v16q0 15 8.5 23.5t22.5 8.5q8 0 15 -3q43 -15 81 -15q45 0 83 13q10 3 20 3q12 0 18.5 -5.5t6.5 -15.5v-28q0 -12 -10 -19q-52 -30 -118 -30q-68 0 -118 34zM482 498.5q68 -51.5 68 -149.5v-284q0 -28 -19.5 -47.5t-47.5 -19.5q-27 0 -46 19t-20 46
q-25 -31 -75.5 -52t-119.5 -21q-81 0 -134.5 39t-53.5 116q0 87 69 127.5t203 40.5h90v36q-6 88 -99 88q-32 0 -55 -13t-33 -35q-9 -12 -23 -19t-29 -7q-29 0 -47.5 20t-18.5 47q0 33 27 51q29 33 76.5 51t105.5 18q114 0 182 -51.5zM396 227h-87q-60 0 -91.5 -15.5
t-31.5 -55.5q0 -30 23.5 -46.5t63.5 -16.5q51 0 85.5 25.5t37.5 66.5v42z" />
    <glyph glyph-name="Aogonek" unicode="&#x104;" horiz-adv-x="758" 
d="M706.5 -173q11.5 -11 11.5 -27t-11.5 -26t-28.5 -10h-83q-44 0 -71.5 27.5t-27.5 72.5q0 23 13 45.5t36.5 37t53.5 14.5h24l-6 39q-24 1 -43 17t-27 40l-30 93h-299l-36 -100q-8 -23 -26.5 -36.5t-41.5 -13.5q-30 0 -51 21t-21 51q0 13 4 24l202 566q14 40 48.5 64
t76.5 24t77 -24.5t48 -64.5l197 -558q4 -12 4 -25q0 -24 -12 -42l33 -146h-125q-11 0 -18.5 -7t-7.5 -19t7.5 -19t18.5 -7h83q17 0 28.5 -11zM252 271h234l-120 343z" />
    <glyph glyph-name="aogonek" unicode="&#x105;" horiz-adv-x="596" 
d="M566 -167q8 -8 8 -20v-18q0 -11 -8 -19.5t-20 -8.5h-96q-46 0 -73.5 28t-27.5 74q0 22 13.5 43.5t37.5 35t54 13.5h24l-4 38q-24 3 -40 21t-17 43q-25 -31 -75.5 -52t-119.5 -21q-81 0 -134.5 39t-53.5 116q0 87 69 127.5t203 40.5h90v36q-6 88 -99 88q-32 0 -55 -13
t-33 -35q-9 -12 -23 -19t-29 -7q-29 0 -47.5 20t-18.5 47q0 33 27 51q29 33 76.5 51t105.5 18q114 0 182 -51.5t68 -149.5v-284q0 -24 -14 -41h9l28 -128h-123q-12 0 -19.5 -7.5t-7.5 -19.5q0 -13 7.5 -20.5t19.5 -7.5h96q12 0 20 -8zM396 227h-87q-60 0 -91.5 -15.5
t-31.5 -55.5q0 -30 23.5 -46.5t63.5 -16.5q51 0 85.5 25.5t37.5 66.5v42z" />
    <glyph glyph-name="Cacute" unicode="&#x106;" horiz-adv-x="825" 
d="M514.5 1046q8.5 -8 7.5 -20l-14 -81q-6 -22 -20 -64q-3 -9 -13 -40q-3 -7 -9.5 -11t-13.5 -4h-28q-13 0 -22 9t-9 22q0 5 1 8q4 17 5 22l16 70l8 70q0 11 8 19t20 8h42q13 0 21.5 -8zM745 269.5q21 -21.5 21 -50.5q0 -14 -6 -28q-34 -95 -119 -148.5t-208 -53.5
q-119 0 -207 46.5t-135.5 132t-47.5 199.5v18q0 113 47.5 198t134.5 131t201 46q108 0 192.5 -48.5t126.5 -132.5q9 -16 9 -35q0 -29 -20 -50t-51 -21h-2q-19 0 -36 10.5t-27 27.5q-24 50 -73 80t-122 30q-107 0 -172 -61.5t-67 -165.5v-20q0 -75 29 -130.5t83 -86
t127 -30.5q78 0 131 33t74 90q9 19 27 30t38 11q31 0 52 -21.5z" />
    <glyph glyph-name="cacute" unicode="&#x107;" horiz-adv-x="597" 
d="M396.5 843q8.5 -8 7.5 -19q-4 -42 -13.5 -78t-24.5 -82l-9 -26q-3 -7 -9.5 -11t-13.5 -4h-29q-13 0 -21.5 8.5t-8.5 21.5q0 6 1 9q12 52 17.5 83.5t10.5 78.5q0 12 8 19.5t20 7.5h43q13 0 21.5 -8zM158 28q-63 38 -96 101.5t-33 137.5v29q0 64 34 122.5t99.5 95
t154.5 36.5q59 0 110 -21.5t81 -58.5q24 -20 24 -50q0 -25 -17.5 -44.5t-45.5 -19.5q-16 0 -29.5 7t-22.5 19q-11 26 -37.5 41.5t-57.5 15.5q-62 0 -96 -45.5t-37 -105.5v-30q0 -73 36 -119t91 -46q42 0 70 19t36 53q8 16 23 25t33 9h2q28 0 46.5 -19.5t18.5 -45.5
q0 -27 -21 -47q-29 -47 -85 -72t-132 -25q-86 0 -149 38z" />
    <glyph glyph-name="Cdotaccent" unicode="&#x10a;" horiz-adv-x="825" 
d="M382 852.5q-19 19.5 -19 45.5q0 27 19 46.5t46 19.5t46.5 -19.5t19.5 -46.5q0 -26 -19.5 -45.5t-46.5 -19.5t-46 19.5zM745 269.5q21 -21.5 21 -50.5q0 -14 -6 -28q-34 -95 -119 -148.5t-208 -53.5q-119 0 -207 46.5t-135.5 132t-47.5 199.5v18q0 113 47.5 198t134.5 131
t201 46q108 0 192.5 -48.5t126.5 -132.5q9 -16 9 -35q0 -29 -20 -50t-51 -21h-2q-19 0 -36 10.5t-27 27.5q-24 50 -73 80t-122 30q-107 0 -172 -61.5t-67 -165.5v-20q0 -75 29 -130.5t83 -86t127 -30.5q78 0 131 33t74 90q9 19 27 30t38 11q31 0 52 -21.5z" />
    <glyph glyph-name="cdotaccent" unicode="&#x10b;" horiz-adv-x="597" 
d="M258.5 651q-19.5 19 -19.5 45q0 27 19.5 47t46.5 20t46.5 -20t19.5 -47q0 -26 -19.5 -45t-46.5 -19t-46.5 19zM158 28q-63 38 -96 101.5t-33 137.5v29q0 64 34 122.5t99.5 95t154.5 36.5q59 0 110 -21.5t81 -58.5q24 -20 24 -50q0 -25 -17.5 -44.5t-45.5 -19.5
q-16 0 -29.5 7t-22.5 19q-11 26 -37.5 41.5t-57.5 15.5q-62 0 -96 -45.5t-37 -105.5v-30q0 -73 36 -119t91 -46q42 0 70 19t36 53q8 16 23 25t33 9h2q28 0 46.5 -19.5t18.5 -45.5q0 -27 -21 -47q-29 -47 -85 -72t-132 -25q-86 0 -149 38z" />
    <glyph glyph-name="Ccaron" unicode="&#x10c;" horiz-adv-x="825" 
d="M278 964q0 11 5.5 18t15.5 7h35q11 0 19 -10l68 -86l79 88q6 8 18 8h15q16 0 26.5 -9.5t10.5 -23.5q0 -12 -8 -23l-70 -88q-7 -10 -19 -10h-97q-14 0 -20 11l-69 89q-9 15 -9 29zM745 269.5q21 -21.5 21 -50.5q0 -14 -6 -28q-34 -95 -119 -148.5t-208 -53.5
q-119 0 -207 46.5t-135.5 132t-47.5 199.5v18q0 113 47.5 198t134.5 131t201 46q108 0 192.5 -48.5t126.5 -132.5q9 -16 9 -35q0 -29 -20 -50t-51 -21h-2q-19 0 -36 10.5t-27 27.5q-24 50 -73 80t-122 30q-107 0 -172 -61.5t-67 -165.5v-20q0 -75 29 -130.5t83 -86
t127 -30.5q78 0 131 33t74 90q9 19 27 30t38 11q31 0 52 -21.5z" />
    <glyph glyph-name="ccaron" unicode="&#x10d;" horiz-adv-x="597" 
d="M166 783q0 11 5.5 18t15.5 7h35q12 0 19 -10l68 -87l79 88q8 9 18 9h16q16 0 26 -9.5t10 -23.5q0 -13 -8 -24l-70 -87q-6 -10 -19 -10h-97q-12 0 -20 10l-69 90q-9 15 -9 29zM158 28q-63 38 -96 101.5t-33 137.5v29q0 64 34 122.5t99.5 95t154.5 36.5q59 0 110 -21.5
t81 -58.5q24 -20 24 -50q0 -25 -17.5 -44.5t-45.5 -19.5q-16 0 -29.5 7t-22.5 19q-11 26 -37.5 41.5t-57.5 15.5q-62 0 -96 -45.5t-37 -105.5v-30q0 -73 36 -119t91 -46q42 0 70 19t36 53q8 16 23 25t33 9h2q28 0 46.5 -19.5t18.5 -45.5q0 -27 -21 -47q-29 -47 -85 -72
t-132 -25q-86 0 -149 38z" />
    <glyph glyph-name="Dcaron" unicode="&#x10e;" horiz-adv-x="759" 
d="M183 960q0 11 5.5 18t15.5 7h35q12 0 19 -10l68 -86l79 88q8 8 18 8h16q16 0 26 -9.5t10 -23.5q0 -12 -8 -23l-70 -88q-6 -10 -19 -10h-97q-12 0 -20 11l-69 89q-9 15 -9 29zM88 62.5q17 -28.5 46 -45.5t62 -17h152q108 0 187.5 46.5t121 130t41.5 192.5v19
q-3 104 -47 186.5t-122 129t-180 46.5h-152q-52 0 -88.5 -36.5t-36.5 -88.5l-1 -500q0 -34 17 -62.5zM346 610q64 0 111 -30.5t72.5 -83.5t26.5 -119v-15q0 -101 -55.5 -160.5t-154.5 -59.5h-135v468h135z" />
    <glyph glyph-name="dcaron" unicode="&#x10f;" horiz-adv-x="655" 
d="M83 796q0 11 5.5 18t15.5 7h35q11 0 19 -10l68 -87l79 88q6 9 18 9h15q16 0 26.5 -10t10.5 -24q0 -10 -8 -23l-70 -87q-7 -10 -19 -10h-97q-13 0 -20 10l-69 90q-9 15 -9 29zM49.5 421q31.5 63 85 96t119.5 33t113 -29.5t70 -71.5v224q0 32 22.5 54.5t54.5 22.5
t54.5 -22.5t22.5 -54.5v-600q0 -30 -21.5 -51.5t-51.5 -21.5t-51 21.5t-21 51.5l6 26q-11 -27 -38.5 -52t-67 -41t-86.5 -16q-64 0 -119 31t-89 91.5t-34 145.5v14q0 86 31.5 149zM404.5 384q-35.5 45 -95.5 45q-59 0 -96.5 -39.5t-37.5 -115.5v-13q0 -71 36.5 -112.5
t94.5 -41.5q57 0 95.5 40.5t38.5 113.5v14q0 64 -35.5 109z" />
    <glyph glyph-name="Dcroat" unicode="&#x110;" horiz-adv-x="736" 
d="M605.5 638.5q89.5 -95.5 93.5 -268.5q0 -113 -41.5 -197t-118 -129t-179.5 -45h-170q-52 0 -86 34t-34 86v198h-78q-5 0 -8 3t-3 8v72q0 5 3 8t8 3h79v203q0 52 34 86t86 34h169q156 0 245.5 -95.5zM492 533.5q-48 58.5 -134 58.5h-133v-181h88q5 0 8 -3t3 -8v-72
q0 -5 -3 -8t-8 -3h-88v-175h133q85 0 134.5 59t49.5 161q-2 113 -50 171.5z" />
    <glyph glyph-name="dcroat" unicode="&#x111;" horiz-adv-x="739" 
d="M673 661.5q8 -8.5 8 -19.5v-15q0 -11 -8 -19.5t-20 -8.5h-62v-526q0 -30 -21.5 -51.5t-51.5 -21.5t-51 21.5t-21 51.5l6 26q-11 -27 -38.5 -52t-67 -41t-86.5 -16q-64 0 -119 31t-89 91.5t-34 145.5v14q0 86 31.5 149t85 96t119.5 33t113 -29.5t70 -71.5v150h-61
q-11 0 -19.5 8.5t-8.5 19.5v15q0 11 8.5 19.5t19.5 8.5h61v3q0 32 22.5 54.5t54.5 22.5t54.5 -22.5t22.5 -54.5v-3h62q12 0 20 -8.5zM440 275q0 64 -35.5 109t-95.5 45q-59 0 -96.5 -39.5t-37.5 -115.5v-13q0 -71 36.5 -112.5t94.5 -41.5q57 0 95.5 40.5t38.5 113.5v14z" />
    <glyph glyph-name="Emacron" unicode="&#x112;" horiz-adv-x="626" 
d="M171.5 907q8.5 8 19.5 8h277q12 0 20 -8t8 -20v-41q0 -12 -8 -20t-20 -8h-277q-11 0 -19.5 8t-8.5 20v41q0 12 8.5 20zM104.5 713.5q36.5 36.5 88.5 36.5h296q28 0 48 -20t20 -48v-1q0 -28 -20 -48t-48 -20h-274v-162h216q27 0 46 -19.5t19 -46.5t-19 -46.5t-46 -19.5
h-216v-182h282q28 0 48 -20t20 -48v-1q0 -28 -20 -48t-48 -20h-304q-52 0 -88.5 36.5t-36.5 88.5v500q0 52 36.5 88.5z" />
    <glyph glyph-name="emacron" unicode="&#x113;" horiz-adv-x="612" 
d="M168.5 733.5q8.5 8.5 19.5 8.5h254q12 0 20 -8.5t8 -19.5v-43q0 -11 -8 -19.5t-20 -8.5h-254q-11 0 -19.5 8.5t-8.5 19.5v43q0 11 8.5 19.5zM167 24.5q-64 34.5 -99 97.5t-35 145q0 86 36 150t100 98.5t147 34.5q116 0 189.5 -66.5t84.5 -180.5q4 -32 -18 -56t-55 -24
h-327q1 -62 35.5 -94.5t94.5 -32.5q38 0 72 16t56 54q20 18 43 18q29 0 46.5 -19.5t17.5 -45.5q0 -17 -8.5 -31.5t-25.5 -23.5q-30 -36 -84 -55t-122 -19q-84 0 -148 34.5zM413 404.5q-32 38.5 -97 38.5q-59 0 -91.5 -37.5t-34.5 -92.5h255q0 53 -32 91.5z" />
    <glyph glyph-name="Edotaccent" unicode="&#x116;" horiz-adv-x="626" 
d="M261 852.5q-19 19.5 -19 45.5q0 27 19 46.5t46 19.5t46.5 -19.5t19.5 -46.5q0 -26 -19.5 -45.5t-46.5 -19.5t-46 19.5zM104.5 713.5q36.5 36.5 88.5 36.5h296q28 0 48 -20t20 -48v-1q0 -28 -20 -48t-48 -20h-274v-162h216q27 0 46 -19.5t19 -46.5t-19 -46.5t-46 -19.5
h-216v-182h282q28 0 48 -20t20 -48v-1q0 -28 -20 -48t-48 -20h-304q-52 0 -88.5 36.5t-36.5 88.5v500q0 52 36.5 88.5z" />
    <glyph glyph-name="edotaccent" unicode="&#x117;" horiz-adv-x="612" 
d="M258 647q-19 19 -19 45q0 27 19 47t46 20t46.5 -20t19.5 -47q0 -26 -19.5 -45t-46.5 -19t-46 19zM167 24.5q-64 34.5 -99 97.5t-35 145q0 86 36 150t100 98.5t147 34.5q116 0 189.5 -66.5t84.5 -180.5q4 -32 -18 -56t-55 -24h-327q1 -62 35.5 -94.5t94.5 -32.5
q38 0 72 16t56 54q20 18 43 18q29 0 46.5 -19.5t17.5 -45.5q0 -17 -8.5 -31.5t-25.5 -23.5q-30 -36 -84 -55t-122 -19q-84 0 -148 34.5zM413 404.5q-32 38.5 -97 38.5q-59 0 -91.5 -37.5t-34.5 -92.5h255q0 53 -32 91.5z" />
    <glyph glyph-name="Eogonek" unicode="&#x118;" horiz-adv-x="607" 
d="M557.5 -162.5q8.5 -8.5 8.5 -19.5v-19q0 -11 -8.5 -19.5t-19.5 -8.5h-97q-45 0 -73 28t-28 74q0 23 13 46t37 37.5t55 14.5h27v29h-279q-52 0 -88.5 36.5t-36.5 88.5v500q0 52 36.5 88.5t88.5 36.5h296q28 0 48 -20t20 -48v-1q0 -28 -20 -48t-48 -20h-274v-162h216
q27 0 46 -19.5t19 -46.5t-19 -46.5t-46 -19.5h-216v-182h282q28 0 48 -20t20 -48v-1l1 -168h-125q-12 0 -19.5 -7.5t-7.5 -19.5t7.5 -19.5t19.5 -7.5h97q11 0 19.5 -8.5z" />
    <glyph glyph-name="eogonek" unicode="&#x119;" horiz-adv-x="612" 
d="M572 247q-22 -24 -55 -24h-327q1 -62 35.5 -94.5t94.5 -32.5q38 0 72 16t56 54q20 18 43 18q29 0 46.5 -19.5t17.5 -45.5q0 -17 -8.5 -31.5t-25.5 -23.5q-25 -31 -68.5 -49t-98.5 -23l25 -119h-125q-12 0 -19.5 -7.5t-7.5 -19.5t7.5 -19.5t19.5 -7.5h97q11 0 19.5 -8.5
t8.5 -19.5v-18q0 -12 -8.5 -20t-19.5 -8h-97q-45 0 -73 27.5t-28 73.5q0 34 29 61t76 37l25 3l-6 45q-73 7 -128.5 43.5t-85.5 96t-30 135.5q0 86 36 150t100 98.5t147 34.5q116 0 189.5 -66.5t84.5 -180.5q4 -32 -18 -56zM445 313q0 53 -32 91.5t-97 38.5
q-59 0 -91.5 -37.5t-34.5 -92.5h255z" />
    <glyph glyph-name="Ecaron" unicode="&#x11a;" horiz-adv-x="626" 
d="M164 960q0 11 5.5 18t15.5 7h35q12 0 20 -10l68 -86l79 88q6 8 17 8h16q16 0 26.5 -9.5t10.5 -23.5q0 -12 -8 -23l-70 -88q-7 -10 -20 -10h-97q-12 0 -20 11l-68 89q-10 14 -10 29zM104.5 713.5q36.5 36.5 88.5 36.5h296q28 0 48 -20t20 -48v-1q0 -28 -20 -48t-48 -20
h-274v-162h216q27 0 46 -19.5t19 -46.5t-19 -46.5t-46 -19.5h-216v-182h282q28 0 48 -20t20 -48v-1q0 -28 -20 -48t-48 -20h-304q-52 0 -88.5 36.5t-36.5 88.5v500q0 52 36.5 88.5z" />
    <glyph glyph-name="ecaron" unicode="&#x11b;" horiz-adv-x="612" 
d="M164 782q0 11 5.5 18t15.5 7h35q12 0 19 -10l68 -87l79 88q8 9 18 9h16q16 0 26 -9.5t10 -23.5q0 -13 -8 -24l-70 -87q-6 -10 -19 -10h-97q-12 0 -20 10l-69 90q-9 15 -9 29zM167 24.5q-64 34.5 -99 97.5t-35 145q0 86 36 150t100 98.5t147 34.5q116 0 189.5 -66.5
t84.5 -180.5q4 -32 -18 -56t-55 -24h-327q1 -62 35.5 -94.5t94.5 -32.5q38 0 72 16t56 54q20 18 43 18q29 0 46.5 -19.5t17.5 -45.5q0 -17 -8.5 -31.5t-25.5 -23.5q-30 -36 -84 -55t-122 -19q-84 0 -148 34.5zM413 404.5q-32 38.5 -97 38.5q-59 0 -91.5 -37.5t-34.5 -92.5
h255q0 53 -32 91.5z" />
    <glyph glyph-name="Gbreve" unicode="&#x11e;" horiz-adv-x="829" 
d="M305 850q-7 5 -8 11t-1 23q0 15 9 23.5t24 8.5q10 0 15 -2q39 -13 79 -15q39 0 81 13q11 3 20 3q12 0 19.5 -5.5t7.5 -15.5q0 -29 -1.5 -36t-9.5 -13q-51 -30 -118 -30q-68 2 -117 35zM461 367.5q18 17.5 43 17.5l190 -1q37 0 62 -27t21 -64q-11 -145 -99.5 -224.5
t-246.5 -79.5q-119 0 -206.5 45.5t-134.5 130.5t-47 202v17q0 114 44 199.5t129 132t203 46.5q111 0 193.5 -44t120.5 -124q9 -16 9 -33q0 -27 -20 -47.5t-49 -20.5q-16 0 -31 8.5t-25 22.5q-22 44 -74.5 71t-122.5 27t-123 -28t-82.5 -80t-30.5 -121v-19q0 -75 30 -130.5
t85.5 -86t128.5 -30.5q98 -1 158 36t60 101h-142q-25 0 -43 17.5t-18 42.5q0 26 18 43.5z" />
    <glyph glyph-name="gbreve" unicode="&#x11f;" horiz-adv-x="632" 
d="M156 670q-9 8 -9 18v18q0 15 8.5 23t22.5 8q10 0 15 -2q37 -14 81 -16q40 0 82 13q10 3 20 3q25 0 25 -20v-31q0 -12 -9 -18q-52 -31 -119 -31q-70 2 -117 35zM557.5 533.5q20.5 -20.5 20.5 -49.5v-435q0 -70 -32.5 -124.5t-95.5 -86t-151 -31.5q-70 0 -120 20t-81 51
q-29 19 -29 53q0 25 18 44.5t46 19.5q31 0 50 -24q11 -27 44 -43.5t76 -16.5q52 0 87.5 34t35.5 104v61q-22 -34 -64 -56t-98 -22t-109.5 29t-87.5 85.5t-34 135.5v18q1 74 32 130.5t84.5 88t122.5 31.5q41 0 77 -15.5t59.5 -39.5t30.5 -49v38q0 29 20 49.5t49 20.5
t49.5 -20.5zM401 401.5q-36 38.5 -93 38.5t-94.5 -37t-40.5 -100l-1 -21q0 -65 35.5 -105t96.5 -40q59 0 97 37.5t38 107.5v20q-2 61 -38 99.5z" />
    <glyph glyph-name="Gdotaccent" unicode="&#x120;" horiz-adv-x="829" 
d="M369 852.5q-19 19.5 -19 45.5q0 27 19 46.5t46 19.5t46.5 -19.5t19.5 -46.5q0 -26 -19.5 -45.5t-46.5 -19.5t-46 19.5zM461 367.5q18 17.5 43 17.5l190 -1q37 0 62 -27t21 -64q-11 -145 -99.5 -224.5t-246.5 -79.5q-119 0 -206.5 45.5t-134.5 130.5t-47 202v17
q0 114 44 199.5t129 132t203 46.5q111 0 193.5 -44t120.5 -124q9 -16 9 -33q0 -27 -20 -47.5t-49 -20.5q-16 0 -31 8.5t-25 22.5q-22 44 -74.5 71t-122.5 27t-123 -28t-82.5 -80t-30.5 -121v-19q0 -75 30 -130.5t85.5 -86t128.5 -30.5q98 -1 158 36t60 101h-142
q-25 0 -43 17.5t-18 42.5q0 26 18 43.5z" />
    <glyph glyph-name="gdotaccent" unicode="&#x121;" horiz-adv-x="632" 
d="M251 646q-16 19 -16 45q0 27 16 47t38 20q23 0 39.5 -20t16.5 -47q0 -26 -17 -45t-39 -19t-38 19zM557.5 533.5q20.5 -20.5 20.5 -49.5v-435q0 -70 -32.5 -124.5t-95.5 -86t-151 -31.5q-70 0 -120 20t-81 51q-29 19 -29 53q0 25 18 44.5t46 19.5q31 0 50 -24
q11 -27 44 -43.5t76 -16.5q52 0 87.5 34t35.5 104v61q-22 -34 -64 -56t-98 -22t-109.5 29t-87.5 85.5t-34 135.5v18q1 74 32 130.5t84.5 88t122.5 31.5q41 0 77 -15.5t59.5 -39.5t30.5 -49v38q0 29 20 49.5t49 20.5t49.5 -20.5zM401 401.5q-36 38.5 -93 38.5t-94.5 -37
t-40.5 -100l-1 -21q0 -65 35.5 -105t96.5 -40q59 0 97 37.5t38 107.5v20q-2 61 -38 99.5z" />
    <glyph glyph-name="uni0122" unicode="&#x122;" horiz-adv-x="829" 
d="M461 367.5q18 17.5 43 17.5l190 -1q37 0 62 -27t21 -64q-11 -145 -99.5 -224.5t-246.5 -79.5q-119 0 -206.5 45.5t-134.5 130.5t-47 202v17q0 114 44 199.5t129 132t203 46.5q111 0 193.5 -44t120.5 -124q9 -16 9 -33q0 -27 -20 -47.5t-49 -20.5q-16 0 -31 8.5t-25 22.5
q-22 44 -74.5 71t-122.5 27t-123 -28t-82.5 -80t-30.5 -121v-19q0 -75 30 -130.5t85.5 -86t128.5 -30.5q98 -1 158 36t60 101h-142q-25 0 -43 17.5t-18 42.5q0 26 18 43.5zM459 -250.5q-14 -48.5 -28 -85.5q-6 -15 -23 -15h-27q-13 0 -22 8.5t-9 21.5q0 5 1 8q22 93 29 161
l2 23q0 11 8 19t20 8h44q13 0 21.5 -8t7.5 -20l-3 -26q-7 -46 -21 -94.5z" />
    <glyph glyph-name="uni0123" unicode="&#x123;" horiz-adv-x="632" 
d="M312 727.5q19 -19.5 19 -44.5q0 -29 -22 -48t-51 -16q-40 4 -70.5 31t-39.5 67q-8 54 -8 101l-2 48q1 13 9.5 20.5t21.5 6.5l44 -3q11 -2 18.5 -10t6.5 -18l2 -50q-1 -25 1 -70q3 1 10.5 3t14.5 2q27 0 46 -19.5zM557.5 533.5q20.5 -20.5 20.5 -49.5v-435
q0 -70 -32.5 -124.5t-95.5 -86t-151 -31.5q-70 0 -120 20t-81 51q-29 19 -29 53q0 25 18 44.5t46 19.5q31 0 50 -24q11 -27 44 -43.5t76 -16.5q52 0 87.5 34t35.5 104v61q-22 -34 -64 -56t-98 -22t-109.5 29t-87.5 85.5t-34 135.5v18q1 74 32 130.5t84.5 88t122.5 31.5
q41 0 77 -15.5t59.5 -39.5t30.5 -49v38q0 29 20 49.5t49 20.5t49.5 -20.5zM401 401.5q-36 38.5 -93 38.5t-94.5 -37t-40.5 -100l-1 -21q0 -65 35.5 -105t96.5 -40q59 0 97 37.5t38 107.5v20q-2 61 -38 99.5z" />
    <glyph glyph-name="Hbar" unicode="&#x126;" horiz-adv-x="767" 
d="M743.5 592q8.5 -8 8.5 -20v-48q0 -12 -8.5 -20t-19.5 -8h-25v-422q0 -31 -21.5 -52.5t-51.5 -21.5t-52 21.5t-22 52.5v221h-337v-221q0 -31 -22 -52.5t-52 -21.5t-51.5 21.5t-21.5 52.5v422h-21q-12 0 -20 8t-8 20v48q0 12 8 20t20 8h21v77q0 30 21.5 51.5t51.5 21.5
t52 -21.5t22 -51.5v-77h337v77q0 30 22 51.5t52 21.5t51.5 -21.5t21.5 -51.5v-77h25q11 0 19.5 -8zM552 431v65h-337v-65h337z" />
    <glyph glyph-name="hbar" unicode="&#x127;" horiz-adv-x="650" 
d="M549 498.5q55 -51.5 55 -147.5v-275q0 -31 -22 -53.5t-54 -22.5q-31 0 -53.5 22.5t-22.5 53.5v243q0 53 -29.5 81.5t-83.5 28.5q-55 0 -88 -33.5t-33 -86.5v-233q0 -31 -22.5 -53.5t-54.5 -22.5q-31 0 -53.5 22.5t-22.5 53.5v500h-56q-12 0 -20 8.5t-8 19.5v31
q0 11 8 19.5t20 8.5h56v10q0 32 22.5 54.5t54.5 22.5t54.5 -22.5t22.5 -54.5v-10h55q11 0 19.5 -8.5t8.5 -19.5v-31q0 -11 -8.5 -19.5t-19.5 -8.5h-55v-129q24 50 73.5 76.5t110.5 26.5q91 0 146 -51.5z" />
    <glyph glyph-name="Imacron" unicode="&#x12a;" horiz-adv-x="264" 
d="M-17.5 926q8.5 8 19.5 8h277q12 0 20 -8t8 -20v-42q0 -12 -8 -20t-20 -8h-277q-11 0 -19.5 8t-8.5 20v42q0 12 8.5 20zM84.5 22.5q-22.5 22.5 -22.5 53.5v604q0 32 22.5 54t53.5 22t53 -22.5t22 -53.5v-604q0 -31 -22 -53.5t-53 -22.5t-53.5 22.5z" />
    <glyph glyph-name="imacron" unicode="&#x12b;" horiz-adv-x="281" 
d="M-20 756.5q8 8.5 20 8.5h277q12 0 20 -8.5t8 -19.5v-44q0 -12 -8 -20t-20 -8h-277q-12 0 -20 8t-8 20v44q0 11 8 19.5zM86.5 518q22.5 22 53.5 22h1q32 0 54 -22t22 -54v-388q0 -31 -22 -53.5t-54 -22.5h-1q-31 0 -53.5 22.5t-22.5 53.5v388q0 32 22.5 54z" />
    <glyph glyph-name="Iogonek" unicode="&#x12e;" horiz-adv-x="264" 
d="M204 40q-9 -17 -25 -27l24 -114h-124q-12 0 -19.5 -7.5t-7.5 -19.5q0 -13 7.5 -20.5t19.5 -7.5h96q12 0 20 -8t8 -20v-18q0 -11 -8 -19.5t-20 -8.5h-96q-45 0 -73 28t-28 74q0 22 13.5 43.5t37.5 35t54 13.5h24l-5 45q-18 10 -29 28t-11 39v604q0 32 22.5 54t53.5 22
t53 -22.5t22 -53.5v-604q0 -19 -9 -36z" />
    <glyph glyph-name="iogonek" unicode="&#x12f;" horiz-adv-x="234" 
d="M78.5 630q-25.5 26 -25.5 62q0 37 25.5 63.5t62.5 26.5t62.5 -26.5t25.5 -63.5q0 -36 -25.5 -62t-62.5 -26t-62.5 26zM195 518q22 -22 22 -54v-388q0 -33 -22 -53l1 -124h-123q-12 0 -19.5 -7.5t-7.5 -19.5q0 -13 7.5 -20.5t19.5 -7.5h96q11 0 19.5 -8t8.5 -20v-18
q0 -11 -8.5 -19.5t-19.5 -8.5h-96q-46 0 -74 28t-28 74q0 22 13.5 44.5t37.5 37t54 14.5h25v43q-17 10 -27 27t-10 38v388q0 32 22.5 54t53.5 22h1q32 0 54 -22z" />
    <glyph glyph-name="Idotaccent" unicode="&#x130;" horiz-adv-x="264" 
d="M102 852.5q-19 19.5 -19 45.5q0 27 19 46.5t45 19.5q28 0 47.5 -19.5t19.5 -46.5q0 -26 -20 -45.5t-47 -19.5q-26 0 -45 19.5zM84.5 22.5q-22.5 22.5 -22.5 53.5v604q0 32 22.5 54t53.5 22t53 -22.5t22 -53.5v-604q0 -31 -22 -53.5t-53 -22.5t-53.5 22.5z" />
    <glyph glyph-name="dotlessi" unicode="&#x131;" horiz-adv-x="281" 
d="M86.5 518q22.5 22 53.5 22h1q32 0 54 -22t22 -54v-388q0 -31 -22 -53.5t-54 -22.5h-1q-31 0 -53.5 22.5t-22.5 53.5v388q0 32 22.5 54z" />
    <glyph glyph-name="uni0136" unicode="&#x136;" horiz-adv-x="732" 
d="M629 76q0 -30 -21.5 -53t-54.5 -23q-19 0 -35.5 9.5t-27.5 25.5l-195 252l-80 -83v-130q0 -30 -21.5 -52t-51.5 -22q-31 0 -52.5 22t-21.5 52v603q0 30 21.5 51.5t52.5 21.5q30 0 51.5 -21.5t21.5 -51.5v-286l281 334q19 25 52 25q28 0 47 -20.5t19 -46.5q0 -21 -13 -38
l-208 -251l222 -275q14 -22 14 -43zM354 -313q-3 -7 -9.5 -11t-13.5 -4h-27q-13 0 -22 8.5t-9 22.5q0 5 1 8q2 8 11.5 52t15.5 89l4 42q0 12 8 19.5t20 7.5h44q13 0 21 -8t8 -19l-9 -56q-15 -73 -43 -151z" />
    <glyph glyph-name="uni0137" unicode="&#x137;" horiz-adv-x="582" 
d="M526 70q0 -28 -20 -49t-50 -21q-19 0 -35.5 10t-26.5 28l-122 161l-54 -63v-59q0 -32 -22 -54.5t-54 -22.5t-54.5 22.5t-22.5 54.5v603q0 31 22.5 53.5t54.5 22.5t54 -22t22 -54v-379l179 213q8 12 22 19t30 7q27 0 45.5 -19.5t18.5 -44.5q0 -19 -12 -36l-132 -154
l146 -178q11 -16 11 -38zM307 -216.5q-15 -55.5 -32 -96.5q-6 -15 -22 -15h-28q-13 0 -21.5 8.5t-8.5 21.5q0 6 1 9q11 50 19 92.5t11 90.5q0 12 8 19.5t20 7.5h45q13 0 21 -8t7 -19q-5 -55 -20 -110.5z" />
    <glyph glyph-name="Lacute" unicode="&#x139;" horiz-adv-x="598" 
d="M509.5 974q8.5 -8 7.5 -20l-7 -44q-6 -34 -15 -62.5t-26 -78.5q-6 -15 -23 -15h-28q-13 0 -22 9t-9 22q0 5 1 8q2 9 12 49t13 76l4 37q0 11 8.5 19t19.5 8h43q13 0 21.5 -8zM89.5 728.5q21.5 21.5 52.5 21.5t52.5 -21.5t21.5 -52.5v-537h254q28 0 48.5 -20.5t20.5 -49.5
q0 -28 -20 -48.5t-49 -20.5h-277q-52 0 -88.5 36.5t-36.5 88.5v551q0 31 21.5 52.5z" />
    <glyph glyph-name="lacute" unicode="&#x13a;" horiz-adv-x="263" 
d="M220.5 1026q8.5 -8 7.5 -19q-4 -42 -13.5 -78t-24.5 -82l-9 -26q-3 -7 -9.5 -11t-13.5 -4h-29q-13 0 -21.5 8.5t-8.5 21.5q0 6 1 9q12 52 17.5 83.5t10.5 78.5q0 12 8 19.5t20 7.5h43q13 0 21.5 -8zM84.5 22.5q-22.5 22.5 -22.5 53.5v604q0 32 22.5 54t53.5 22t53 -22.5
t22 -53.5v-604q0 -31 -22 -53.5t-53 -22.5t-53.5 22.5z" />
    <glyph glyph-name="uni013B" unicode="&#x13b;" horiz-adv-x="598" 
d="M89.5 728.5q21.5 21.5 52.5 21.5t52.5 -21.5t21.5 -52.5v-537h254q28 0 48.5 -20.5t20.5 -49.5q0 -28 -20 -48.5t-49 -20.5h-277q-52 0 -88.5 36.5t-36.5 88.5v551q0 31 21.5 52.5zM302 -229q-14 -49 -28 -85q-6 -15 -23 -15h-27q-13 0 -21.5 8.5t-8.5 20.5q0 7 1 10
q22 98 28 156l2 27q0 12 8 19.5t20 7.5h44q13 0 21.5 -8t7.5 -19l-3 -28q-7 -45 -21 -94z" />
    <glyph glyph-name="uni013C" unicode="&#x13c;" horiz-adv-x="271" 
d="M84.5 22.5q-22.5 22.5 -22.5 53.5v604q0 32 22.5 54t53.5 22t53 -22.5t22 -53.5v-604q0 -31 -22 -53.5t-53 -22.5t-53.5 22.5zM169.5 -210q-15.5 -56 -31.5 -96q-6 -15 -23 -15h-27q-13 0 -21.5 8.5t-8.5 20.5q0 7 1 10q11 50 19 92.5t11 90.5q0 12 8 19.5t20 7.5h44
q13 0 21.5 -8t7.5 -19q-5 -55 -20.5 -111z" />
    <glyph glyph-name="Lcaron" unicode="&#x13d;" horiz-adv-x="598" 
d="M264 906q0 11 5.5 18t15.5 7h35q11 0 19 -10l68 -87l79 88q6 9 18 9h15q16 0 26.5 -10t10.5 -24q0 -10 -8 -23l-70 -87q-7 -10 -19 -10h-97q-13 0 -20 10l-69 90q-9 15 -9 29zM89.5 728.5q21.5 21.5 52.5 21.5t52.5 -21.5t21.5 -52.5v-537h254q28 0 48.5 -20.5
t20.5 -49.5q0 -28 -20 -48.5t-49 -20.5h-277q-52 0 -88.5 36.5t-36.5 88.5v551q0 31 21.5 52.5z" />
    <glyph glyph-name="lcaron" unicode="&#x13e;" horiz-adv-x="271" 
d="M60 999l75 -96l86 96h95l-117 -154h-122l-112 154h95zM84.5 22.5q-22.5 22.5 -22.5 53.5v604q0 32 22.5 54t53.5 22t53 -22.5t22 -53.5v-604q0 -31 -22 -53.5t-53 -22.5t-53.5 22.5z" />
    <glyph glyph-name="Lslash" unicode="&#x141;" horiz-adv-x="530" 
d="M518.5 118.5q20.5 -20.5 20.5 -49.5q0 -28 -20 -48.5t-49 -20.5h-277q-52 0 -88.5 36.5t-36.5 88.5v148l-89 -62q-5 -4 -13 -4q-14 0 -23 11l-20 25q-7 11 -7 18q0 15 15 24l137 95v296q0 31 21.5 52.5t52.5 21.5t52.5 -21.5t21.5 -52.5v-193l94 65q5 4 13 4q14 0 23 -11
l20 -25q7 -10 7 -18q0 -15 -15 -24l-142 -99v-236h254q28 0 48.5 -20.5z" />
    <glyph glyph-name="lslash" unicode="&#x142;" horiz-adv-x="264" 
d="M358 475q0 -14 -14 -23l-131 -90v-286q0 -31 -22 -53.5t-53 -22.5t-53.5 22.5t-22.5 53.5v182l-98 -68q-7 -4 -14 -4q-12 0 -21 11l-27 35q-7 11 -7 18q0 15 14 24l153 105v301q0 32 22.5 54t53.5 22t53 -22.5t22 -53.5v-197l76 52q8 5 15 5q12 0 20 -11l27 -35
q7 -10 7 -19z" />
    <glyph glyph-name="Nacute" unicode="&#x143;" horiz-adv-x="801" 
d="M487.5 1036q8.5 -8 7.5 -19l-6 -39q-7 -46 -31 -115l-10 -32q-3 -7 -9.5 -11t-13.5 -4h-29q-13 0 -21.5 8.5t-8.5 21.5q0 6 1 9q20 89 25 130l3 32q0 12 8 19.5t20 7.5h43q13 0 21.5 -8zM101 717q33 33 80 33q30 0 56 -14.5t41 -40.5l286 -456v442q0 29 20.5 49t49.5 20
t49 -20t20 -49v-591q0 -38 -26 -64t-63 -26q-23 0 -43.5 12t-33.5 32l-330 524v-498q0 -29 -20.5 -49.5t-49.5 -20.5t-49 20.5t-20 49.5v568q0 46 33 79z" />
    <glyph glyph-name="nacute" unicode="&#x144;" horiz-adv-x="652" 
d="M392.5 871q8.5 -8 7.5 -20q-4 -43 -14 -79.5t-27 -85.5q-2 -3 -7 -20q-6 -15 -23 -15h-28q-13 0 -22 8.5t-9 21.5q0 5 1 8q11 47 17.5 81t11.5 82q0 11 8.5 19t19.5 8h43q13 0 21.5 -8zM557.5 497.5q55.5 -52.5 55.5 -142.5v-277q0 -32 -23 -55t-55 -23h-1
q-32 0 -54.5 23t-22.5 55v240q0 55 -30.5 86.5t-83.5 31.5t-87.5 -35.5t-34.5 -87.5v-235q0 -32 -22.5 -55t-54.5 -23q-33 0 -56 23t-23 55v387q0 31 22 53t53 22t53 -22t22 -53v-28q31 59 83.5 86t109.5 27q94 0 149.5 -52.5z" />
    <glyph glyph-name="uni0145" unicode="&#x145;" horiz-adv-x="801" 
d="M101 717q33 33 80 33q30 0 56 -14.5t41 -40.5l286 -456v442q0 29 20.5 49t49.5 20t49 -20t20 -49v-591q0 -38 -26 -64t-63 -26q-23 0 -43.5 12t-33.5 32l-330 524v-498q0 -29 -20.5 -49.5t-49.5 -20.5t-49 20.5t-20 49.5v568q0 46 33 79zM397.5 -269.5
q-13.5 -48.5 -27.5 -83.5q-6 -15 -23 -15h-27q-13 0 -22 8.5t-9 21.5q0 5 1 8q22 93 29 161l2 23q0 11 8 19t20 8h44q13 0 21 -8t8 -20l-4 -29q-7 -45 -20.5 -93.5z" />
    <glyph glyph-name="uni0146" unicode="&#x146;" horiz-adv-x="652" 
d="M557.5 497.5q55.5 -52.5 55.5 -142.5v-277q0 -32 -23 -55t-55 -23h-1q-32 0 -54.5 23t-22.5 55v240q0 55 -30.5 86.5t-83.5 31.5t-87.5 -35.5t-34.5 -87.5v-235q0 -32 -22.5 -55t-54.5 -23q-33 0 -56 23t-23 55v387q0 31 22 53t53 22t53 -22t22 -53v-28q31 59 83.5 86
t109.5 27q94 0 149.5 -52.5zM345.5 -201q-15.5 -56 -31.5 -96q-6 -15 -23 -15h-27q-13 0 -21.5 8.5t-8.5 20.5q0 7 1 10q11 50 19 92.5t11 90.5q0 12 8 19.5t20 7.5h44q13 0 21.5 -8t7.5 -19q-5 -55 -20.5 -111z" />
    <glyph glyph-name="Ncaron" unicode="&#x147;" horiz-adv-x="801" 
d="M242 972q0 11 5.5 18t15.5 7h35q12 0 20 -10l68 -87l79 88q6 9 17 9h16q16 0 26.5 -10t10.5 -24q0 -10 -8 -23l-70 -87q-7 -10 -20 -10h-97q-12 0 -20 10l-68 90q-10 14 -10 29zM101 717q33 33 80 33q30 0 56 -14.5t41 -40.5l286 -456v442q0 29 20.5 49t49.5 20t49 -20
t20 -49v-591q0 -38 -26 -64t-63 -26q-23 0 -43.5 12t-33.5 32l-330 524v-498q0 -29 -20.5 -49.5t-49.5 -20.5t-49 20.5t-20 49.5v568q0 46 33 79z" />
    <glyph glyph-name="ncaron" unicode="&#x148;" horiz-adv-x="652" 
d="M188 802q0 11 5.5 18t15.5 7h35q12 0 19 -10l68 -87l79 88q8 9 18 9h16q16 0 26 -9.5t10 -23.5q0 -13 -8 -24l-70 -87q-6 -10 -19 -10h-97q-12 0 -20 10l-69 90q-9 15 -9 29zM557.5 497.5q55.5 -52.5 55.5 -142.5v-277q0 -32 -23 -55t-55 -23h-1q-32 0 -54.5 23t-22.5 55
v240q0 55 -30.5 86.5t-83.5 31.5t-87.5 -35.5t-34.5 -87.5v-235q0 -32 -22.5 -55t-54.5 -23q-33 0 -56 23t-23 55v387q0 31 22 53t53 22t53 -22t22 -53v-28q31 59 83.5 86t109.5 27q94 0 149.5 -52.5z" />
    <glyph glyph-name="Eng" unicode="&#x14a;" horiz-adv-x="771" 
d="M683 730q20 -20 20 -49v-591v-9l-2 -110q-3 -51 -18 -106.5t-32 -92.5q-6 -15 -23 -15h-76q-13 0 -22 8.5t-9 22.5q0 5 1 8q26 87 31 174l1 54q-7 6 -17 20l-330 524v-498q0 -29 -20.5 -49.5t-49.5 -20.5t-49 20.5t-20 49.5v568q0 46 33 79t80 33q30 0 56 -14.5t41 -40.5
l286 -456v442q0 29 20.5 49t49.5 20t49 -20z" />
    <glyph glyph-name="eng" unicode="&#x14b;" horiz-adv-x="652" 
d="M557.5 497.5q55.5 -52.5 55.5 -142.5v-277q0 -32 -23 -55t-55 -23h26q13 0 21 -8t7 -20q-5 -54 -20 -109.5t-32 -96.5q-6 -15 -22 -15h-67q-13 0 -22 8.5t-9 21.5q0 5 1 8q23 95 32 184q0 11 8 19t20 8h56q-32 0 -54.5 23t-22.5 55v240q0 55 -30.5 86.5t-83.5 31.5
t-87.5 -35.5t-34.5 -87.5v-235q0 -32 -22.5 -55t-54.5 -23q-33 0 -56 23t-23 55v387q0 31 22 53t53 22t53 -22t22 -53v-28q31 59 83.5 86t109.5 27q94 0 149.5 -52.5z" />
    <glyph glyph-name="Omacron" unicode="&#x14c;" horiz-adv-x="835" 
d="M224.5 914q8.5 8 19.5 8h333q12 0 20 -8t8 -20v-43q0 -11 -8 -19.5t-20 -8.5h-333q-11 0 -19.5 8.5t-8.5 19.5v43q0 12 8.5 20zM217 36.5q-88 47.5 -137 134t-49 199.5v17q1 111 51.5 196t138 131.5t197.5 46.5t196.5 -46t137 -130t52.5 -193v-22q0 -113 -49.5 -199.5
t-137 -134t-198.5 -47.5q-114 0 -202 47.5zM570 207.5q45 71.5 45 162.5v21q-1 53 -21.5 104.5t-64.5 85.5t-111 34q-71 0 -115 -34t-63 -84.5t-20 -104.5v-22q0 -55 19.5 -108.5t64 -89.5t114.5 -36q107 0 152 71.5z" />
    <glyph glyph-name="omacron" unicode="&#x14d;" horiz-adv-x="629" 
d="M159.5 732.5q8.5 8.5 19.5 8.5h278q12 0 20 -8.5t8 -19.5v-42q0 -12 -8 -20t-20 -8h-278q-11 0 -19.5 8t-8.5 20v42q0 11 8.5 19.5zM464 520q64 -37 99 -100.5t37 -141.5v-14q0 -54 -23.5 -117t-87 -111.5t-174.5 -48.5q-86 0 -150.5 35t-100 98t-35.5 144v16
q2 80 38 143t100.5 98.5t147.5 35.5q85 0 149 -37zM404 395q-33 44 -89 44q-62 0 -92 -46.5t-33 -112.5v-16q0 -75 33 -117.5t92 -42.5q60 0 92 41t32 119v16q-2 71 -35 115z" />
    <glyph glyph-name="Ohungarumlaut" unicode="&#x150;" horiz-adv-x="835" 
d="M383.5 952.5q-9.5 -33.5 -25.5 -83.5q-1 -3 -7 -20q-6 -15 -23 -15h-28q-13 0 -22 8.5t-9 21.5q0 5 1 8q22 95 30 154l2 30q0 11 8.5 19t19.5 8h43q13 0 21.5 -8t7.5 -20l-3 -29q-6 -40 -15.5 -73.5zM573.5 942.5q-12.5 -42.5 -29.5 -93.5q-4 -15 -22 -15h-29
q-13 0 -21.5 8t-8.5 20q0 7 1 10q19 83 29 163l2 21q0 11 8.5 19t19.5 8h43q13 0 21.5 -8t7.5 -20l-2 -25q-7 -45 -19.5 -87.5zM217 36.5q-88 47.5 -137 134t-49 199.5v17q1 111 51.5 196t138 131.5t197.5 46.5t196.5 -46t137 -130t52.5 -193v-22q0 -113 -49.5 -199.5
t-137 -134t-198.5 -47.5q-114 0 -202 47.5zM570 207.5q45 71.5 45 162.5v21q-1 53 -21.5 104.5t-64.5 85.5t-111 34q-71 0 -115 -34t-63 -84.5t-20 -104.5v-22q0 -55 19.5 -108.5t64 -89.5t114.5 -36q107 0 152 71.5z" />
    <glyph glyph-name="ohungarumlaut" unicode="&#x151;" horiz-adv-x="629" 
d="M276.5 738q-12.5 -45 -32.5 -105q-6 -15 -23 -15h-28q-13 0 -22 9t-9 22q0 5 1 8q26 106 32 183q0 12 8 19.5t20 7.5h43q13 0 21.5 -8t7.5 -19q-6 -57 -18.5 -102zM470.5 740.5q-12.5 -47.5 -33.5 -107.5q-4 -15 -22 -15h-29q-13 0 -21.5 8.5t-8.5 20.5q0 7 1 10
q24 107 31 183q0 12 8 19.5t20 7.5h43q13 0 21.5 -8t7.5 -19q-5 -52 -17.5 -99.5zM464 520q64 -37 99 -100.5t37 -141.5v-14q0 -54 -23.5 -117t-87 -111.5t-174.5 -48.5q-86 0 -150.5 35t-100 98t-35.5 144v16q2 80 38 143t100.5 98.5t147.5 35.5q85 0 149 -37zM404 395
q-33 44 -89 44q-62 0 -92 -46.5t-33 -112.5v-16q0 -75 33 -117.5t92 -42.5q60 0 92 41t32 119v16q-2 71 -35 115z" />
    <glyph glyph-name="OE" unicode="&#x152;" horiz-adv-x="1025" 
d="M992 117q20 -20 20 -48v-1q0 -28 -20 -48t-48 -20h-305q-28 0 -53 12t-43 33q-73 -56 -189 -56q-154 0 -231.5 95.5t-77.5 256.5q0 160 77 255t232 95q94 0 163 -39q10 42 44 70t78 28h296q28 0 48 -20t20 -48v-1q0 -28 -20 -48t-48 -20h-274v-162h216q28 0 47 -19.5
t19 -46.5t-19 -46.5t-47 -19.5h-215q-1 -5 -1 -14v-168h283q28 0 48 -20zM471 175.5q37 59.5 37 165.5q0 223 -154 223q-155 0 -155 -223q0 -106 37.5 -165.5t117.5 -59.5t117 59.5z" />
    <glyph glyph-name="oe" unicode="&#x153;" horiz-adv-x="1030" 
d="M983 247q-22 -24 -54 -24h-327q0 -62 34.5 -94.5t94.5 -32.5q39 0 73 16t56 54q18 18 42 18q29 0 47 -19.5t18 -45.5q0 -17 -9 -31.5t-26 -23.5q-29 -36 -83 -55t-123 -19q-62 0 -114 19.5t-90 56.5q-75 -75 -207 -75q-86 0 -151 34t-100 96t-35 143v16q2 80 38 141
t100.5 95t147.5 34q64 0 117 -20.5t90 -57.5q38 38 90 58t115 20q116 0 189.5 -66.5t84.5 -180.5q4 -32 -18 -56zM857 313q0 53 -32.5 91.5t-97.5 38.5q-58 0 -91 -37.5t-34 -92.5h255zM439 280q-2 71 -35 115t-89 44q-62 0 -92 -46.5t-33 -112.5v-16q0 -75 33 -117.5
t92 -42.5q60 0 92 41t32 119v16z" />
    <glyph glyph-name="Racute" unicode="&#x154;" horiz-adv-x="709" 
d="M404.5 1041.5q8.5 -8.5 7.5 -20.5q-4 -42 -13.5 -77.5t-26.5 -84.5l-7 -21q-6 -16 -24 -16h-26q-14 0 -23 8.5t-9 22.5q0 6 1 9q12 54 18.5 86.5t10.5 73.5q0 12 8.5 20t19.5 8h42q13 0 21.5 -8.5zM616 70q0 -28 -20 -49t-49 -21q-21 0 -38 11t-25 31l-134 253h-138v-226
q0 -28 -20.5 -48.5t-49.5 -20.5h-1q-29 0 -49.5 20.5t-20.5 48.5v556q0 34 17 62.5t46 45.5t62 17h155q266 0 266 -218v-12q0 -67 -30 -113t-88 -65l-26 -10l136 -231q7 -14 7 -31zM442 439.5q34 24.5 34 72.5v13q0 93 -134 93h-130v-203h129q67 0 101 24.5z" />
    <glyph glyph-name="racute" unicode="&#x155;" horiz-adv-x="436" 
d="M346 782q-3 -42 -13 -78.5t-26 -81.5q-1 -3 -7 -20q-4 -11 -11.5 -16t-19.5 -5h-31q-24 0 -24 21q0 6 1 9q26 99 28 160l3 11q0 13 7 20t20 7h46q27 0 27 -27zM245.5 463.5q20.5 24.5 54.5 42.5q20 20 48 20q27 0 47.5 -18.5t20.5 -48.5q0 -25 -16 -43.5t-40 -23.5
q-65 -7 -102 -41t-37 -90v-183q0 -33 -23 -55.5t-55 -22.5t-55 22.5t-23 55.5v384q0 32 23 55t55 23t55 -23t23 -55v-41q4 18 24.5 42.5z" />
    <glyph glyph-name="uni0156" unicode="&#x156;" horiz-adv-x="709" 
d="M616 70q0 -28 -20 -49t-49 -21q-21 0 -38 11t-25 31l-134 253h-138v-226q0 -28 -20.5 -48.5t-49.5 -20.5h-1q-29 0 -49.5 20.5t-20.5 48.5v556q0 34 17 62.5t46 45.5t62 17h155q266 0 266 -218v-12q0 -67 -30 -113t-88 -65l-26 -10l136 -231q7 -14 7 -31zM442 439.5
q34 24.5 34 72.5v13q0 93 -134 93h-130v-203h129q67 0 101 24.5zM339 -299q-6 -15 -23 -15h-27q-13 0 -22 8.5t-9 21.5q0 5 1 8q26 105 31 184q0 11 8 19t20 8h44q13 0 21.5 -8t7.5 -20q-9 -96 -52 -206z" />
    <glyph glyph-name="uni0157" unicode="&#x157;" horiz-adv-x="436" 
d="M245.5 463.5q20.5 24.5 54.5 42.5q20 20 48 20q27 0 47.5 -18.5t20.5 -48.5q0 -25 -16 -43.5t-40 -23.5q-65 -7 -102 -41t-37 -90v-183q0 -33 -23 -55.5t-55 -22.5t-55 22.5t-23 55.5v384q0 32 23 55t55 23t55 -23t23 -55v-41q4 18 24.5 42.5zM132 -311q-5 -11 -12.5 -16
t-18.5 -5h-30q-11 0 -18 5.5t-7 14.5q0 2 2 10q27 112 32 192q0 13 7.5 20t20.5 7h47q28 0 26 -27q-9 -94 -49 -201z" />
    <glyph glyph-name="Rcaron" unicode="&#x158;" horiz-adv-x="709" 
d="M190 959q0 11 5.5 18t15.5 7h35q12 0 19 -10l68 -86l79 88q8 8 18 8h16q16 0 26 -9.5t10 -23.5q0 -12 -8 -23l-70 -88q-6 -10 -19 -10h-97q-12 0 -20 11l-69 89q-9 15 -9 29zM616 70q0 -28 -20 -49t-49 -21q-21 0 -38 11t-25 31l-134 253h-138v-226q0 -28 -20.5 -48.5
t-49.5 -20.5h-1q-29 0 -49.5 20.5t-20.5 48.5v556q0 34 17 62.5t46 45.5t62 17h155q266 0 266 -218v-12q0 -67 -30 -113t-88 -65l-26 -10l136 -231q7 -14 7 -31zM442 439.5q34 24.5 34 72.5v13q0 93 -134 93h-130v-203h129q67 0 101 24.5z" />
    <glyph glyph-name="rcaron" unicode="&#x159;" horiz-adv-x="436" 
d="M74 762q0 8 6.5 12.5t17.5 4.5h35q21 0 33 -17l63 -80l73 81q15 16 34 16h34q11 0 17 -4.5t6 -12.5q0 -7 -6 -16l-82 -105q-12 -17 -33 -17h-80q-21 0 -33 18l-79 104q-6 9 -6 16zM245.5 463.5q20.5 24.5 54.5 42.5q20 20 48 20q27 0 47.5 -18.5t20.5 -48.5
q0 -25 -16 -43.5t-40 -23.5q-65 -7 -102 -41t-37 -90v-183q0 -33 -23 -55.5t-55 -22.5t-55 22.5t-23 55.5v384q0 32 23 55t55 23t55 -23t23 -55v-41q4 18 24.5 42.5z" />
    <glyph glyph-name="Sacute" unicode="&#x15a;" horiz-adv-x="702" 
d="M372 1049q8 -8 7 -19q-3 -44 -13.5 -81.5t-20.5 -66.5t-13 -38q-3 -7 -9.5 -11t-13.5 -4h-28q-13 0 -22 9t-9 22q0 5 1 8q20 83 29 162q0 12 8 19.5t20 7.5h43q13 0 21 -8zM521 405.5q46 -22.5 73.5 -65t27.5 -111.5q0 -123 -87 -183t-225 -60q-87 0 -163.5 40.5
t-101.5 137.5q-3 9 -3 19q0 25 18 43.5t44 18.5q19 0 34 -9.5t23 -26.5q12 -40 51 -67t112 -27q70 0 116 27t46 69q0 34 -21 53.5t-63 31.5t-124 26q-114 18 -178.5 64.5t-64.5 144.5q0 108 73.5 169.5t201.5 61.5q96 0 160.5 -32.5t94.5 -95.5q9 -16 9 -33
q0 -27 -19.5 -47.5t-48.5 -20.5h-2q-16 0 -30.5 7.5t-24.5 21.5q-14 33 -52 52t-88 19q-66 0 -102.5 -21t-36.5 -64q0 -26 20.5 -42t56 -26.5t109.5 -26.5l51 -11q68 -14 114 -36.5z" />
    <glyph glyph-name="sacute" unicode="&#x15b;" horiz-adv-x="536" 
d="M361 859q7 -7 6 -20q-5 -47 -15.5 -85t-29.5 -95q-8 -21 -31 -21h-31q-11 0 -18 5.5t-7 14.5q0 2 2 10q13 53 20 89t8 71l2 11q0 13 7.5 20t20.5 7h46q13 0 20 -7zM443 35q-65 -45 -166 -45q-67 0 -119.5 16t-95.5 58q-27 20 -27 43q0 8 5 20q16 31 45 31q15 0 33 -10
q41 -32 78.5 -46.5t65.5 -14.5q39 0 62.5 17t23.5 43t-25 40.5t-89 25.5q-107 18 -155.5 54t-48.5 108q0 57 32.5 98t87.5 60.5t121 16.5q47 -1 87 -17t71 -39q39 -23 39 -54q0 -16 -14 -35q-15 -20 -43 -20q-21 0 -40 13q-21 18 -49.5 32t-57.5 14q-37 0 -58.5 -15.5
t-21.5 -41.5q0 -25 25.5 -40t83.5 -25q113 -19 164 -54t51 -107q0 -81 -65 -126z" />
    <glyph glyph-name="Scedilla" unicode="&#x15e;" horiz-adv-x="717" 
d="M558.5 66q-63.5 -59 -170.5 -75l-12 -65l50 -2q24 0 49 -14.5t40.5 -38t15.5 -46.5q0 -42 -29.5 -71.5t-71.5 -29.5h-122q-12 0 -20 8t-8 20v18q0 12 8 20t20 8h122q11 0 19 8t8 19t-8 19t-19 8h-150l33 134h-3q-87 0 -163.5 40.5t-101.5 137.5q-3 9 -3 19q0 25 18 43.5
t44 18.5q19 0 34 -9.5t23 -26.5q12 -40 51 -67t112 -27q70 0 116 27t46 69q0 34 -21 53.5t-63 31.5t-124 26q-114 18 -178.5 64.5t-64.5 144.5q0 108 73.5 169.5t201.5 61.5q96 0 160.5 -32.5t94.5 -95.5q9 -16 9 -33q0 -27 -19.5 -47.5t-48.5 -20.5h-2q-16 0 -30.5 7.5
t-24.5 21.5q-14 33 -52 52t-88 19q-66 0 -102.5 -21t-36.5 -64q0 -26 20.5 -42t56 -26.5t109.5 -26.5l51 -11q68 -14 114 -36.5t73.5 -65t27.5 -111.5q0 -104 -63.5 -163z" />
    <glyph glyph-name="scedilla" unicode="&#x15f;" horiz-adv-x="536" 
d="M457 268q51 -35 51 -107q0 -77 -58.5 -121.5t-152.5 -49.5v-3q-4 -38 -12 -79h50q48 0 76.5 -28t28.5 -66q0 -42 -29.5 -71.5t-71.5 -29.5h-123q-13 0 -20 7t-7 20v20q0 13 7 20t20 7h123q11 0 19 8t8 19t-8 19t-19 8h-150q31 71 35 145v7q-100 10 -162 71q-27 20 -27 43
q0 8 5 20q16 31 45 31q15 0 33 -10q41 -32 78.5 -46.5t65.5 -14.5q39 0 62.5 17t23.5 43t-25 40.5t-89 25.5q-107 18 -155.5 54t-48.5 108q0 57 32.5 98t87.5 60.5t121 16.5q47 -1 87 -17t71 -39q39 -23 39 -54q0 -16 -14 -35q-15 -20 -43 -20q-21 0 -40 13q-21 18 -49.5 32
t-57.5 14q-37 0 -58.5 -15.5t-21.5 -41.5q0 -25 25.5 -40t83.5 -25q113 -19 164 -54z" />
    <glyph glyph-name="Scaron" unicode="&#x160;" horiz-adv-x="702" 
d="M207 962q0 11 5.5 18t15.5 7h35q11 0 19 -10l68 -87l79 88q6 9 18 9h15q16 0 26.5 -10t10.5 -24q0 -10 -8 -23l-70 -87q-7 -10 -19 -10h-97q-13 0 -20 10l-69 90q-9 15 -9 29zM521 405.5q46 -22.5 73.5 -65t27.5 -111.5q0 -123 -87 -183t-225 -60q-87 0 -163.5 40.5
t-101.5 137.5q-3 9 -3 19q0 25 18 43.5t44 18.5q19 0 34 -9.5t23 -26.5q12 -40 51 -67t112 -27q70 0 116 27t46 69q0 34 -21 53.5t-63 31.5t-124 26q-114 18 -178.5 64.5t-64.5 144.5q0 108 73.5 169.5t201.5 61.5q96 0 160.5 -32.5t94.5 -95.5q9 -16 9 -33
q0 -27 -19.5 -47.5t-48.5 -20.5h-2q-16 0 -30.5 7.5t-24.5 21.5q-14 33 -52 52t-88 19q-66 0 -102.5 -21t-36.5 -64q0 -26 20.5 -42t56 -26.5t109.5 -26.5l51 -11q68 -14 114 -36.5z" />
    <glyph glyph-name="scaron" unicode="&#x161;" horiz-adv-x="536" 
d="M110 758q0 8 6.5 12.5t16.5 4.5h36q21 0 32 -17l64 -80l72 81q15 16 34 16h34q11 0 17 -4.5t6 -12.5q0 -7 -6 -16l-82 -104q-11 -17 -32 -17h-81q-21 0 -32 17l-79 104q-6 9 -6 16zM443 35q-65 -45 -166 -45q-67 0 -119.5 16t-95.5 58q-27 20 -27 43q0 8 5 20
q16 31 45 31q15 0 33 -10q41 -32 78.5 -46.5t65.5 -14.5q39 0 62.5 17t23.5 43t-25 40.5t-89 25.5q-107 18 -155.5 54t-48.5 108q0 57 32.5 98t87.5 60.5t121 16.5q47 -1 87 -17t71 -39q39 -23 39 -54q0 -16 -14 -35q-15 -20 -43 -20q-21 0 -40 13q-21 18 -49.5 32t-57.5 14
q-37 0 -58.5 -15.5t-21.5 -41.5q0 -25 25.5 -40t83.5 -25q113 -19 164 -54t51 -107q0 -81 -65 -126z" />
    <glyph glyph-name="uni0162" unicode="&#x162;" horiz-adv-x="638" 
d="M581.5 729.5q20.5 -20.5 20.5 -48.5q0 -30 -20 -51t-50 -21h-150v-534q0 -33 -24 -55h5l-3 -36q-3 -21 -5.5 -39t-7.5 -33l51 -2q40 -9 72.5 -37t32.5 -61q0 -43 -29.5 -72.5t-71.5 -29.5h-123q-11 0 -19.5 8.5t-8.5 19.5v18q0 12 8.5 20t19.5 8h123q11 0 19 8t8 20
q0 11 -8 19t-19 8h-150q30 68 35 144l1 19q-24 7 -39.5 27t-15.5 45l-1 535h-144q-29 0 -49.5 20t-20.5 49t20.5 50.5t49.5 21.5h444q29 0 49.5 -20.5z" />
    <glyph glyph-name="uni0163" unicode="&#x163;" horiz-adv-x="385" 
d="M378.5 -125q32.5 -28 32.5 -62q0 -42 -29.5 -72t-71.5 -30h-123q-13 0 -20 7.5t-7 20.5v19q0 13 7 20.5t20 7.5h123q11 0 19 7.5t8 19.5q0 11 -8 19t-19 8h-150q31 74 35 145l1 18q-57 10 -86 47t-29 106v283h-16q-19 0 -32.5 13.5t-13.5 32.5v8q0 20 13.5 33t32.5 13h16
v44q0 30 21.5 51.5t52.5 21.5q30 0 52 -21.5t22 -51.5v-44h79q21 0 35.5 -14.5t14.5 -34.5v-1q0 -21 -14.5 -35.5t-35.5 -14.5h-79v-270q0 -59 58 -59h33q23 0 39 -16t16 -39v-1q0 -22 -16 -38.5t-39 -16.5h-51l-1 -14q-4 -41 -12 -72l50 -2q40 -8 72.5 -36z" />
    <glyph glyph-name="Tcaron" unicode="&#x164;" horiz-adv-x="660" 
d="M176 956q0 11 5.5 18t15.5 7h35q11 0 19 -10l68 -86l79 88q6 8 18 8h15q16 0 26.5 -9.5t10.5 -23.5q0 -12 -8 -23l-70 -88q-7 -10 -19 -10h-97q-14 0 -20 11l-69 89q-9 15 -9 29zM38.5 629q-20.5 20 -20.5 49t20.5 50.5t49.5 21.5h444q29 0 49.5 -20.5t20.5 -48.5
q0 -30 -20 -51t-50 -21h-150v-534q0 -31 -21.5 -53t-53.5 -22q-31 0 -52.5 21.5t-21.5 52.5l-1 535h-144q-29 0 -49.5 20z" />
    <glyph glyph-name="tcaron" unicode="&#x165;" horiz-adv-x="385" 
d="M-9 881q0 8 6.5 12.5t17.5 4.5h35q22 0 33 -17l63 -80l73 81q15 16 34 16h34q11 0 17 -4.5t6 -12.5q0 -7 -6 -16l-82 -104q-11 -17 -33 -17h-80q-22 0 -33 17l-79 104q-6 9 -6 16zM343.5 453.5q-14.5 -14.5 -35.5 -14.5h-79v-270q0 -59 58 -59h33q23 0 39 -16t16 -39v-1
q0 -22 -16 -38.5t-39 -16.5h-72q-83 0 -125 37t-42 120v283h-16q-19 0 -32.5 13.5t-13.5 32.5v8q0 20 13.5 33t32.5 13h16v44q0 30 21.5 51.5t52.5 21.5q30 0 52 -21.5t22 -51.5v-44h79q21 0 35.5 -14.5t14.5 -34.5v-1q0 -21 -14.5 -35.5z" />
    <glyph glyph-name="Tbar" unicode="&#x166;" horiz-adv-x="620" 
d="M581.5 729.5q20.5 -20.5 20.5 -48.5q0 -30 -20 -51t-50 -21h-150v-101h103q12 0 20 -8t8 -20v-71q0 -11 -8 -19.5t-20 -8.5h-103v-306q0 -31 -21.5 -53t-53.5 -22q-31 0 -52.5 21.5t-21.5 52.5l-1 307h-111q-12 0 -20 8.5t-8 19.5v71q0 12 8 20t20 8h111v101h-144
q-29 0 -49.5 20t-20.5 49t20.5 50.5t49.5 21.5h444q29 0 49.5 -20.5z" />
    <glyph glyph-name="tbar" unicode="&#x167;" horiz-adv-x="385" 
d="M359 94q16 -16 16 -39v-1q0 -22 -16 -38.5t-39 -16.5h-72q-83 0 -125 37t-42 120v107h-22q-11 0 -19.5 8.5t-8.5 19.5v48q0 12 8.5 20t19.5 8h22v72h-16q-19 0 -32.5 13.5t-13.5 32.5v8q0 20 13.5 33t32.5 13h16v44q0 30 21.5 51.5t52.5 21.5q30 0 52 -21.5t22 -51.5v-44
h79q21 0 35.5 -14.5t14.5 -34.5v-1q0 -21 -14.5 -35.5t-35.5 -14.5h-79v-72h71q12 0 20 -8t8 -20v-48q0 -11 -8 -19.5t-20 -8.5h-71v-94q0 -59 58 -59h33q23 0 39 -16z" />
    <glyph glyph-name="Umacron" unicode="&#x16a;" horiz-adv-x="754" 
d="M231 907.5q8 8.5 20 8.5h254q11 0 19.5 -8.5t8.5 -19.5v-44q0 -11 -8.5 -19.5t-19.5 -8.5h-254q-12 0 -20 8.5t-8 19.5v44q0 11 8 19.5zM81.5 728.5q21.5 21.5 52.5 21.5q30 0 52 -21.5t22 -52.5v-371q0 -87 36.5 -130t134.5 -43q65 0 98.5 20.5t45 57.5t11.5 99v367
q0 31 21.5 52.5t52.5 21.5h2q30 0 52 -21.5t22 -52.5v-388q0 -294 -305 -294q-153 0 -236 75.5t-83 214.5v392q0 31 21.5 52.5z" />
    <glyph glyph-name="umacron" unicode="&#x16b;" horiz-adv-x="651" 
d="M178 715q7 7 20 7h234q13 0 20.5 -7t7.5 -20v-43q0 -13 -7.5 -20.5t-20.5 -7.5h-234q-13 0 -20 7.5t-7 20.5v43q0 13 7 20zM113 40.5q-59 50.5 -59 145.5v276q0 32 23 55t55 23q33 0 56 -23t23 -55v-244q0 -54 28.5 -83.5t82.5 -29.5q56 0 89.5 34.5t33.5 88.5v234
q0 32 23 55t55 23t55 -23t23 -55v-392q0 -29 -20.5 -49.5t-49.5 -20.5t-49.5 20.5t-20.5 49.5v28q-21 -55 -75.5 -81.5t-119.5 -26.5q-94 0 -153 50.5z" />
    <glyph glyph-name="Uring" unicode="&#x16e;" horiz-adv-x="754" 
d="M305.5 849q-30.5 31 -30.5 74t30.5 73t73.5 30t73.5 -30t30.5 -73t-30.5 -74t-73.5 -31t-73.5 31zM408.5 889.5q11.5 12.5 11.5 31.5q0 17 -11.5 29t-29.5 12t-29.5 -12t-11.5 -29q0 -19 11.5 -31.5t29.5 -12.5t29.5 12.5zM81.5 728.5q21.5 21.5 52.5 21.5q30 0 52 -21.5
t22 -52.5v-371q0 -87 36.5 -130t134.5 -43q65 0 98.5 20.5t45 57.5t11.5 99v367q0 31 21.5 52.5t52.5 21.5h2q30 0 52 -21.5t22 -52.5v-388q0 -294 -305 -294q-153 0 -236 75.5t-83 214.5v392q0 31 21.5 52.5z" />
    <glyph glyph-name="uring" unicode="&#x16f;" horiz-adv-x="651" 
d="M247.5 635q-30.5 31 -30.5 74t30.5 73t73.5 30t73.5 -30t30.5 -73t-30.5 -74t-73.5 -31t-73.5 31zM350.5 675.5q11.5 12.5 11.5 31.5q0 17 -11.5 29t-29.5 12t-29.5 -12t-11.5 -29q0 -19 11.5 -31.5t29.5 -12.5t29.5 12.5zM113 40.5q-59 50.5 -59 145.5v276q0 32 23 55
t55 23q33 0 56 -23t23 -55v-244q0 -54 28.5 -83.5t82.5 -29.5q56 0 89.5 34.5t33.5 88.5v234q0 32 23 55t55 23t55 -23t23 -55v-392q0 -29 -20.5 -49.5t-49.5 -20.5t-49.5 20.5t-20.5 49.5v28q-21 -55 -75.5 -81.5t-119.5 -26.5q-94 0 -153 50.5z" />
    <glyph glyph-name="Uhungarumlaut" unicode="&#x170;" horiz-adv-x="754" 
d="M338.5 934.5q-12.5 -45.5 -33.5 -104.5q-6 -15 -22 -15h-29q-13 0 -21.5 8t-8.5 20q0 7 1 10q26 115 31 184q0 11 8.5 19t19.5 8h43q13 0 21.5 -8t7.5 -20q-5 -56 -17.5 -101.5zM532.5 941.5q-11.5 -43.5 -33.5 -111.5q-6 -15 -23 -15h-29q-13 0 -21.5 8t-8.5 21q0 6 1 9
q26 115 32 184q0 11 8 19t20 8h43q13 0 21 -8t7 -20q-5 -51 -16.5 -94.5zM81.5 728.5q21.5 21.5 52.5 21.5q30 0 52 -21.5t22 -52.5v-371q0 -87 36.5 -130t134.5 -43q65 0 98.5 20.5t45 57.5t11.5 99v367q0 31 21.5 52.5t52.5 21.5h2q30 0 52 -21.5t22 -52.5v-388
q0 -294 -305 -294q-153 0 -236 75.5t-83 214.5v392q0 31 21.5 52.5z" />
    <glyph glyph-name="uhungarumlaut" unicode="&#x171;" horiz-adv-x="651" 
d="M289.5 759.5q-11.5 -42.5 -31.5 -103.5q-8 -21 -31 -21h-31q-11 0 -18 5t-7 15q0 2 2 10q27 111 34 192q0 13 7 20t20 7h46q28 0 26 -27q-5 -55 -16.5 -97.5zM482.5 759.5q-12.5 -47.5 -31.5 -103.5q-8 -21 -31 -21h-31q-11 0 -18 5t-7 15q0 2 2 10l6 27q3 14 10.5 50
t11.5 62.5t6 52.5q0 13 7 20t20 7h46q27 0 27 -27q-5 -50 -17.5 -97.5zM113 40.5q-59 50.5 -59 145.5v276q0 32 23 55t55 23q33 0 56 -23t23 -55v-244q0 -54 28.5 -83.5t82.5 -29.5q56 0 89.5 34.5t33.5 88.5v234q0 32 23 55t55 23t55 -23t23 -55v-392q0 -29 -20.5 -49.5
t-49.5 -20.5t-49.5 20.5t-20.5 49.5v28q-21 -55 -75.5 -81.5t-119.5 -26.5q-94 0 -153 50.5z" />
    <glyph glyph-name="Uogonek" unicode="&#x172;" horiz-adv-x="754" 
d="M662 728.5q22 -21.5 22 -52.5v-388q0 -278 -272 -293l27 -131h-124q-12 0 -19.5 -7.5t-7.5 -19.5t7.5 -19.5t19.5 -7.5h96q12 0 20 -8.5t8 -19.5v-19q0 -11 -8 -19.5t-20 -8.5h-96q-45 0 -73 28t-28 74q0 36 30 64t75 28h24l-7 67q-133 11 -204.5 85t-71.5 203v392
q0 31 21.5 52.5t52.5 21.5q30 0 52 -21.5t22 -52.5v-371q0 -87 36.5 -130t134.5 -43q65 0 98.5 20.5t45 57.5t11.5 99v367q0 31 21.5 52.5t52.5 21.5h2q30 0 52 -21.5z" />
    <glyph glyph-name="uogonek" unicode="&#x173;" horiz-adv-x="651" 
d="M589 31.5q-12 -17.5 -31 -25.5l29 -139h-124q-12 0 -19.5 -7.5t-7.5 -19.5t7.5 -19.5t19.5 -7.5h124v-74h-124q-46 0 -73.5 27.5t-27.5 73.5q0 34 29 61t76 37l24 3l-10 76h4q-24 21 -24 53v28q-21 -55 -75.5 -81.5t-119.5 -26.5q-94 0 -153 50.5t-59 145.5v276
q0 32 23 55t55 23q33 0 56 -23t23 -55v-244q0 -54 28.5 -83.5t82.5 -29.5q56 0 89.5 34.5t33.5 88.5v234q0 32 23 55t55 23t55 -23t23 -55v-392q0 -21 -12 -38.5z" />
    <glyph glyph-name="Wcircumflex" unicode="&#x174;" horiz-adv-x="1154" 
d="M433.5 843q-5.5 7 -5.5 18q0 14 9 29l69 89q8 11 20 11h97q13 0 19 -10l70 -88q12 -16 12 -33q0 -10 -5 -16.5t-14 -6.5h-36q-11 0 -19 9l-72 87l-75 -87q-7 -9 -18 -9h-36q-10 0 -15.5 7zM974.5 734.5q20.5 15.5 46.5 15.5q31 0 52.5 -22t21.5 -53q0 -10 -3 -21
l-178 -579q-9 -34 -37 -54.5t-63 -20.5q-33 0 -60 19t-38 51l-152 434l-143 -431q-11 -32 -38.5 -52.5t-61.5 -20.5q-35 0 -62.5 21t-38.5 55l-180 580q-3 11 -3 21q0 30 21 51.5t52 21.5q25 0 45 -15t27 -39l147 -499l149 487q8 30 33 48t56 18q30 0 55 -18.5t33 -47.5
l154 -485l139 495q6 25 26.5 40.5z" />
    <glyph glyph-name="wcircumflex" unicode="&#x175;" horiz-adv-x="941" 
d="M318.5 659.5q-6.5 4.5 -6.5 12.5q0 7 6 16l79 103q11 18 33 18h80q21 0 33 -17l81 -104q6 -9 6 -16q0 -8 -6 -12.5t-17 -4.5h-34q-21 0 -33 15l-73 81l-63 -79q-11 -17 -33 -17h-35q-11 0 -17.5 4.5zM799.5 527q17.5 13 39.5 13q28 0 47.5 -20t19.5 -47q0 -13 -4 -22
l-133 -376q-12 -34 -41 -54.5t-65 -20.5q-38 0 -68 23t-40 59l-81 268l-83 -268q-10 -36 -40 -59t-68 -23q-36 0 -65.5 20.5t-40.5 54.5l-126 364q-4 12 -4 25q0 31 21.5 53.5t53.5 22.5q25 0 45 -15t28 -39l99 -323l88 299q9 34 37.5 56t63.5 22q36 0 64.5 -22t37.5 -57
l84 -298l106 330q7 21 24.5 34z" />
    <glyph glyph-name="Ycircumflex" unicode="&#x176;" horiz-adv-x="698" 
d="M214.5 843q-5.5 7 -5.5 18q0 14 9 29l69 89q8 11 20 11h97q13 0 19 -10l70 -88q12 -16 12 -33q0 -10 -5 -16.5t-14 -6.5h-36q-12 0 -19 9l-72 87l-75 -87q-7 -9 -18 -9h-36q-10 0 -15.5 7zM55 678q0 29 21 50.5t52 21.5q20 0 37.5 -10.5t26.5 -29.5l150 -284l133 281
q8 20 25.5 31.5t38.5 11.5q30 0 50 -21t20 -49q0 -20 -9 -34l-194 -347v-225q0 -30 -21.5 -52t-52.5 -22t-52.5 22t-21.5 52v225l-193 343q-10 17 -10 36z" />
    <glyph glyph-name="ycircumflex" unicode="&#x177;" horiz-adv-x="589" 
d="M146.5 639.5q-6.5 4.5 -6.5 12.5q0 7 6 16l79 103q11 18 33 18h80q21 0 33 -17l81 -104q6 -9 6 -16q0 -8 -6 -12.5t-17 -4.5h-34q-21 0 -33 15l-73 81l-63 -79q-11 -17 -33 -17h-35q-11 0 -17.5 4.5zM445 528q17 12 38 12q28 0 47 -19.5t19 -46.5q0 -12 -4 -23l-231 -581
q-8 -21 -26.5 -33.5t-40.5 -12.5q-30 0 -51 21.5t-21 51.5q0 12 4 23l41 105l-172 418q-5 15 -5 26q0 29 20.5 50t50.5 21q23 0 41.5 -13.5t25.5 -35.5l118 -323l122 328q7 20 24 32z" />
    <glyph glyph-name="Ydieresis" unicode="&#x178;" horiz-adv-x="698" 
d="M206 852.5q-19 19.5 -19 45.5q0 27 19 46.5t45 19.5q28 0 47.5 -19.5t19.5 -46.5q0 -26 -20 -45.5t-47 -19.5q-26 0 -45 19.5zM398.5 852.5q-19.5 19.5 -19.5 45.5q0 27 19.5 46.5t46.5 19.5t46.5 -19.5t19.5 -46.5q0 -26 -19.5 -45.5t-46.5 -19.5t-46.5 19.5zM55 678
q0 29 21 50.5t52 21.5q20 0 37.5 -10.5t26.5 -29.5l150 -284l133 281q8 20 25.5 31.5t38.5 11.5q30 0 50 -21t20 -49q0 -20 -9 -34l-194 -347v-225q0 -30 -21.5 -52t-52.5 -22t-52.5 22t-21.5 52v225l-193 343q-10 17 -10 36z" />
    <glyph glyph-name="Zacute" unicode="&#x179;" horiz-adv-x="637" 
d="M403.5 1016q8.5 -8 7.5 -20q-4 -43 -14 -79.5t-27 -85.5q-1 -3 -7 -20q-6 -15 -23 -15h-28q-13 0 -22 8.5t-9 21.5q0 5 1 8q11 47 17.5 81t11.5 82q0 11 8.5 19t19.5 8h43q13 0 21.5 -8zM42 144.5q7 18.5 20 32.5l360 434h-296q-28 0 -48.5 20.5t-20.5 49.5t20.5 49
t48.5 20h379q41 0 70.5 -29t29.5 -70t-27 -70l-372 -438h336q29 0 49.5 -21t20.5 -50v-1q0 -29 -20.5 -50t-49.5 -21h-401q-44 0 -75 31.5t-31 75.5q0 19 7 37.5z" />
    <glyph glyph-name="zacute" unicode="&#x17a;" horiz-adv-x="518" 
d="M353 814q-4 -46 -14 -83t-31 -97q-8 -21 -31 -21h-31q-11 0 -18 5.5t-7 14.5q0 2 2 10q13 57 20 91t8 69l3 11q0 13 7 20t20 7h46q28 0 26 -27zM52 133l273 297h-215q-23 0 -39 16t-16 39t16 39t39 16h329q32 0 55.5 -23.5t23.5 -56.5q0 -32 -21 -53l-262 -297h215
q23 0 39.5 -16t16.5 -39t-16.5 -39t-39.5 -16h-342q-32 0 -55 23t-23 56q0 30 22 54z" />
    <glyph glyph-name="Zdotaccent" unicode="&#x17b;" horiz-adv-x="637" 
d="M261 856.5q-19 19.5 -19 45.5q0 27 19 46.5t46 19.5t46.5 -19.5t19.5 -46.5q0 -26 -19.5 -45.5t-46.5 -19.5t-46 19.5zM42 144.5q7 18.5 20 32.5l360 434h-296q-28 0 -48.5 20.5t-20.5 49.5t20.5 49t48.5 20h379q41 0 70.5 -29t29.5 -70t-27 -70l-372 -438h336
q29 0 49.5 -21t20.5 -50v-1q0 -29 -20.5 -50t-49.5 -21h-401q-44 0 -75 31.5t-31 75.5q0 19 7 37.5z" />
    <glyph glyph-name="zdotaccent" unicode="&#x17c;" horiz-adv-x="518" 
d="M220.5 640.5q-19.5 19.5 -19.5 45.5q0 27 19.5 46.5t46.5 19.5t46.5 -19.5t19.5 -46.5q0 -26 -19.5 -45.5t-46.5 -19.5t-46.5 19.5zM52 133l273 297h-215q-23 0 -39 16t-16 39t16 39t39 16h329q32 0 55.5 -23.5t23.5 -56.5q0 -32 -21 -53l-262 -297h215q23 0 39.5 -16
t16.5 -39t-16.5 -39t-39.5 -16h-342q-32 0 -55 23t-23 56q0 30 22 54z" />
    <glyph glyph-name="Zcaron" unicode="&#x17d;" horiz-adv-x="637" 
d="M171 962q0 11 5.5 18t15.5 7h35q12 0 19 -10l68 -87l79 88q8 9 18 9h16q16 0 26 -9.5t10 -23.5q0 -13 -8 -24l-70 -87q-6 -10 -19 -10h-97q-12 0 -20 10l-69 90q-9 15 -9 29zM42 144.5q7 18.5 20 32.5l360 434h-296q-28 0 -48.5 20.5t-20.5 49.5t20.5 49t48.5 20h379
q41 0 70.5 -29t29.5 -70t-27 -70l-372 -438h336q29 0 49.5 -21t20.5 -50v-1q0 -29 -20.5 -50t-49.5 -21h-401q-44 0 -75 31.5t-31 75.5q0 19 7 37.5z" />
    <glyph glyph-name="zcaron" unicode="&#x17e;" horiz-adv-x="518" 
d="M114 762q0 8 6.5 12.5t17.5 4.5h35q21 0 33 -17l63 -80l73 81q13 16 33 16h34q11 0 17 -4.5t6 -11.5q0 -8 -6 -17l-81 -105q-12 -17 -33 -17h-80q-21 0 -33 18l-79 104q-6 9 -6 16zM52 133l273 297h-215q-23 0 -39 16t-16 39t16 39t39 16h329q32 0 55.5 -23.5t23.5 -56.5
q0 -32 -21 -53l-262 -297h215q23 0 39.5 -16t16.5 -39t-16.5 -39t-39.5 -16h-342q-32 0 -55 23t-23 56q0 30 22 54z" />
    <glyph glyph-name="uni0218" unicode="&#x218;" horiz-adv-x="702" 
d="M521 405.5q46 -22.5 73.5 -65t27.5 -111.5q0 -123 -87 -183t-225 -60q-87 0 -163.5 40.5t-101.5 137.5q-3 9 -3 19q0 25 18 43.5t44 18.5q19 0 34 -9.5t23 -26.5q12 -40 51 -67t112 -27q70 0 116 27t46 69q0 34 -21 53.5t-63 31.5t-124 26q-114 18 -178.5 64.5
t-64.5 144.5q0 108 73.5 169.5t201.5 61.5q96 0 160.5 -32.5t94.5 -95.5q9 -16 9 -33q0 -27 -19.5 -47.5t-48.5 -20.5h-2q-16 0 -30.5 7.5t-24.5 21.5q-14 33 -52 52t-88 19q-66 0 -102.5 -21t-36.5 -64q0 -26 20.5 -42t56 -26.5t109.5 -26.5l51 -11q68 -14 114 -36.5z
M403 -209.5q-15 -55.5 -32 -96.5q-6 -15 -22 -15h-28q-13 0 -21.5 8t-8.5 21q0 6 1 9q12 53 19.5 94.5t10.5 89.5q0 11 8.5 19t19.5 8h45q13 0 21 -8t7 -20q-5 -54 -20 -109.5z" />
    <glyph glyph-name="uni0219" unicode="&#x219;" horiz-adv-x="536" 
d="M443 35q-65 -45 -166 -45q-67 0 -119.5 16t-95.5 58q-27 20 -27 43q0 8 5 20q16 31 45 31q15 0 33 -10q41 -32 78.5 -46.5t65.5 -14.5q39 0 62.5 17t23.5 43t-25 40.5t-89 25.5q-107 18 -155.5 54t-48.5 108q0 57 32.5 98t87.5 60.5t121 16.5q47 -1 87 -17t71 -39
q39 -23 39 -54q0 -16 -14 -35q-15 -20 -43 -20q-21 0 -40 13q-21 18 -49.5 32t-57.5 14q-37 0 -58.5 -15.5t-21.5 -41.5q0 -25 25.5 -40t83.5 -25q113 -19 164 -54t51 -107q0 -81 -65 -126zM274 -230q-15 -55 -32 -98q-7 -15 -22 -15h-28q-13 0 -21.5 8.5t-8.5 20.5
q0 7 1 10q11 50 19 92.5t11 90.5q0 12 8.5 20t20.5 8h44q13 0 21 -8t7 -20q-5 -54 -20 -109z" />
    <glyph glyph-name="uni021A" unicode="&#x21a;" horiz-adv-x="660" 
d="M38.5 629q-20.5 20 -20.5 49t20.5 50.5t49.5 21.5h444q29 0 49.5 -20.5t20.5 -48.5q0 -30 -20 -51t-50 -21h-150v-534q0 -31 -21.5 -53t-53.5 -22q-31 0 -52.5 21.5t-21.5 52.5l-1 535h-144q-29 0 -49.5 20zM332 -351q-6 -15 -23 -15h-27q-13 0 -22 8.5t-9 21.5q0 5 1 8
q12 54 19.5 95t11.5 89q0 11 8 19t20 8h44q13 0 21 -8t8 -20q-10 -96 -52 -206z" />
    <glyph glyph-name="uni021B" unicode="&#x21b;" horiz-adv-x="385" 
d="M343.5 453.5q-14.5 -14.5 -35.5 -14.5h-79v-270q0 -59 58 -59h33q23 0 39 -16t16 -39v-1q0 -22 -16 -38.5t-39 -16.5h-72q-83 0 -125 37t-42 120v283h-16q-19 0 -32.5 13.5t-13.5 32.5v8q0 20 13.5 33t32.5 13h16v44q0 30 21.5 51.5t52.5 21.5q30 0 52 -21.5t22 -51.5
v-44h79q21 0 35.5 -14.5t14.5 -34.5v-1q0 -21 -14.5 -35.5zM236 -281q-9 -21 -31 -21h-30q-11 0 -18 5.5t-7 15.5q0 2 2 10q27 113 31 183l2 8q0 13 7 20.5t20 7.5h47q27 0 27 -28q-10 -95 -50 -201z" />
    <glyph glyph-name="circumflex" unicode="&#x2c6;" horiz-adv-x="302" 
d="M-0.5 863.5q-6.5 4.5 -6.5 11.5t6 16l80 104q11 18 32 18h81q21 0 32 -17l82 -104q6 -9 6 -16q0 -8 -6 -12.5t-17 -4.5h-34q-20 0 -34 15l-72 81l-64 -79q-11 -17 -32 -17h-36q-11 0 -17.5 4.5z" />
    <glyph glyph-name="caron" unicode="&#x2c7;" horiz-adv-x="302" 
d="M-7 931q0 8 6.5 12.5t17.5 4.5h36q21 0 32 -17l64 -80l72 81q15 16 34 16h34q11 0 17 -4.5t6 -12.5q0 -7 -6 -16l-82 -104q-11 -17 -32 -17h-81q-21 0 -32 17l-80 104q-6 9 -6 16z" />
    <glyph glyph-name="breve" unicode="&#x2d8;" horiz-adv-x="255" 
d="M7 817q-7 6 -7 14v31q0 6 4 8.5t9 -1.5q22 -13 53 -20.5t61 -9.5q30 0 60.5 7.5t54.5 19.5q2 2 7 2q7 0 7 -9v-32q0 -10 -8 -13q-52 -33 -122 -33t-119 36z" />
    <glyph glyph-name="dotaccent" unicode="&#x2d9;" horiz-adv-x="102" 
d="M2 786.5q-19 19.5 -19 45.5q0 27 19 46.5t46 19.5t47 -19.5t20 -46.5q0 -26 -20 -45.5t-47 -19.5t-46 19.5z" />
    <glyph glyph-name="ring" unicode="&#x2da;" horiz-adv-x="212" 
d="M50 785.5q-23 23.5 -23 56.5q0 32 23.5 55.5t55.5 23.5q33 0 56 -23.5t23 -55.5q0 -34 -23 -57t-56 -23t-56 23.5zM129 820.5q9 9.5 9 24.5q0 14 -9 23t-23 9t-23 -9t-9 -23q0 -15 9 -24.5t23 -9.5t23 9.5z" />
    <glyph glyph-name="ogonek" unicode="&#x2db;" horiz-adv-x="226" 
d="M195 0l32 -150h-126q-12 0 -19.5 -7.5t-7.5 -19.5t7.5 -19.5t19.5 -7.5h97q13 0 21 -7.5t8 -20.5v-19q0 -13 -8 -20.5t-21 -7.5h-97q-45 0 -73 28t-28 74q0 34 29 61t76 37l25 2l-10 77h75z" />
    <glyph glyph-name="tilde" unicode="&#x2dc;" horiz-adv-x="256" 
d="M16 806q-5 0 -7 8l-7 42v3q0 8 6 12l59 45q5 -14 31.5 -27t53.5 -13q16 0 40 8t41 18l6 2q7 0 8 -7l7 -44q1 -1 1 -4q0 -5 -6 -10q-18 -13 -47.5 -22.5t-49.5 -9.5q-48 0 -89 33l-40 -31q-3 -3 -7 -3z" />
    <glyph glyph-name="hungarumlaut" unicode="&#x2dd;" horiz-adv-x="337" 
d="M126.5 890q-10.5 -42 -20 -71.5t-12.5 -37.5q-8 -21 -31 -21h-31q-11 0 -18 5.5t-7 14.5q0 2 2 10q27 113 32 185l2 7q0 13 7 20t20 7h46q27 0 26 -27q-5 -50 -15.5 -92zM319 886.5q-12 -45.5 -32 -105.5q-9 -21 -31 -21h-31q-11 0 -18 5.5t-7 14.5q0 2 2 10
q27 115 32 186l2 6q0 27 27 27h46q27 0 27 -27q-5 -50 -17 -95.5z" />
    <glyph glyph-name="gravecomb" unicode="&#x300;" 
d="M-140 982q0 13 27 13h46q13 0 20.5 -7t7.5 -20l2 -11q1 -35 8 -71t20 -89q2 -8 2 -10q0 -9 -7 -14.5t-18 -5.5h-31q-23 0 -31 21q-19 55 -29 90.5t-13 75.5l-4 27v1z" />
    <glyph glyph-name="acutecomb" unicode="&#x301;" 
d="M-2 976q-5 -47 -15.5 -85.5t-29.5 -94.5q-8 -21 -31 -21h-31q-11 0 -18 5.5t-7 14.5q0 2 2 10q13 57 20 91t8 69l2 11q0 13 7.5 20t20.5 7h46q27 0 26 -27z" />
    <glyph glyph-name="uni0302" unicode="&#x302;" 
d="M-302.5 863.5q-6.5 4.5 -6.5 11.5t6 16l80 104q11 18 32 18h81q21 0 32 -17l82 -104q6 -9 6 -16q0 -8 -6 -12.5t-17 -4.5h-34q-20 0 -34 15l-72 81l-64 -79q-11 -17 -32 -17h-36q-11 0 -17.5 4.5z" />
    <glyph glyph-name="tildecomb" unicode="&#x303;" 
d="M-240 806q-5 0 -7 8l-7 42v3q0 8 6 12l59 45q5 -14 31.5 -27t53.5 -13q16 0 40 8t41 18l6 2q7 0 8 -7l7 -44q1 -1 1 -4q0 -5 -6 -10q-18 -13 -47.5 -22.5t-49.5 -9.5q-48 0 -89 33l-40 -31q-3 -3 -7 -3z" />
    <glyph glyph-name="uni0304" unicode="&#x304;" 
d="M-474.5 571.5q7.5 7.5 21.5 7.5h425q13 0 20.5 -8t7.5 -21v-45q0 -13 -7.5 -20.5t-20.5 -7.5h-425q-14 0 -21.5 7.5t-7.5 20.5v45q0 14 7.5 21.5z" />
    <glyph glyph-name="uni0306" unicode="&#x306;" 
d="M-248 817q-7 6 -7 14v31q0 6 4 8.5t9 -1.5q22 -13 53 -20.5t61 -9.5q30 0 60.5 7.5t54.5 19.5q2 2 7 2q7 0 7 -9v-32q0 -10 -8 -13q-52 -33 -122 -33t-119 36z" />
    <glyph glyph-name="uni0307" unicode="&#x307;" 
d="M-100 786.5q-19 19.5 -19 45.5q0 27 19 46.5t46 19.5t47 -19.5t20 -46.5q0 -26 -20 -45.5t-47 -19.5t-46 19.5z" />
    <glyph glyph-name="uni0308" unicode="&#x308;" 
d="M-263.5 785.5q-19.5 19.5 -19.5 45.5q0 27 19.5 46.5t45.5 19.5q28 0 47.5 -19.5t19.5 -46.5q0 -26 -19.5 -45.5t-47.5 -19.5q-26 0 -45.5 19.5zM-70.5 785.5q-19.5 19.5 -19.5 45.5q0 27 19.5 46.5t46.5 19.5t46.5 -19.5t19.5 -46.5q0 -26 -19.5 -45.5t-46.5 -19.5
t-46.5 19.5z" />
    <glyph glyph-name="uni030A" unicode="&#x30a;" 
d="M-162 785.5q-23 23.5 -23 56.5q0 32 23.5 55.5t55.5 23.5q33 0 56 -23.5t23 -55.5q0 -34 -23 -57t-56 -23t-56 23.5zM-83 820.5q9 9.5 9 24.5q0 14 -9 23t-23 9t-23 -9t-9 -23q0 -15 9 -24.5t23 -9.5t23 9.5z" />
    <glyph glyph-name="uni030B" unicode="&#x30b;" 
d="M-210.5 890q-10.5 -42 -20 -71.5t-12.5 -37.5q-8 -21 -31 -21h-31q-11 0 -18 5.5t-7 14.5q0 2 2 10q27 113 32 185l2 7q0 13 7 20t20 7h46q27 0 26 -27q-5 -50 -15.5 -92zM-18 886.5q-12 -45.5 -32 -105.5q-9 -21 -31 -21h-31q-11 0 -18 5.5t-7 14.5q0 2 2 10
q27 115 32 186l2 6q0 27 27 27h46q27 0 27 -27q-5 -50 -17 -95.5z" />
    <glyph glyph-name="uni030C" unicode="&#x30c;" 
d="M-309 931q0 8 6.5 12.5t17.5 4.5h36q21 0 32 -17l64 -80l72 81q15 16 34 16h34q11 0 17 -4.5t6 -12.5q0 -7 -6 -16l-82 -104q-11 -17 -32 -17h-81q-21 0 -32 17l-80 104q-6 9 -6 16z" />
    <glyph glyph-name="uni0312" unicode="&#x312;" 
d="M-15 853q17 -20 16 -45q-3 -25 -21.5 -42t-44.5 -17q-43 0 -75.5 27.5t-42.5 70.5q-8 54 -8 100l-2 49q2 30 30 27l44 -3q27 -3 26 -30l2 -48q-1 -22 1 -70q14 4 22 4q7 0 10 -1q26 -2 43 -22z" />
    <glyph glyph-name="uni0326" unicode="&#x326;" 
d="M-118 -158q-3 -8 -11 -8h-65q-5 0 -7 3t-1 8q16 65 25 108.5t12 94.5l1 26q0 4 3 7t7 3h83q9 0 9 -10l-2 -26q-8 -84 -54 -206z" />
    <glyph glyph-name="uni0327" unicode="&#x327;" 
d="M-32 -146q33 -28 33 -62q0 -42 -30.5 -71.5t-72.5 -29.5h-123q-13 0 -20 7t-7 20v20q0 13 7 20t20 7h123q12 0 19.5 8t7.5 19t-7.5 19t-19.5 8h-116q-11 0 -17 5t-6 13q0 5 3 13q19 68 23 123q0 13 7 20t20 7h20q13 0 20 -7t6 -20q-4 -40 -14 -80l51 -3q40 -8 73 -36z
" />
    <glyph glyph-name="uni0328" unicode="&#x328;" 
d="M-31 0l32 -150h-126q-12 0 -19.5 -7.5t-7.5 -19.5t7.5 -19.5t19.5 -7.5h97q13 0 21 -7.5t8 -20.5v-19q0 -13 -8 -20.5t-21 -7.5h-97q-45 0 -73 28t-28 74q0 34 29 61t76 37l25 2l-10 77h75z" />
    <glyph glyph-name="uni060C" unicode="&#x60c;" horiz-adv-x="287" 
d="M97 148.5q14 53.5 31 94.5q4 11 11.5 16t19.5 5h29q12 0 18.5 -5.5t6.5 -15.5q0 -6 -1 -9q-28 -114 -33 -192q0 -13 -7.5 -20t-20.5 -7h-47q-27 0 -26 27q5 53 19 106.5z" />
    <glyph glyph-name="uni0615" unicode="&#x615;" 
d="M378.5 855.5q20.5 -24.5 20.5 -71.5v-61h-246v55h41v171h54v-102q35 33 71 33q39 0 59.5 -24.5zM346 784q0 20 -9 30.5t-25 10.5q-33 0 -64 -37v-10h98v6z" />
    <glyph glyph-name="uni061B" unicode="&#x61b;" horiz-adv-x="265" 
d="M144 535q11 21 31 21h30q11 0 18 -5.5t7 -15.5q0 -2 -2 -10q-27 -109 -32 -191q0 -13 -7.5 -20.5t-20.5 -7.5h-47q-28 0 -26 28q8 94 49 201zM98.5 12q-17.5 18 -17.5 44q0 24 18 41t42 17t42 -17t18 -41q0 -26 -17.5 -44t-42.5 -18t-42.5 18z" />
    <glyph glyph-name="uni061C" unicode="&#x61c;" horiz-adv-x="600" 
 />
    </font>
</defs>
</svg>
